<svg width="450" height="502" viewBox="0 0 450 502" fill="none" xmlns="http://www.w3.org/2000/svg">
<path d="M393.814 491.463L383.501 491.462L378.595 451.684L393.816 451.685L393.814 491.463Z" fill="#9E616A"/>
<path d="M396.444 501.459L363.191 501.458V501.037C363.192 497.604 364.555 494.313 366.983 491.885C369.41 489.458 372.702 488.095 376.134 488.094H376.135L396.444 488.095L396.444 501.459Z" fill="#222222"/>
<path d="M356.802 491.463L346.49 491.462L341.583 451.684L356.804 451.685L356.802 491.463Z" fill="#9E616A"/>
<path d="M359.432 501.459L326.18 501.458V501.037C326.18 497.604 327.544 494.313 329.971 491.885C332.398 489.458 335.69 488.095 339.122 488.094H339.123L359.433 488.095L359.432 501.459Z" fill="#222222"/>
<path d="M236.694 212.733C237.519 213.867 238.581 214.806 239.808 215.484C241.034 216.162 242.394 216.564 243.792 216.659C245.19 216.755 246.593 216.543 247.9 216.039C249.207 215.534 250.388 214.749 251.359 213.738L271.765 221.707L279.632 210.487L250.657 199.639C248.852 198.12 246.551 197.316 244.193 197.38C241.834 197.443 239.581 198.37 237.86 199.984C236.138 201.598 235.069 203.788 234.854 206.137C234.64 208.487 235.294 210.834 236.694 212.733V212.733Z" fill="#9E616A"/>
<path d="M356.672 280.711L329.805 289.474L338.78 479.745L359.515 480.258L370.127 346.076L372.536 479.728L398.175 481.141L407.626 280.711H356.672Z" fill="#222222"/>
<path d="M338.544 168.549L407.499 153.566L415.167 212.941L408.782 241.31L411.34 284.424C411.34 284.424 356.816 311.561 329.805 289.474C329.805 289.474 351.515 232.451 338.931 205.757L338.544 168.549Z" fill="#E4E4E4"/>
<path d="M350.486 176.947L338.544 168.548C338.544 168.548 337.839 167.571 327.887 179.205C317.935 190.84 297.747 209.345 297.747 209.345L264.1 196.728L257.97 219.376L297.075 237.6L352.438 200.626L350.486 176.947Z" fill="#E4E4E4"/>
<path d="M411.352 306.68C412.62 306.082 413.74 305.213 414.635 304.134C415.53 303.056 416.178 301.794 416.532 300.438C416.887 299.082 416.94 297.665 416.688 296.287C416.435 294.908 415.884 293.602 415.072 292.459L426.702 273.895L417.145 264.076L401.089 290.522C399.26 292.014 398.042 294.124 397.665 296.453C397.288 298.782 397.779 301.169 399.044 303.16C400.309 305.152 402.261 306.61 404.529 307.259C406.798 307.908 409.226 307.702 411.352 306.68V306.68Z" fill="#9E616A"/>
<path d="M396.744 165.263L407.499 153.566C407.499 153.566 419.483 149.393 429.274 170.957C439.065 192.522 450 236.263 450 236.263L424.432 285.512L404.576 276.64L424.432 235.915L403.421 205.757L396.744 165.263Z" fill="#E4E4E4"/>
<path d="M378.507 148.696C389.354 142.767 393.34 129.167 387.411 118.32C381.481 107.473 367.881 103.487 357.034 109.416C346.187 115.345 342.201 128.945 348.131 139.792C354.06 150.639 367.66 154.626 378.507 148.696Z" fill="#9E616A"/>
<path d="M386.645 109.041C385.586 104.596 381.881 101.088 377.618 99.4428C373.356 97.7977 368.609 97.8136 364.104 98.579C356.628 99.8494 349.646 103.074 342.766 106.266L348.069 108.803L340.751 109.222L346.405 112.147C344.896 113.296 343.747 114.854 343.096 116.636C342.445 118.418 342.319 120.35 342.732 122.202C343.024 123.414 343.801 124.749 345.047 124.791C346.553 124.841 347.339 123.087 348.393 122.01C349.795 120.578 352.01 120.26 353.995 120.53C355.981 120.8 357.865 121.564 359.824 121.987C362.302 122.503 364.862 122.474 367.327 121.903C369.792 121.332 372.104 120.232 374.102 118.679L381.153 135.657C381.086 135.017 381.169 134.37 381.394 133.766C381.618 133.163 381.98 132.62 382.449 132.18C382.919 131.739 383.483 131.413 384.1 131.227C384.716 131.041 385.367 131 386.002 131.107C386.636 131.214 387.238 131.466 387.759 131.844C388.28 132.222 388.707 132.715 389.006 133.285C389.305 133.855 389.468 134.487 389.483 135.13C389.498 135.774 389.363 136.412 389.09 136.995C392.143 132.392 394.598 127.161 394.682 121.638C394.767 116.115 392.027 110.296 387.013 107.979" fill="#222222"/>
<path d="M127.245 452.013L117.711 467.002L123.264 447.488C111.539 435.253 95.3061 426.303 95.3061 426.303C95.3061 426.303 75.3181 459.153 80.6979 479.361C86.0777 499.568 99.969 503.426 114.788 499.481C129.607 495.536 139.741 485.282 134.361 465.074C133.164 460.576 130.563 456.161 127.245 452.013Z" fill="#F2F2F2"/>
<path d="M114.63 468.496L114.896 469.492C117.919 481.086 118.371 490.64 116.233 498.02C116.204 498.129 116.168 498.233 116.139 498.341L115.64 498.194L115.163 498.047C117.585 490.046 116.504 479.937 113.87 469.824C113.788 469.497 113.705 469.165 113.612 468.836C112.459 464.565 111.046 460.31 109.509 456.22C109.393 455.903 109.27 455.582 109.148 455.26C107.09 449.873 104.842 444.8 102.759 440.428C102.614 440.118 102.463 439.81 102.313 439.507C98.7576 432.121 95.7433 426.888 95.066 425.732C94.9859 425.59 94.9389 425.512 94.9287 425.494L95.3617 425.236L95.3653 425.23L95.8033 424.971C95.8135 424.989 95.9721 425.248 96.2493 425.734C97.2968 427.546 100.079 432.482 103.286 439.115C103.43 439.415 103.58 439.724 103.726 440.033C105.42 443.58 107.216 447.569 108.924 451.803C109.355 452.866 109.767 453.918 110.161 454.959C110.288 455.279 110.41 455.6 110.527 455.918C112.189 460.338 113.557 464.531 114.63 468.496Z" fill="white"/>
<path d="M103.286 439.116C102.968 439.248 102.644 439.382 102.313 439.507C101.415 439.848 100.499 440.143 99.5703 440.39C95.6131 441.449 91.4688 441.607 87.4426 440.852C87.305 441.168 87.1675 441.485 87.0264 441.807C91.2723 442.641 95.6526 442.494 99.8329 441.376C100.824 441.112 101.801 440.795 102.759 440.428C103.085 440.304 103.409 440.171 103.726 440.033C106.349 438.916 108.787 437.407 110.957 435.558C110.673 435.343 110.395 435.132 110.123 434.925C108.063 436.651 105.759 438.063 103.286 439.116V439.116Z" fill="white"/>
<path d="M110.161 454.959C109.826 455.069 109.488 455.17 109.148 455.261C109.045 455.293 108.937 455.322 108.833 455.349C104.544 456.491 100.042 456.579 95.7117 455.606C91.3811 454.632 87.3502 452.625 83.9627 449.757C83.8429 450.1 83.7231 450.444 83.6096 450.791C87.1119 453.673 91.2505 455.68 95.6827 456.644C100.115 457.608 104.713 457.502 109.096 456.336C109.234 456.299 109.372 456.262 109.509 456.22C109.853 456.124 110.19 456.023 110.527 455.918C115.72 454.247 120.322 451.115 123.782 446.897C123.547 446.648 123.311 446.399 123.071 446.152C119.716 450.281 115.229 453.342 110.161 454.959V454.959Z" fill="white"/>
<path d="M114.63 468.496C114.293 468.618 113.953 468.729 113.612 468.836C113.246 468.949 112.879 469.058 112.509 469.156C106.744 470.684 100.638 470.303 95.1075 468.071C89.5766 465.838 84.9175 461.875 81.8279 456.773C81.7123 457.231 81.5954 457.685 81.4897 458.141C84.7809 463.175 89.5748 467.044 95.1904 469.199C100.806 471.353 106.958 471.684 112.772 470.142C113.142 470.044 113.51 469.941 113.87 469.824C114.217 469.721 114.557 469.609 114.896 469.492C121.722 467.091 127.381 462.185 130.727 455.768C130.526 455.43 130.312 455.102 130.096 454.769C126.922 461.182 121.375 466.106 114.63 468.496Z" fill="white"/>
<path d="M304.688 86.5817C304.688 51.2473 280.054 22.603 249.667 22.603C219.279 22.603 194.645 51.2473 194.645 86.5817C194.645 118.628 214.909 145.171 241.349 149.833V155.863C241.349 157.002 241.802 158.094 242.607 158.899C243.413 159.705 244.505 160.157 245.644 160.157H253.689C254.828 160.157 255.921 159.705 256.726 158.899C257.531 158.094 257.984 157.002 257.984 155.863V149.833C284.425 145.171 304.688 118.629 304.688 86.5817Z" fill="#517FA4"/>
<path d="M240.027 154.991C241.748 153.374 243.799 152.149 246.039 151.4C248.279 150.651 250.654 150.395 253.002 150.65C255.368 150.925 257.638 151.745 259.634 153.046C261.629 154.347 263.295 156.094 264.5 158.148C265.705 160.142 266.462 162.374 266.719 164.69C266.975 167.005 266.725 169.349 265.985 171.558C264.539 175.964 261.465 179.63 258.313 182.935C255.007 186.402 251.411 189.599 248.302 193.253C243.177 199.314 239.597 206.527 237.872 214.275C236.146 222.023 236.325 230.073 238.394 237.737C241.122 247.45 246.753 256.097 254.534 262.519C255.521 263.326 256.539 264.095 257.586 264.826C258.797 265.674 259.944 263.687 258.743 262.846C250.296 256.87 244.053 248.278 240.98 238.397C238.65 230.698 238.352 222.526 240.115 214.678C241.877 206.829 245.641 199.57 251.039 193.606C254.318 189.985 257.99 186.745 261.268 183.123C264.408 179.654 267.27 175.74 268.497 171.157C269.118 168.827 269.272 166.397 268.95 164.007C268.628 161.617 267.836 159.314 266.621 157.231C265.411 155.102 263.774 153.245 261.814 151.778C259.853 150.311 257.61 149.265 255.226 148.705C250.429 147.662 245.416 148.53 241.249 151.124C240.228 151.776 239.276 152.528 238.405 153.37C237.341 154.395 238.963 156.015 240.027 154.991V154.991Z" fill="#243949"/>
<path d="M94.7106 90.643C82.2358 62.8987 52.1297 48.8215 27.4668 59.2006C2.80385 69.5798 -7.07645 100.485 5.39838 128.229C16.7125 153.392 42.5295 167.312 65.6351 161.941L67.7638 166.675C68.1659 167.57 68.9187 168.273 69.8567 168.63C70.7947 168.988 71.841 168.97 72.7654 168.581L79.2952 165.833C80.2196 165.444 80.9464 164.715 81.3157 163.808C81.685 162.9 81.6666 161.888 81.2644 160.994L79.1358 156.26C98.9496 143.568 106.025 115.806 94.7106 90.643Z" fill="#517FA4"/>
<path d="M67.6715 166.997C69.1112 164.854 70.9792 163.038 73.1544 161.668C75.3296 160.298 77.7635 159.404 80.2985 159.043C82.7881 158.687 85.3225 158.885 87.7242 159.622C90.1259 160.36 92.3369 161.62 94.2025 163.314C96.1307 165.025 97.6741 167.133 98.7297 169.499C99.7853 171.864 100.329 174.431 100.324 177.03C100.304 183.051 97.444 188.649 94.4421 193.692C91.2953 198.98 87.6679 204.007 85.1131 209.632C81.5422 217.541 79.8728 226.185 80.2416 234.856C80.6103 243.526 83.0068 251.977 87.2346 259.515C92.5879 268.858 100.534 276.404 110.096 281.224C111.269 281.811 112.466 282.349 113.68 282.845C114.947 283.363 115.896 281.425 114.623 280.905C104.515 276.734 95.9531 269.488 90.1202 260.167C83.9512 250.211 81.3115 238.422 82.632 226.724C83.2765 220.793 84.9135 215.011 87.4732 209.626C90.1925 203.947 93.9441 198.857 97.0746 193.414C100.062 188.22 102.561 182.51 102.449 176.398C102.303 171.007 100.046 165.904 96.1731 162.209C94.324 160.401 92.1363 158.984 89.7369 158.04C87.3376 157.096 84.7746 156.644 82.1968 156.71C76.9191 156.917 71.9093 159.147 68.1867 162.948C67.2762 163.899 66.4616 164.939 65.7552 166.053C65.0022 167.216 66.9273 168.147 67.6715 166.997L67.6715 166.997Z" fill="#243949"/>
<path d="M13.9053 325.003L10.8776 328.802L0.168213 322.467L3.19593 318.667L13.9053 325.003Z" fill="#E4E4E4"/>
<path d="M25.08 341.326L27.7547 345.317L16.5043 350.914L13.8296 346.922L25.08 341.326Z" fill="#E4E4E4"/>
<path d="M36.7262 323.974L42.071 324.163L41.5391 335.346L36.1943 335.158L36.7262 323.974Z" fill="#E4E4E4"/>
<path d="M139.996 22.384L136.969 26.1828L126.259 19.8476L129.287 16.0481L139.996 22.384Z" fill="#E4E4E4"/>
<path d="M151.171 38.7068L153.846 42.6981L142.595 48.2943L139.921 44.3029L151.171 38.7068Z" fill="#E4E4E4"/>
<path d="M162.818 21.3552L168.162 21.544L167.63 32.7271L162.286 32.5384L162.818 21.3552Z" fill="#E4E4E4"/>
<path d="M437.266 62.1218L434.238 65.9206L423.529 59.5854L426.557 55.7859L437.266 62.1218Z" fill="#E4E4E4"/>
<path d="M346.328 6.3359L343.3 10.1347L332.591 3.79955L335.618 0L346.328 6.3359Z" fill="#E4E4E4"/>
<path d="M357.502 22.6589L360.177 26.6503L348.927 32.2465L346.252 28.2551L357.502 22.6589Z" fill="#E4E4E4"/>
<path d="M369.149 5.30713L374.493 5.49588L373.961 16.679L368.617 16.4903L369.149 5.30713Z" fill="#E4E4E4"/>
<path d="M211.603 492.04L220.862 490.607L214.514 416.634L193.881 420.455L211.603 492.04Z" fill="#FFB6B6"/>
<path d="M208.774 489.382L227.008 486.562L227.008 486.562C230.09 486.086 233.235 486.853 235.751 488.695C238.267 490.537 239.948 493.304 240.425 496.385L240.483 496.763L210.629 501.38L208.774 489.382Z" fill="#222222"/>
<path d="M114.294 491.123L123.653 491.521L135.038 425.803L114.405 425.804L114.294 491.123Z" fill="#FFB6B6"/>
<path d="M112.036 487.964L130.47 488.75H130.471C133.586 488.883 136.521 490.248 138.631 492.545C140.74 494.842 141.85 497.882 141.717 500.998L141.701 501.38L111.52 500.094L112.036 487.964Z" fill="#222222"/>
<path d="M132.722 277.012C132.281 276.887 131.829 276.803 131.372 276.76L137.207 228.998L157.006 187.068C158.252 184.43 158.451 181.419 157.563 178.64C156.676 175.861 154.767 173.523 152.223 172.096C149.679 170.669 146.688 170.26 143.855 170.951C141.021 171.643 138.555 173.383 136.953 175.821V175.821C131.764 183.722 127.839 192.384 125.319 201.495L117 231.571L123.083 283.148C122.85 284.601 123.042 286.092 123.635 287.439C124.229 288.786 125.2 289.933 126.43 290.742C127.66 291.551 129.098 291.987 130.57 291.998C132.043 292.008 133.487 291.593 134.729 290.803C135.971 290.012 136.958 288.879 137.571 287.541C138.185 286.202 138.398 284.715 138.186 283.258C137.974 281.801 137.346 280.437 136.377 279.328C135.407 278.22 134.138 277.416 132.722 277.012H132.722Z" fill="#FFB6B6"/>
<path d="M144.744 233.04L119.729 204.424L132.121 175.277C133.744 171.46 136.794 168.428 140.621 166.829C144.447 165.23 148.748 165.189 152.604 166.716C156.46 168.244 159.566 171.217 161.26 175.003C162.954 178.789 163.102 183.087 161.671 186.979L144.744 233.04Z" fill="#222222"/>
<path d="M186.327 141.814C192.345 130.804 188.299 117.001 177.289 110.982C166.28 104.964 152.476 109.01 146.458 120.02C140.44 131.029 144.486 144.833 155.495 150.851C166.505 156.869 180.308 152.823 186.327 141.814Z" fill="#FFB6B6"/>
<path d="M170.191 103.316H155.515C145.894 103.316 138.095 112.09 138.095 122.914L138.774 149.167C149.17 150.461 159.338 153.18 168.991 157.249L170.361 151.4L173.063 159.103C175.466 160.268 177.848 161.541 180.21 162.923C177.453 149.969 176.319 137.045 178.212 127.006H183.182V121.566L184.869 127.006H193.881V127.006C193.881 123.895 193.268 120.814 192.078 117.94C190.887 115.066 189.142 112.454 186.942 110.254C184.742 108.055 182.131 106.31 179.257 105.119C176.382 103.929 173.302 103.316 170.191 103.316V103.316Z" fill="#222222"/>
<path d="M218.042 420.653L215.916 421.165L214.132 387.977L201.141 288.632L186.239 250.805L193.499 224.44C193.499 224.44 201.905 206.099 180.89 191.962L164.078 163.687C152.464 156.094 142.909 161.059 137.816 173.965C133.378 185.211 129.933 199.438 131.982 214.123C136.572 247.018 140.388 250.805 140.388 250.805C140.388 250.805 111.731 282.518 117.844 323.02L114.437 427.886L111.32 427.758L110.978 436.087L138.211 437.204L138.553 428.874L136.294 428.782L146.119 387.212L160.639 332.191L185.857 399.439L194.339 426.361L191.545 427.034L193.497 435.139L219.994 428.757L218.042 420.653Z" fill="#222222"/>
<path d="M236.757 232.345C236.448 232.684 236.171 233.051 235.928 233.441L195.806 206.88L167.141 170.432C165.338 168.139 162.732 166.615 159.85 166.168C156.967 165.721 154.022 166.383 151.609 168.022C149.196 169.66 147.494 172.153 146.846 174.997C146.198 177.841 146.653 180.825 148.119 183.347V183.347C152.869 191.52 158.864 198.901 165.889 205.227L189.079 226.107L237.94 243.71C239.136 244.568 240.555 245.063 242.025 245.133C243.496 245.204 244.956 244.848 246.229 244.109C247.502 243.37 248.535 242.278 249.202 240.966C249.87 239.654 250.144 238.176 249.991 236.712C249.839 235.247 249.267 233.858 248.343 232.711C247.42 231.565 246.185 230.709 244.787 230.248C243.389 229.786 241.887 229.739 240.462 230.111C239.038 230.483 237.751 231.259 236.757 232.345H236.757Z" fill="#FFB6B6"/>
<path d="M202.79 201.943L166.012 211.536L145.473 187.426C142.783 184.269 141.434 180.186 141.713 176.048C141.992 171.91 143.877 168.045 146.966 165.277C150.056 162.51 154.104 161.06 158.248 161.236C162.392 161.411 166.302 163.2 169.146 166.219L202.79 201.943Z" fill="#222222"/>
</svg>
