<svg width="866" height="659" viewBox="0 0 866 659" fill="none" xmlns="http://www.w3.org/2000/svg">
<g clip-path="url(#clip0)">
<path d="M307.917 153.234C307.558 153.234 307.212 153.098 306.95 152.852C306.687 152.607 306.527 152.272 306.502 151.913C305.573 139.292 299.912 127.486 290.652 118.86C281.392 110.233 269.217 105.421 256.561 105.387C255.046 105.387 253.455 105.464 251.832 105.616C251.56 105.641 251.287 105.588 251.045 105.463C250.803 105.337 250.602 105.144 250.466 104.908C244.653 94.7321 235.972 86.494 225.506 81.2213C215.04 75.9486 203.253 73.8749 191.616 75.259C179.979 76.643 169.007 81.4235 160.07 89.0038C151.133 96.5842 144.626 106.629 141.362 117.884C141.276 118.185 141.091 118.45 140.839 118.635C140.586 118.821 140.278 118.917 139.965 118.909L139.587 118.897C139.39 118.891 139.194 118.884 138.996 118.884C129.397 118.914 120.096 122.225 112.638 128.268C105.18 134.311 100.012 142.723 97.9917 152.107C97.9244 152.426 97.7496 152.712 97.4965 152.917C97.2434 153.123 96.9274 153.235 96.6015 153.235H1.42075C1.0446 153.234 0.684203 153.083 0.418579 152.817C0.152955 152.551 0.00378418 152.19 0.00378418 151.814C0.00378418 151.438 0.152955 151.077 0.418579 150.811C0.684203 150.544 1.0446 150.394 1.42075 150.393H95.4645C97.8319 140.632 103.401 131.946 111.282 125.719C119.163 119.493 128.903 116.086 138.947 116.043C142.523 104.476 149.38 94.1977 158.687 86.455C167.993 78.7122 179.348 73.8388 191.371 72.4267C203.395 71.0146 215.569 73.1246 226.417 78.5004C237.264 83.8762 246.316 92.2864 252.474 102.709C253.872 102.6 255.243 102.546 256.561 102.546C269.935 102.582 282.802 107.667 292.588 116.784C302.373 125.901 308.355 138.376 309.336 151.714C309.349 151.9 309.326 152.087 309.266 152.264C309.207 152.441 309.114 152.605 308.991 152.746C308.869 152.887 308.72 153.002 308.553 153.085C308.386 153.168 308.204 153.218 308.018 153.231C307.984 153.233 307.951 153.234 307.917 153.234Z" fill="#CBCBCB"/>
<path d="M291.013 171.451H58.0147C57.6379 171.451 57.2766 171.301 57.0101 171.035C56.7437 170.768 56.594 170.407 56.594 170.03C56.594 169.653 56.7437 169.292 57.0101 169.025C57.2766 168.759 57.6379 168.609 58.0147 168.609H291.013C291.39 168.609 291.752 168.759 292.018 169.025C292.284 169.292 292.434 169.653 292.434 170.03C292.434 170.407 292.284 170.768 292.018 171.035C291.752 171.301 291.39 171.451 291.013 171.451Z" fill="#CBCBCB"/>
<path d="M114.844 192.051H36.7039C36.517 192.052 36.3318 192.015 36.159 191.944C35.9862 191.873 35.8291 191.768 35.6968 191.636C35.5645 191.504 35.4595 191.348 35.3879 191.175C35.3162 191.002 35.2794 190.817 35.2794 190.63C35.2794 190.444 35.3162 190.259 35.3879 190.086C35.4595 189.913 35.5645 189.756 35.6968 189.625C35.8291 189.493 35.9862 189.388 36.159 189.317C36.3318 189.246 36.517 189.209 36.7039 189.21H114.844C115.22 189.211 115.58 189.361 115.846 189.627C116.111 189.894 116.261 190.254 116.261 190.63C116.261 191.007 116.111 191.367 115.846 191.634C115.58 191.9 115.22 192.05 114.844 192.051Z" fill="#CBCBCB"/>
<path d="M644.862 374.228C645.119 374.228 645.367 374.13 645.555 373.954C645.744 373.778 645.858 373.538 645.876 373.281C646.542 364.234 650.6 355.772 657.237 349.588C663.874 343.405 672.602 339.956 681.673 339.931C682.759 339.931 683.899 339.987 685.063 340.096C685.258 340.114 685.453 340.076 685.627 339.986C685.801 339.896 685.944 339.757 686.042 339.588C690.209 332.294 696.431 326.389 703.933 322.61C711.435 318.83 719.883 317.344 728.225 318.336C736.566 319.328 744.43 322.755 750.836 328.188C757.243 333.622 761.907 340.821 764.247 348.889C764.308 349.105 764.44 349.295 764.622 349.428C764.803 349.561 765.023 349.63 765.248 349.624L765.519 349.616C765.66 349.611 765.8 349.606 765.942 349.606C772.823 349.627 779.489 352.001 784.835 356.332C790.181 360.664 793.886 366.693 795.334 373.42C795.382 373.648 795.507 373.853 795.689 374C795.87 374.148 796.097 374.228 796.33 374.228H864.554C864.688 374.228 864.821 374.202 864.945 374.151C865.069 374.1 865.182 374.025 865.277 373.931C865.372 373.836 865.447 373.724 865.498 373.6C865.55 373.476 865.576 373.344 865.576 373.21C865.576 373.076 865.55 372.943 865.498 372.819C865.447 372.695 865.372 372.583 865.277 372.488C865.182 372.394 865.069 372.319 864.945 372.268C864.821 372.217 864.688 372.191 864.554 372.191H797.145C795.448 365.195 791.457 358.968 785.807 354.505C780.158 350.043 773.177 347.601 765.977 347.569C763.414 339.279 758.499 331.911 751.828 326.361C745.158 320.811 737.019 317.318 728.4 316.306C719.782 315.294 711.055 316.806 703.28 320.659C695.505 324.513 689.016 330.541 684.602 338.012C683.601 337.934 682.618 337.895 681.673 337.895C672.087 337.921 662.864 341.566 655.85 348.1C648.836 354.635 644.548 363.578 643.845 373.138C643.835 373.272 643.852 373.406 643.895 373.532C643.937 373.659 644.004 373.777 644.092 373.878C644.179 373.978 644.286 374.061 644.406 374.121C644.525 374.181 644.656 374.216 644.789 374.225C644.813 374.227 644.838 374.228 644.862 374.228Z" fill="#CBCBCB"/>
<path d="M656.978 387.285H823.989C824.259 387.285 824.518 387.178 824.709 386.987C824.9 386.796 825.007 386.537 825.007 386.267C825.007 385.997 824.9 385.738 824.709 385.547C824.518 385.356 824.259 385.248 823.989 385.248H656.978C656.708 385.248 656.449 385.356 656.258 385.547C656.067 385.738 655.96 385.997 655.96 386.267C655.96 386.537 656.067 386.796 656.258 386.987C656.449 387.178 656.708 387.285 656.978 387.285V387.285Z" fill="#CBCBCB"/>
<path d="M783.254 402.051H839.264C839.534 402.05 839.792 401.943 839.982 401.752C840.172 401.561 840.279 401.302 840.279 401.033C840.279 400.763 840.172 400.505 839.982 400.314C839.792 400.123 839.534 400.015 839.264 400.014H783.254C783.121 400.014 782.988 400.041 782.865 400.092C782.741 400.143 782.629 400.218 782.534 400.313C782.44 400.407 782.365 400.52 782.314 400.643C782.262 400.767 782.236 400.899 782.236 401.033C782.236 401.167 782.262 401.299 782.314 401.422C782.365 401.546 782.44 401.658 782.534 401.753C782.629 401.847 782.741 401.922 782.865 401.974C782.988 402.025 783.121 402.051 783.254 402.051V402.051Z" fill="#CBCBCB"/>
<path d="M440.946 647.768H437.593L435.998 634.839H440.946V647.768Z" fill="#9F616A"/>
<path d="M441.8 651.018H430.992V650.881C430.993 649.766 431.436 648.696 432.225 647.907C433.014 647.119 434.083 646.675 435.199 646.674H441.8V651.018Z" fill="#2F2E41"/>
<path d="M484.173 641.416L481.299 643.143L473.273 632.881L477.514 630.333L484.173 641.416Z" fill="#9F616A"/>
<path d="M477.314 649.328L477.243 649.211C476.67 648.254 476.5 647.109 476.769 646.027C477.039 644.944 477.727 644.013 478.683 643.438L484.342 640.038L486.579 643.761L477.314 649.328Z" fill="#2F2E41"/>
<path d="M441.817 645.1L441.759 645.1C440.128 645.095 438.499 645.001 436.879 644.819C436.261 644.758 435.591 644.692 434.784 644.625L434.756 644.62C434.205 644.456 434.19 639.291 434.423 621.609C434.543 612.553 434.678 602.289 434.517 595.752L434.516 595.687L434.564 595.645C437.48 593.089 440.959 591.259 444.717 590.305C448.475 589.351 452.405 589.3 456.187 590.155L456.246 590.168L456.277 590.22C459.572 595.794 464.546 603.823 469.356 611.589C480.399 629.414 483.558 634.657 483.211 635.052L483.17 635.084C482.416 635.461 481.849 635.752 481.368 635.998C479.463 636.985 477.505 637.868 475.505 638.643L475.416 638.679L475.352 638.609C464.147 626.331 454.823 612.616 449.055 599.937C448.381 604.265 447.563 609.917 446.699 615.889C444.213 633.062 442.533 644.37 441.857 645.059L441.817 645.1Z" fill="#2F2E41"/>
<path d="M444.836 597.073C451.517 597.043 458.154 598.154 464.461 600.358C464.681 589.77 461.132 579.447 454.447 571.233L454.398 571.174L454.423 571.101C456.183 566.015 458.002 560.758 459.628 555.528L459.603 555.44C458.463 551.387 456.016 547.291 452.122 542.918C451.7 542.481 451.127 542.22 450.519 542.189C449.912 542.159 449.315 542.36 448.851 542.753C445.439 545.872 442.782 549.727 441.081 554.026C439.379 558.324 438.678 562.953 439.03 567.563L439.032 567.589L439.025 567.614C435.976 577.944 434.869 583.25 433.892 587.931C433.18 591.346 432.563 594.302 431.325 598.527C435.764 597.561 440.293 597.074 444.836 597.073V597.073Z" fill="#CBCBCB"/>
<path opacity="0.1" d="M454.673 564.419L444.754 586.013L439.087 580.277L454.673 564.419Z" fill="black"/>
<path d="M450.432 540.816C454.329 540.816 457.489 537.657 457.489 533.759C457.489 529.862 454.329 526.703 450.432 526.703C446.534 526.703 443.375 529.862 443.375 533.759C443.375 537.657 446.534 540.816 450.432 540.816Z" fill="#9F616A"/>
<path d="M441.875 529.773H453.081V524.889C450.621 523.912 448.215 523.081 446.76 524.889C445.464 524.889 444.222 525.403 443.306 526.319C442.39 527.235 441.875 528.478 441.875 529.773V529.773Z" fill="#2F2E41"/>
<path d="M453.701 524.027C460.4 524.027 462.275 532.423 462.275 537.161C462.275 539.802 461.08 540.747 459.203 541.067L458.54 537.531L456.987 541.219C456.46 541.222 455.906 541.212 455.331 541.201L454.805 540.117L453.631 541.181C448.928 541.188 445.127 541.874 445.127 537.161C445.127 532.423 446.772 524.027 453.701 524.027Z" fill="#2F2E41"/>
<path d="M656.045 198C656.045 384 461.045 473 461.045 473C461.045 473 264.045 384 260.045 198C257.693 88.6729 348.692 0 458.045 0C567.397 0 656.045 88.6477 656.045 198Z" fill="#517FA4"/>
<path d="M465.228 646.307H461.117L459.162 630.453H465.228V646.307Z" fill="#FFB7B7"/>
<path d="M458.181 645.132H466.108V650.123H453.19C453.19 649.468 453.319 648.819 453.57 648.213C453.821 647.608 454.188 647.058 454.652 646.594C455.115 646.131 455.666 645.763 456.271 645.512C456.877 645.261 457.526 645.132 458.181 645.132Z" fill="#2F2E41"/>
<path d="M480.65 646.307H476.54L474.584 630.453H480.651L480.65 646.307Z" fill="#FFB7B7"/>
<path d="M473.603 645.132H481.53V650.123H468.612C468.612 648.8 469.138 647.53 470.074 646.594C471.01 645.658 472.28 645.132 473.603 645.132Z" fill="#2F2E41"/>
<path d="M480.147 599.089C479.705 598.804 479.33 598.425 479.049 597.98C478.768 597.534 478.588 597.033 478.522 596.51C478.457 595.988 478.506 595.458 478.667 594.956C478.829 594.455 479.098 593.995 479.456 593.609L476.75 555.202L484.545 555.958L484.76 593.57C485.368 594.215 485.719 595.061 485.746 595.947C485.772 596.833 485.473 597.698 484.904 598.378C484.336 599.058 483.538 599.506 482.661 599.637C481.784 599.768 480.89 599.573 480.147 599.089Z" fill="#FFB7B7"/>
<path d="M465.033 638.32L460.508 638.104C460.123 638.086 459.759 637.921 459.492 637.642C459.224 637.364 459.074 636.994 459.071 636.608L458.755 590.825C458.754 590.608 458.799 590.393 458.889 590.195C458.978 589.997 459.109 589.82 459.273 589.677C459.437 589.535 459.63 589.429 459.838 589.367C460.047 589.306 460.266 589.29 460.481 589.322L478.583 591.949C478.941 591.999 479.268 592.177 479.506 592.449C479.743 592.721 479.874 593.07 479.875 593.431L482.203 635.854C482.205 636.053 482.167 636.25 482.092 636.434C482.017 636.619 481.906 636.786 481.765 636.928C481.625 637.069 481.458 637.181 481.275 637.258C481.091 637.334 480.894 637.374 480.695 637.374H475.816C475.456 637.375 475.108 637.247 474.835 637.013C474.561 636.78 474.381 636.455 474.326 636.099C474.326 636.099 470.641 604.279 470.135 604.297C469.627 604.307 466.603 636.992 466.603 636.992C466.558 637.358 466.381 637.695 466.105 637.94C465.829 638.185 465.473 638.321 465.105 638.322C465.081 638.322 465.057 638.321 465.033 638.32Z" fill="#2F2E41"/>
<path d="M478.514 568.108C478.332 567.976 478.181 567.806 478.073 567.608C477.965 567.411 477.903 567.192 477.891 566.968L477.32 556.616C477.263 555.59 477.589 554.58 478.233 553.78C478.877 552.98 479.795 552.447 480.809 552.283C481.823 552.12 482.861 552.337 483.724 552.894C484.587 553.451 485.214 554.308 485.483 555.299L487.992 564.554C488.096 564.941 488.043 565.352 487.844 565.699C487.645 566.046 487.316 566.3 486.931 566.405L479.792 568.341C479.576 568.4 479.348 568.41 479.127 568.369C478.906 568.329 478.696 568.24 478.514 568.108V568.108Z" fill="#243949"/>
<path d="M471.846 543.506C476.394 543.506 480.081 539.819 480.081 535.271C480.081 530.723 476.394 527.037 471.846 527.037C467.299 527.037 463.612 530.723 463.612 535.271C463.612 539.819 467.299 543.506 471.846 543.506Z" fill="#FFB7B7"/>
<path d="M477.674 541.786C477.329 542.157 476.886 542.422 476.396 542.55C475.907 542.679 475.39 542.664 474.908 542.509C474.426 542.354 473.999 542.064 473.676 541.674C473.353 541.285 473.147 540.811 473.084 540.308C473.069 540.135 473.07 539.96 473.088 539.787C473.191 538.796 473.763 537.897 473.626 536.852C473.595 536.592 473.498 536.344 473.345 536.131C472.12 534.492 469.247 536.865 468.092 535.381C467.383 534.471 468.216 533.038 467.672 532.021C466.955 530.679 464.83 531.341 463.497 530.606C462.014 529.788 462.103 527.513 463.079 526.129C463.714 525.312 464.522 524.644 465.445 524.174C466.368 523.705 467.383 523.444 468.417 523.411C470.49 523.363 472.548 523.764 474.45 524.589C476.696 525.319 478.678 526.693 480.149 528.541C480.911 529.752 481.393 531.117 481.562 532.538C481.731 533.959 481.581 535.399 481.125 536.755C480.627 538.418 478.928 540.45 477.674 541.786Z" fill="#2F2E41"/>
<path d="M480.066 549.006C479.923 548.903 479.777 548.802 479.628 548.703C478.838 548.177 477.981 547.757 477.082 547.454V545.291H470.712V547.298C468.6 547.881 466.706 549.071 465.266 550.722C463.825 552.372 462.902 554.409 462.611 556.58L458.273 588.783C458.245 588.984 458.258 589.189 458.312 589.385C458.366 589.581 458.458 589.764 458.585 589.923C458.709 590.081 458.863 590.212 459.039 590.309C459.215 590.405 459.409 590.465 459.609 590.484C462.648 590.878 465.576 591.881 468.218 593.433C470.137 594.496 472.296 595.047 474.49 595.034C476.231 595.027 477.958 594.72 479.594 594.125C479.872 594.023 480.113 593.841 480.287 593.602C480.461 593.363 480.56 593.077 480.573 592.782C480.729 589.317 481.642 571.478 484.302 560.597C484.819 558.463 484.693 556.223 483.939 554.16C483.185 552.097 481.837 550.304 480.066 549.006Z" fill="#243949"/>
<path d="M527.045 484H395.045L379.045 420H543.045L527.045 484Z" fill="#243949"/>
<path d="M522.544 593.451H399.544V657.549H522.544V593.451Z" fill="white"/>
<path d="M523.544 658.549H398.544V592.451H523.544V658.549ZM400.544 656.549H521.544V594.451H400.544V656.549Z" fill="#243949"/>
<path d="M486.258 491.547H435.832L430.045 482.453H492.045L486.258 491.547Z" fill="#243949"/>
<path d="M398.044 484H396.044V582H398.044V484Z" fill="#243949"/>
<path d="M526.044 484H524.044V582H526.044V484Z" fill="#243949"/>
<path d="M481.092 418.916L479.871 417.332C537.649 372.776 606.523 296.444 606.523 185.829C606.569 147.087 595.176 109.194 573.771 76.9022C552.367 44.6103 521.904 19.3571 486.204 4.30956L486.983 2.46777C523.046 17.668 553.817 43.1774 575.439 75.797C597.061 108.416 608.57 146.694 608.523 185.829C608.523 297.256 539.225 374.085 481.092 418.916Z" fill="#243949"/>
<path d="M417.091 418.916L415.87 417.332C473.648 372.776 542.523 296.444 542.523 185.829C542.539 147.347 531.282 109.705 510.143 77.5498C489.003 45.3949 458.908 20.1367 423.574 4.89502L424.367 3.05908C460.06 18.4554 490.46 43.9699 511.814 76.4511C533.168 108.932 544.539 146.957 544.523 185.829C544.523 297.257 475.225 374.086 417.091 418.916Z" fill="#243949"/>
<path d="M498.997 418.916C440.864 374.086 371.566 297.257 371.566 185.829C371.55 146.957 382.921 108.932 404.275 76.4504C425.629 43.9692 456.03 18.4547 491.723 3.05872L492.516 4.89465C457.182 20.136 427.086 45.3942 405.947 77.5492C384.807 109.704 373.55 147.347 373.566 185.829C373.566 296.444 442.44 372.776 500.218 417.332L498.997 418.916Z" fill="#243949"/>
<path d="M434.997 418.916C376.864 374.086 307.566 297.257 307.566 185.829C307.5 146.54 319.091 108.114 340.87 75.4141C362.649 42.7141 393.639 17.2092 429.918 2.12646L430.689 3.97216C394.774 18.9032 364.096 44.1519 342.535 76.5234C320.975 108.895 309.501 146.934 309.566 185.829C309.566 296.445 378.44 372.776 436.219 417.332L434.997 418.916Z" fill="#243949"/>
<path d="M459.044 0H457.044V420H459.044V0Z" fill="#243949"/>
<path d="M435.512 578.918L398.837 615.592L400.251 617.006L436.926 580.332L435.512 578.918Z" fill="#243949"/>
<path d="M453.34 578.308L398.823 635.645L400.273 637.023L454.789 579.686L453.34 578.308Z" fill="#243949"/>
<path d="M534.044 579H384.044V597H534.044V579Z" fill="white"/>
<path d="M535.044 598H383.044V578H535.044V598ZM385.044 596H533.044V580H385.044V596Z" fill="#243949"/>
<path d="M432.559 587.372C432.96 587.344 433.35 587.229 433.701 587.034C434.053 586.839 434.357 586.569 434.593 586.244C434.829 585.918 434.991 585.545 435.068 585.151C435.144 584.756 435.133 584.349 435.035 583.959L443.207 578.605L438.547 576.591L431.5 581.985C430.856 582.193 430.311 582.629 429.967 583.213C429.624 583.796 429.506 584.485 429.637 585.149C429.767 585.813 430.137 586.406 430.675 586.816C431.214 587.225 431.884 587.423 432.559 587.372H432.559Z" fill="#9F616A"/>
<path d="M440.423 583.514L440.32 583.441C438.375 582.01 436.215 580.529 434.127 579.098L434.002 579.012L434.1 578.896C438.558 573.681 443.02 568.234 447.336 562.965L447.327 562.946L447.368 562.925L447.385 562.904L447.394 562.912L447.42 562.899L447.303 562.908L445.972 552.476C445.314 551.391 444.978 550.141 445.003 548.873C445.028 547.604 445.414 546.368 446.116 545.311C446.923 544.17 448.123 543.367 449.485 543.055C450.848 542.744 452.277 542.947 453.5 543.625C454.103 544.03 454.608 544.565 454.976 545.192C455.344 545.818 455.567 546.519 455.628 547.243C455.713 547.888 455.653 548.544 455.453 549.163C455.253 549.783 454.916 550.349 454.469 550.822C454.929 555.884 455.132 560.967 455.077 566.05L455.077 566.098L455.048 566.137C450.447 571.982 445.393 577.796 440.506 583.419L440.423 583.514Z" fill="#CBCBCB"/>
<path d="M442.007 551.449C442.048 551.63 442.075 551.814 442.087 551.999L456.489 560.307L459.99 558.292L463.722 563.178L456.233 568.515L439.802 555.553C439.132 555.801 438.402 555.839 437.71 555.662C437.018 555.486 436.396 555.102 435.926 554.563C435.457 554.024 435.163 553.355 435.084 552.645C435.004 551.935 435.143 551.217 435.481 550.588C435.819 549.958 436.341 549.447 436.977 549.121C437.613 548.795 438.333 548.671 439.041 548.764C439.75 548.858 440.413 549.165 440.943 549.644C441.472 550.124 441.843 550.753 442.007 551.449H442.007Z" fill="#FFB7B7"/>
<path d="M457.003 559.601C456.979 559.378 457.006 559.151 457.081 558.939C457.156 558.727 457.278 558.535 457.437 558.376L464.767 551.045C465.493 550.318 466.463 549.887 467.488 549.833C468.514 549.779 469.523 550.107 470.322 550.753C471.12 551.399 471.651 552.318 471.812 553.332C471.973 554.347 471.753 555.385 471.193 556.247L465.973 564.29C465.755 564.626 465.413 564.861 465.022 564.944C464.631 565.027 464.222 564.952 463.887 564.735L457.683 560.709C457.494 560.587 457.335 560.424 457.217 560.232C457.1 560.04 457.027 559.825 457.003 559.601V559.601Z" fill="#243949"/>
<path d="M225.714 507.228C225.457 507.228 225.209 507.13 225.021 506.954C224.832 506.778 224.718 506.538 224.7 506.281C224.034 497.234 219.976 488.772 213.339 482.588C206.702 476.405 197.974 472.956 188.903 472.931C187.817 472.931 186.677 472.987 185.513 473.096C185.318 473.114 185.123 473.076 184.949 472.986C184.775 472.896 184.632 472.757 184.534 472.588C180.367 465.294 174.145 459.389 166.643 455.61C159.141 451.83 150.693 450.344 142.351 451.336C134.01 452.328 126.146 455.755 119.74 461.188C113.333 466.622 108.669 473.822 106.329 481.889C106.268 482.105 106.136 482.295 105.954 482.428C105.773 482.561 105.553 482.63 105.328 482.624L105.057 482.616C104.916 482.611 104.776 482.606 104.634 482.606C97.7532 482.627 91.0868 485.001 85.7408 489.332C80.3947 493.664 76.6904 499.693 75.2424 506.42C75.1942 506.648 75.0689 506.853 74.8875 507C74.706 507.148 74.4795 507.228 74.2459 507.228H6.02155C5.88754 507.228 5.75478 507.202 5.63086 507.151C5.50694 507.1 5.39431 507.025 5.29941 506.931C5.20451 506.836 5.1292 506.724 5.07782 506.6C5.02644 506.476 5 506.344 5 506.21C5 506.076 5.02644 505.943 5.07782 505.819C5.1292 505.695 5.20451 505.583 5.29941 505.488C5.39431 505.394 5.50694 505.319 5.63086 505.268C5.75478 505.217 5.88754 505.191 6.02155 505.191H73.4309C75.1279 498.195 79.1195 491.968 84.7687 487.505C90.418 483.043 97.3993 480.601 104.599 480.569C107.162 472.279 112.077 464.911 118.748 459.361C125.418 453.811 133.557 450.318 142.176 449.306C150.794 448.294 159.521 449.806 167.296 453.659C175.071 457.513 181.56 463.541 185.974 471.012C186.975 470.934 187.958 470.895 188.903 470.895C198.489 470.921 207.712 474.566 214.726 481.101C221.74 487.635 226.028 496.578 226.731 506.138C226.741 506.272 226.724 506.406 226.681 506.532C226.639 506.659 226.572 506.777 226.484 506.878C226.397 506.979 226.29 507.061 226.17 507.121C226.051 507.181 225.92 507.216 225.787 507.225C225.763 507.227 225.738 507.228 225.714 507.228Z" fill="#CBCBCB"/>
<path d="M213.598 520.285H46.5874C46.4534 520.285 46.3206 520.259 46.1967 520.208C46.0728 520.157 45.9602 520.082 45.8653 519.988C45.7704 519.893 45.6951 519.781 45.6437 519.657C45.5923 519.533 45.5659 519.401 45.5659 519.267C45.5659 519.133 45.5923 519 45.6437 518.876C45.6951 518.752 45.7704 518.64 45.8653 518.545C45.9602 518.451 46.0728 518.376 46.1967 518.325C46.3206 518.274 46.4534 518.248 46.5874 518.248H213.598C213.868 518.248 214.127 518.356 214.318 518.547C214.509 518.738 214.616 518.997 214.616 519.267C214.616 519.537 214.509 519.796 214.318 519.987C214.127 520.178 213.868 520.285 213.598 520.285Z" fill="#CBCBCB"/>
<path d="M87.3217 535.051H31.3121C31.1781 535.052 31.0453 535.025 30.9214 534.974C30.7975 534.924 30.6848 534.849 30.5899 534.754C30.495 534.659 30.4197 534.547 30.3683 534.423C30.317 534.299 30.2905 534.167 30.2905 534.033C30.2905 533.899 30.317 533.766 30.3683 533.642C30.4197 533.519 30.495 533.406 30.5899 533.312C30.6848 533.217 30.7975 533.142 30.9214 533.091C31.0453 533.04 31.1781 533.014 31.3121 533.014H87.3217C87.4557 533.014 87.5885 533.04 87.7124 533.091C87.8363 533.142 87.949 533.217 88.0439 533.312C88.1388 533.406 88.2141 533.519 88.2654 533.642C88.3168 533.766 88.3433 533.899 88.3433 534.033C88.3433 534.167 88.3168 534.299 88.2654 534.423C88.2141 534.547 88.1388 534.659 88.0439 534.754C87.949 534.849 87.8363 534.924 87.7124 534.974C87.5885 535.025 87.4557 535.052 87.3217 535.051V535.051Z" fill="#CBCBCB"/>
</g>
<defs>
<clipPath id="clip0">
<rect width="865.573" height="658.549" fill="white"/>
</clipPath>
</defs>
</svg>
