<svg width="1008" height="613" viewBox="0 0 1008 613" fill="none" xmlns="http://www.w3.org/2000/svg">
<g opacity="0.5">
<path opacity="0.5" d="M446.76 303.58L413.3 304.27L407.83 311.78V337.73L414.66 342.51H446.76L453.59 335V310.41L446.76 303.58Z" fill="#6FB756"/>
<path opacity="0.2" d="M446.06 307.68C446.06 307.68 415.33 312.46 412.6 307.68L413.29 304.27L446.06 303.55V307.68Z" fill="white"/>
<path opacity="0.5" d="M449.49 378.7L454.95 384.17V410.17L449.49 415.55C449.49 415.55 429.69 422.38 416.71 416.91L410.56 410.77V384.77L416.03 378.62L449.49 378.7Z" fill="#6FB756"/>
<path opacity="0.2" d="M448.12 384.85C448.12 384.85 424.22 390.31 416.03 384.85V378.7H449.49L448.12 384.85Z" fill="white"/>
<path opacity="0.5" d="M436.51 342.33V379.27C436.432 380.733 435.778 382.105 434.692 383.087C433.605 384.069 432.173 384.581 430.71 384.51C429.247 384.581 427.815 384.069 426.728 383.087C425.641 382.105 424.988 380.733 424.91 379.27V342.33C424.91 339.19 427.91 336.76 431.39 337.12C432.736 337.203 434.004 337.781 434.949 338.743C435.895 339.705 436.451 340.983 436.51 342.33Z" fill="#6FB756"/>
<path opacity="0.5" d="M500.35 304.64L466.89 305.32L461.42 312.83V338.78L468.25 343.56H500.35L507.18 336.05V311.46L500.35 304.64Z" fill="#6FB756"/>
<path opacity="0.2" d="M499.66 308.73C499.66 308.73 468.93 313.51 466.2 308.73L466.88 305.32L499.66 304.64V308.73Z" fill="white"/>
<path opacity="0.5" d="M503.06 379.75L508.52 385.22V411.22L503.06 416.63C503.06 416.63 483.25 423.46 470.28 417.99L464.13 411.85V385.9L469.6 379.75H503.06Z" fill="#6FB756"/>
<path opacity="0.2" d="M501.71 385.9C501.71 385.9 477.81 391.36 469.62 385.9V379.75H503.06L501.71 385.9Z" fill="white"/>
<path opacity="0.5" d="M490.06 343.38V380.32C489.98 381.782 489.325 383.153 488.239 384.134C487.152 385.116 485.722 385.628 484.26 385.56C482.796 385.631 481.363 385.12 480.275 384.138C479.186 383.156 478.53 381.784 478.45 380.32V343.38C478.45 340.24 481.45 337.81 484.94 338.17C486.286 338.253 487.554 338.831 488.5 339.793C489.445 340.755 490.001 342.033 490.06 343.38Z" fill="#6FB756"/>
<path opacity="0.5" d="M568.57 324.39L541.02 324.96L536.52 331.14V352.5L542.14 356.44H568.57L574.19 350.25V330.01L568.57 324.39Z" fill="#6FB756"/>
<path opacity="0.2" d="M568 327.77C568 327.77 542.71 331.7 540.46 327.77L541.02 324.96L568.02 324.39L568 327.77Z" fill="white"/>
<path opacity="0.5" d="M570.81 386.23L575.31 390.73V412.09L570.81 416.59C570.81 416.59 554.51 422.21 543.81 417.71L538.75 412.65V391.29L543.25 386.23H570.81Z" fill="#6FB756"/>
<path opacity="0.2" d="M569.69 391.29C569.69 391.29 550.01 395.79 543.27 391.29V386.23H570.81L569.69 391.29Z" fill="white"/>
<path opacity="0.5" d="M560.13 356.29V386.7C560.065 387.905 559.526 389.034 558.63 389.842C557.734 390.65 556.555 391.07 555.35 391.01C554.146 391.07 552.968 390.65 552.073 389.842C551.179 389.034 550.642 387.904 550.58 386.7V356.29C550.618 355.647 550.79 355.019 551.086 354.446C551.381 353.873 551.793 353.369 552.295 352.965C552.797 352.561 553.378 352.266 554 352.1C554.623 351.934 555.273 351.9 555.91 352C557.019 352.068 558.063 352.544 558.842 353.336C559.622 354.128 560.08 355.18 560.13 356.29Z" fill="#6FB756"/>
<path opacity="0.5" d="M612.68 325.26L585.13 325.82L580.64 332V353.37L586.26 357.3H612.68L618.3 351.12V330.88L612.68 325.26Z" fill="#6FB756"/>
<path opacity="0.2" d="M612.12 328.63C612.12 328.63 586.82 332.57 584.57 328.63L585.13 325.82L612.13 325.26L612.12 328.63Z" fill="white"/>
<path opacity="0.5" d="M614.93 387.1L619.42 391.59V412.95L614.93 417.45C614.93 417.45 598.62 423.07 587.93 418.58L582.88 413.55V392.16L587.38 387.1H614.93Z" fill="#6FB756"/>
<path opacity="0.2" d="M613.8 392.16C613.8 392.16 594.13 396.65 587.38 392.16V387.1H614.93L613.8 392.16Z" fill="white"/>
<path opacity="0.5" d="M604.25 357.15V387.55C604.185 388.755 603.646 389.884 602.75 390.692C601.854 391.5 600.675 391.92 599.47 391.86C598.265 391.92 597.086 391.5 596.19 390.692C595.294 389.884 594.755 388.755 594.69 387.55V357.15C594.69 354.57 597.19 352.57 600.03 352.87C601.138 352.936 602.182 353.409 602.962 354.2C603.741 354.99 604.2 356.041 604.25 357.15Z" fill="#6FB756"/>
</g>
<path d="M995.06 435.62C992.91 431.73 988.89 429.17 984.66 427.99C980.38 426.961 975.955 426.684 971.58 427.17C964.512 427.673 957.505 428.828 950.65 430.62C946.4 431.74 941.99 433.24 939.12 436.62C939.04 436.72 938.95 436.84 938.86 436.94C934.47 438.09 930.11 439.86 925.86 441.3C921.595 442.715 917.255 443.894 912.86 444.83C918.61 441.56 924.21 438.1 928.95 433.48C931.19 431.306 933.201 428.906 934.95 426.32C938.198 427.25 941.607 427.479 944.95 426.99C951.72 425.83 957.19 420.99 962.28 416.27L978.65 401.21C981.26 398.81 983.91 396.35 985.65 393.21C988 388.84 988.21 383.64 988.27 378.65C988.35 371.79 988.27 364.93 988.07 358.08L993.25 362.08C992.462 353.631 994.034 345.129 997.79 337.52C999.59 333.89 1001.95 330.28 1002 326.21C1002.08 319.93 996.68 314.99 991.15 312.21C985.62 309.43 979.4 307.65 974.87 303.38C968.13 297.03 966.87 286.9 963.54 278.2C961.565 273.437 959.225 268.833 956.54 264.43L950.06 253.13C946.801 247.175 943.167 241.434 939.18 235.94C932.44 227.05 923.95 219.72 915.52 212.47L871.68 174.7C861.02 165.51 850.32 156.31 838.79 148.27C815.4 131.96 789.01 120.76 762.79 109.67C756.19 106.87 749.32 104.03 742.18 104.37C736.802 104.718 731.705 106.9 727.74 110.55C723.982 109.409 720.307 108.012 716.74 106.37L716.46 106.24C716.54 105.65 716.63 105.07 716.69 104.48C716.78 103.7 716.83 102.92 716.89 102.13C718.865 101.826 720.777 101.201 722.55 100.28C723.45 99.8548 724.245 99.2368 724.88 98.47C725.685 97.1347 726.098 95.5992 726.07 94.04C726.87 83.59 727.67 73.04 726.81 62.64C725.95 52.24 723.34 41.71 717.81 32.87C716.1 30.13 713.96 27.46 710.99 26.27C706.99 24.67 702.36 26.16 698.09 25.44C690.7 24.19 686.09 16.96 680.74 11.63C667.21 -1.86 644.07 -3.89 628.45 7.03C622.53 11.18 617.79 16.81 612.51 21.77C607.23 26.73 601.04 31.22 593.91 32.19C592.596 32.2457 591.309 32.5869 590.14 33.19C588.68 34.11 588.02 35.88 587.46 37.52C585.46 43.18 583.54 48.99 582.93 54.91C582.86 54.55 582.8 54.19 582.74 53.83C582.468 56.0225 582.411 58.2364 582.57 60.44C582.77 63.2484 583.582 65.979 584.95 68.44C586.089 70.7796 588.03 72.6321 590.42 73.66C592.111 74.2583 593.896 74.5462 595.69 74.51H596.48C596.19 75.28 595.91 76.05 595.65 76.83C593.423 83.4385 592.292 90.3665 592.3 97.34C592.3 132.34 620.23 160.7 654.71 160.7C658.86 160.68 662.997 160.244 667.06 159.4C668.41 159.83 669.76 160.27 671.06 160.74C673.722 161.62 676.333 162.648 678.88 163.82C679.96 164.33 684.33 166.88 689.61 170.17L689.25 170.92C684.099 175.731 680.32 181.826 678.301 188.579C676.282 195.332 676.095 202.501 677.76 209.35C681.58 224.22 694.11 236.97 692.85 252.28C692.67 254.46 692.21 256.67 692.58 258.83C693.09 261.83 695.12 264.27 697.15 266.49C698.91 268.43 700.74 270.31 702.6 272.15C702.45 281.92 701.6 291.68 700.68 301.42C700.6 302.27 700.58 303.13 700.57 304C700.624 308.211 702.153 312.27 704.89 315.47C707.79 319 708.95 324.29 708.4 329.01C707.61 335.77 704.28 341.9 702.05 348.31C691.99 377.14 704.35 409.65 697.39 439.42C695.68 446.75 692.8 453.88 692.39 461.42C692.16 466.13 692.9 471.07 691.09 475.42C689.52 479.2 686.25 481.93 683.16 484.58C678.793 488.32 674.54 492.187 670.4 496.18C664.143 492.759 657.684 489.72 651.06 487.08C649.98 486.645 648.878 486.264 647.76 485.94C639.94 478.62 630.08 473.94 620.82 468.56C613.14 464.11 605.82 459.11 598.46 454.11C591.46 449.31 584.31 444.47 578.39 438.3C575.39 435.18 572.72 431.74 569.49 428.89C566.651 426.527 563.643 424.374 560.49 422.45C546.302 413.259 532.775 403.084 520.01 392C510.28 383.56 502.32 372.69 491.92 365.12C485.55 360.48 478.14 356.25 470.34 357.12C467.857 357.412 465.447 358.154 463.23 359.31C461.163 358.434 458.954 357.939 456.71 357.85C450.37 357.65 444.55 361.09 439.11 364.4C407.11 383.847 374.61 402.427 341.61 420.14C334.95 423.72 328.25 427.27 321.89 431.37C309.481 439.397 298.485 449.422 289.35 461.04C287.67 463.17 285.55 465.59 282.88 465.27C282.149 465.158 281.446 464.907 280.81 464.53C276.7 462.3 274.18 457.99 271.81 453.9C270.09 450.9 268.23 447.77 265.71 445.49C265.171 444.071 264.451 442.726 263.57 441.49C267.12 432.73 270.18 423.76 273.02 414.73C274.5 409.99 275.93 405.22 277.82 400.62C282.48 389.24 289.91 378.93 292.54 366.89C293.17 363.98 293.54 360.99 294.03 358.05C322.78 352.39 344.48 326.71 344.48 295.87C344.48 260.87 316.54 232.51 282.07 232.51C247.6 232.51 219.67 260.87 219.67 295.87C219.639 306.523 222.288 317.013 227.373 326.374C232.458 335.735 239.816 343.667 248.77 349.44C248.77 349.56 248.77 349.68 248.77 349.79C248.71 351.801 248.513 353.806 248.18 355.79C247.03 362.49 244.18 368.79 241.31 374.9C239.41 378.99 237.51 383.1 235.54 387.18C234.595 386.99 233.677 386.681 232.81 386.26C231.12 385.32 230.38 383.26 229.74 381.44C226.908 373.1 223.441 364.99 219.37 357.18C217.782 353.86 215.765 350.764 213.37 347.97C209.15 343.35 203.37 340.61 197.78 337.84C196.78 337.36 195.85 336.84 194.89 336.38C194.06 335.763 193.191 335.198 192.29 334.69C187.64 332.06 182.48 330.17 178.6 326.49C175.69 323.73 173.69 320.14 170.97 317.21C166.44 312.34 160.19 309.56 154.12 306.91C150.96 305.53 147.64 304.12 144.19 304.31C143.704 304.334 143.22 304.387 142.74 304.47C141.91 304.612 141.089 304.798 140.28 305.03C139.493 304.612 138.749 304.116 138.06 303.55C134.35 300.69 132.91 295.78 131.7 291.21C129.7 283.57 127.59 275.66 128.83 267.84C129.046 266.491 129.34 265.155 129.71 263.84C130.02 263.33 130.32 262.84 130.59 262.29C138.552 259.897 145.826 255.636 151.807 249.862C157.788 244.088 162.303 236.968 164.975 229.096C167.647 221.224 168.399 212.827 167.168 204.605C165.938 196.384 162.76 188.575 157.9 181.83C157.39 181.13 156.9 180.45 156.33 179.77L156.93 179.44C162.46 176.06 163.72 167.98 161.16 161.96C158.6 155.94 153.16 151.69 147.65 148.35C146.85 147.86 146.04 147.4 145.22 146.94L144.52 146.56C143.9 146.22 143.29 145.89 142.67 145.56L141.94 145.19C141.21 144.82 140.48 144.47 139.75 144.13L139.42 143.97C138.51 143.56 137.6 143.16 136.68 142.78C135.79 142.41 134.9 142.07 134 141.78L133.63 141.64C132.78 141.33 131.92 141.04 131.06 140.76L130.87 140.7C124.58 138.655 118.023 137.55 111.41 137.42C104.937 137.459 98.4852 138.173 92.16 139.55C86.0018 140.665 79.9714 142.397 74.16 144.72C64.5554 148.79 56.0877 155.14 49.49 163.22C48.0994 163.325 46.7207 163.553 45.37 163.9C39.96 165.27 35.09 168.29 30.64 171.71C26.9128 174.45 23.6105 177.725 20.84 181.43C17.5771 186.177 15.327 191.545 14.23 197.2C10.44 214.93 15.1 233.2 18.53 251.02C21.96 268.84 23.94 288.26 15.53 304.25C12.36 310.25 7.86002 315.46 4.53002 321.35C1.20002 327.24 -1.10999 334.35 0.810014 340.88C3.14001 348.81 10.81 353.8 14.81 361C19.49 369.39 18.2 380.66 12.08 388C11.81 388.32 11.54 388.64 11.25 389C10.96 389.36 10.55 389.74 10.17 390.08C16.48 392.3 23.51 389.91 29.17 386.35C33.6965 383.676 37.5353 379.981 40.38 375.56C47.53 363.82 44.32 348.64 46.84 335.07C50.15 317.3 63.51 301.45 61.67 283.46C60.43 271.39 52.55 261.3 46.36 250.92C42.2454 243.953 38.7968 236.614 36.06 229C35.95 228.68 35.84 228.35 35.72 228C33.91 222.85 32.52 217.39 33.45 212C33.7672 210.254 34.2909 208.552 35.01 206.93C35.01 207.12 35.01 207.32 35.01 207.51C35.1317 212.723 36.2909 217.86 38.42 222.62C44.67 235.62 59.71 241.62 69.26 252.16C69.66 252.6 70.04 253.05 70.42 253.51C70.53 253.63 70.63 253.76 70.73 253.89L71.54 254.89L71.88 255.36C72.13 255.71 72.38 256.06 72.61 256.42L72.92 256.87C73.24 257.38 73.56 257.87 73.86 258.42C76.29 255.73 78.8 252.9 79.78 249.42C79.87 249.12 79.93 248.81 79.99 248.5C80.07 248.58 80.14 248.67 80.22 248.76C80.41 249.83 80.56 250.9 80.7 251.98C80.6999 253.523 80.8642 255.062 81.19 256.57C81.95 266.17 81.34 276.03 80.7 285.66C80.36 290.81 81.7 298.46 78.42 302.3L78.32 302.41C78.1277 302.634 77.917 302.841 77.69 303.03C77.13 303.61 76.56 304.18 76.03 304.78C65.03 317.18 60.03 334.78 60.29 351.64C60.55 370.83 66.68 389.42 73.63 407.27C76.0573 413.787 78.9169 420.134 82.19 426.27C83.8796 429.583 86.1141 432.588 88.8 435.16C91.61 437.65 95.03 439.29 98.4 440.89C99.24 441.29 100.09 441.68 100.93 442.09L103.08 443.09L119.45 450.87C122.45 455.28 125.35 459.81 128.28 464.35C128.7 464.99 129.11 465.65 129.54 466.29C132.74 471.29 135.96 476.29 139.24 481.15L166.83 522.01C168.83 525.01 170.92 528.01 173.73 530.23C174.529 530.858 175.394 531.398 176.31 531.84C176.775 532.064 177.252 532.261 177.74 532.43C177.134 533.339 176.875 534.436 177.01 535.52C177.379 536.582 178.08 537.498 179.01 538.13C185.25 543.29 192.18 548.73 194.14 556.66C195.53 562.31 194.14 568.36 195.39 574.04C197.68 584.28 207.81 590.49 217.39 594.43C238.86 603.25 262.71 606.64 285.52 602.54C308.33 598.44 330 586.61 344.77 568.54C349.31 562.96 353.18 556.87 357.49 551.11C360.49 547.05 363.79 543.18 367.2 539.45C370.88 537.767 374.426 535.808 377.81 533.59C385.02 528.8 391.23 522.65 397.81 516.95C402.72 512.67 407.86 508.63 412.37 503.95C416.419 499.511 420.203 494.836 423.7 489.95C431.7 479.35 439.963 468.96 448.49 458.78C453.05 453.33 457.88 447.78 464.25 444.78L464.54 444.66C465.3 449.14 468.85 452.94 471.34 456.81C481.64 472.81 492.42 489.28 508.34 499.48C517.06 505.06 526.92 508.48 536.76 511.6C561.76 519.5 587.16 525.7 612.58 531.91C613.42 530.31 614.24 528.83 615.16 527.39C615.554 527.807 615.921 528.247 616.26 528.71C616.37 528.87 616.46 529.04 616.57 529.2C616.386 529.236 616.206 529.286 616.03 529.35C614.398 530.11 613.115 531.461 612.44 533.13C609.7 538.62 609.44 544.99 609.31 551.13C609.22 557.13 609.31 563.13 609.31 569.13C609.164 571.37 609.505 573.615 610.31 575.71C612.25 579.71 617.18 581.2 621.59 581.71C629.25 582.56 636.97 581.84 644.59 580.81C645.03 582.607 645.749 584.325 646.72 585.9C651 592.9 658.39 597.52 666.08 600.23C673.77 602.94 681.92 604.02 689.91 605.61C704.1 608.43 718.62 612.94 732.73 609.76C738.36 608.49 743.73 606.03 749.36 604.95C762.25 602.51 775.61 607.45 788.59 605.47C794.86 604.47 800.79 601.97 806.47 599.1C809.333 597.844 811.93 596.052 814.12 593.82C816.2 591.48 817.45 588.16 816.59 585.13C816.1 583.39 814.98 581.91 814.23 580.27C813.225 577.647 812.654 574.877 812.54 572.07C811.496 561.449 809.698 550.916 807.16 540.55C807.09 540.26 807.01 539.96 806.93 539.66C816.74 535.77 825.53 529.66 834.21 523.58L852.88 510.52C858.88 506.29 865.03 502.04 871.77 499.08C882.11 494.54 893.56 493.24 904.83 493.25C909.44 493.25 914.06 493.48 918.65 493.9C918.065 494.538 917.625 495.296 917.36 496.12C916.44 498.98 917.9 502.12 920.07 504.21C922.24 506.3 925.07 507.48 927.62 508.93C934.666 512.897 940.532 518.664 944.62 525.64C947.18 530.03 949.04 535.36 947.42 540.19C945.42 546.25 938.29 550.43 938.7 556.81C938.94 560.57 941.97 563.68 945.42 565.07C948.87 566.46 952.7 566.44 956.42 566.33C962.51 566.14 968.78 565.67 974.23 562.9C977.9 561.03 981.01 558.21 984.06 555.42C986.84 552.87 989.68 550.22 991.26 546.78C992.74 543.54 992.97 539.87 993.04 536.31C993.34 519.55 990.45 502.56 993.78 486.14C994.78 481.14 996.38 476.25 997.23 471.21C998.57 463.21 998.06 455.13 997.55 447.09C997.3 443.13 997 439.05 995.06 435.62Z" fill="url(#paint0_linear)"/>
<path opacity="0.06" d="M783.78 203.83C779.85 206.48 778.48 211.6 777.98 216.32C775.85 236.39 784.13 256.26 783.58 276.43C783.14 292.48 777.16 307.79 771.26 322.72C761.2 348.19 755.96 375.85 753.93 403.16C751.9 430.47 748.93 458.91 734.27 482.01C730.94 487.24 727.06 492.1 723.8 497.36C720.38 502.86 717.67 508.76 714.65 514.48C705.752 531.373 694.282 546.781 680.65 560.15C676.65 564.05 672.41 567.83 667.31 570.08C664.023 571.506 660.485 572.26 656.902 572.298C653.32 572.336 649.766 571.656 646.45 570.3C639.61 567.47 633.85 561.09 633.57 553.69C633.32 547.07 637.27 541.1 641.23 535.8C654.652 517.844 670.086 501.484 687.23 487.04C690.34 484.42 693.62 481.71 695.23 477.97C697.04 473.66 696.3 468.77 696.53 464.1C696.9 456.65 699.8 449.58 701.53 442.32C708.53 412.83 696.09 380.63 706.21 352.06C708.46 345.71 711.8 339.64 712.59 332.95C713.15 328.27 711.99 323.04 709.06 319.53C706.316 316.376 704.782 312.35 704.73 308.17C704.73 307.31 704.73 306.46 704.83 305.62C706.05 292.53 707.26 279.38 706.6 266.25C705.94 253.12 703.33 239.92 697.27 228.25C694.13 222.2 690.07 216.54 688.13 210.01C685.01 199.44 687.89 188.01 692.54 178.01C696.17 170.19 701.01 162.74 707.77 157.38C720.33 147.43 739.13 146.28 752.88 154.51C763.02 160.57 769.96 170.76 775.59 181.15C779.63 188.74 783.84 195.17 783.78 203.83Z" fill="black"/>
<path d="M750.45 124.13C748.53 129.31 746.62 134.49 744.72 139.67C743.46 143.07 742.21 146.5 740.91 149.9C734.91 165.57 728.2 180.99 717.7 193.96C719.27 192.02 704.5 182.26 693.61 175.6C688.3 172.33 683.9 169.81 682.82 169.31C680.253 168.15 677.626 167.129 674.95 166.25C670.8 164.85 666.6 163.64 662.45 162.13C652.85 158.66 659.56 153.45 663.67 147.85C677.12 129.51 679.67 104.45 694.94 87.6C700.54 98.24 709.399 106.808 720.22 112.05C720.43 112.16 720.65 112.26 720.87 112.35C729.94 116.59 739.96 118.42 749.34 121.97C749.85 122.16 750.44 122.43 750.61 122.97C750.674 123.364 750.618 123.768 750.45 124.13Z" fill="#A1616A"/>
<path d="M724.34 494.55C719.996 500.774 717.292 507.993 716.479 515.539C715.666 523.085 716.771 530.714 719.69 537.72C720.428 539.678 721.577 541.454 723.06 542.93C724.948 544.405 727.147 545.431 729.49 545.93C749.35 551.58 770.55 550.47 790.89 546.93C797.78 545.87 804.552 544.145 811.11 541.78C821.18 537.93 830.17 531.78 839.05 525.64L857.83 512.7C863.91 508.51 870.04 504.3 876.83 501.36C887.23 496.87 898.75 495.58 910.08 495.59C919.812 495.602 929.522 496.529 939.08 498.36C945.45 499.59 953.08 500.86 957.56 496.21C960.12 493.58 960.88 489.73 961.38 486.1C963.358 471.976 963.321 457.643 961.27 443.53C961.22 442.343 960.789 441.203 960.04 440.28C959.334 439.681 958.475 439.29 957.56 439.15C948.71 437.15 939.83 441.3 931.23 444.15C913.36 450.09 894.17 450.8 875.99 455.69C856.91 460.82 838.99 470.53 819.27 472.5C809.87 473.44 800.43 472.62 791.01 472.83C782.27 473.02 774.12 476.04 765.56 476.4C749.06 477.13 734.71 480.01 724.34 494.55Z" fill="#A1616A"/>
<path opacity="0.06" d="M724.34 494.55C719.996 500.774 717.292 507.993 716.479 515.539C715.666 523.085 716.771 530.714 719.69 537.72C720.428 539.678 721.577 541.454 723.06 542.93C724.948 544.405 727.147 545.431 729.49 545.93C749.35 551.58 770.55 550.47 790.89 546.93C797.78 545.87 804.552 544.145 811.11 541.78C821.18 537.93 830.17 531.78 839.05 525.64L857.83 512.7C863.91 508.51 870.04 504.3 876.83 501.36C887.23 496.87 898.75 495.58 910.08 495.59C919.812 495.602 929.522 496.529 939.08 498.36C945.45 499.59 953.08 500.86 957.56 496.21C960.12 493.58 960.88 489.73 961.38 486.1C963.358 471.976 963.321 457.643 961.27 443.53C961.22 442.343 960.789 441.203 960.04 440.28C959.334 439.681 958.475 439.29 957.56 439.15C948.71 437.15 939.83 441.3 931.23 444.15C913.36 450.09 894.17 450.8 875.99 455.69C856.91 460.82 838.99 470.53 819.27 472.5C809.87 473.44 800.43 472.62 791.01 472.83C782.27 473.02 774.12 476.04 765.56 476.4C749.06 477.13 734.71 480.01 724.34 494.55Z" fill="black"/>
<path d="M740.48 473.41C740.01 475.62 739.59 477.96 740.25 480.12C741.069 482.244 742.452 484.104 744.25 485.5C761.25 500.72 785.54 503.87 808.25 506.34C814.4 507.01 820.66 507.68 826.75 506.57C832.3 505.57 837.48 503.12 842.59 500.7C853.59 495.49 864.65 490.22 874.08 482.56C883.33 475.06 890.75 465.46 900.33 458.39C911.22 450.39 924.61 445.81 934.33 436.39C941.357 429.61 946.029 420.758 947.66 411.13C948.76 404.56 948.4 397.85 947.66 391.23C946.87 383.62 945.6 375.88 941.98 369.14C937.79 361.34 930.75 355.45 923.32 350.61C907.6 340.39 889.09 334.05 870.32 334.21C844.32 334.44 820.32 349.57 801.66 366.56C781.922 384.555 765.948 406.283 754.66 430.49C748.287 444.199 743.529 458.602 740.48 473.41Z" fill="#222222"/>
<path opacity="0.06" d="M740.48 473.41C740.01 475.62 739.59 477.96 740.25 480.12C741.069 482.244 742.452 484.104 744.25 485.5C761.25 500.72 785.54 503.87 808.25 506.34C814.4 507.01 820.66 507.68 826.75 506.57C832.3 505.57 837.48 503.12 842.59 500.7C853.59 495.49 864.65 490.22 874.08 482.56C883.33 475.06 890.75 465.46 900.33 458.39C911.22 450.39 924.61 445.81 934.33 436.39C941.357 429.61 946.029 420.758 947.66 411.13C948.76 404.56 948.4 397.85 947.66 391.23C946.87 383.62 945.6 375.88 941.98 369.14C937.79 361.34 930.75 355.45 923.32 350.61C907.6 340.39 889.09 334.05 870.32 334.21C844.32 334.44 820.32 349.57 801.66 366.56C781.922 384.555 765.948 406.283 754.66 430.49C748.287 444.199 743.529 458.602 740.48 473.41Z" fill="black"/>
<path d="M783.78 203.83C779.85 206.48 778.48 211.6 777.98 216.32C775.85 236.39 784.13 256.26 783.58 276.43C783.14 292.48 777.16 307.79 771.26 322.72C761.2 348.19 755.96 375.85 753.93 403.16C751.9 430.47 748.93 458.91 734.27 482.01C730.94 487.24 727.06 492.1 723.8 497.36C720.38 502.86 717.67 508.76 714.65 514.48C705.752 531.373 694.282 546.781 680.65 560.15C676.65 564.05 672.41 567.83 667.31 570.08C664.023 571.506 660.485 572.26 656.902 572.298C653.32 572.336 649.766 571.656 646.45 570.3C639.61 567.47 633.85 561.09 633.57 553.69C633.32 547.07 637.27 541.1 641.23 535.8C654.652 517.844 670.086 501.484 687.23 487.04C690.34 484.42 693.62 481.71 695.23 477.97C697.04 473.66 696.3 468.77 696.53 464.1C696.9 456.65 699.8 449.58 701.53 442.32C708.53 412.83 696.09 380.63 706.21 352.06C708.46 345.71 711.8 339.64 712.59 332.95C713.15 328.27 711.99 323.04 709.06 319.53C706.316 316.376 704.782 312.35 704.73 308.17C704.73 307.31 704.73 306.46 704.83 305.62C706.05 292.53 707.26 279.38 706.6 266.25C705.94 253.12 703.33 239.92 697.27 228.25C694.13 222.2 690.07 216.54 688.13 210.01C685.01 199.44 687.89 188.01 692.54 178.01C696.17 170.19 701.01 162.74 707.77 157.38C720.33 147.43 739.13 146.28 752.88 154.51C763.02 160.57 769.96 170.76 775.59 181.15C779.63 188.74 783.84 195.17 783.78 203.83Z" fill="#A1616A"/>
<path d="M728.53 271.01C749.434 271.01 766.38 244.42 766.38 211.62C766.38 178.82 749.434 152.23 728.53 152.23C707.626 152.23 690.68 178.82 690.68 211.62C690.68 244.42 707.626 271.01 728.53 271.01Z" fill="#A1616A"/>
<path d="M632 521.97C633.118 523.545 633.877 525.347 634.222 527.248C634.568 529.148 634.492 531.102 634 532.97C637.568 535.532 641.905 536.795 646.29 536.55C650.642 536.313 654.921 535.328 658.94 533.64C662.435 532.366 665.744 530.63 668.78 528.48C674 524.62 677.78 519.1 680.78 513.38C682.47 510.22 683.91 506.13 681.78 503.29C680.943 502.326 679.923 501.538 678.78 500.97C671.075 496.575 663.053 492.761 654.78 489.56C652.509 488.513 650.041 487.961 647.54 487.94C644.47 488.11 641.68 489.79 639.24 491.67C633.756 495.935 629.334 501.411 626.32 507.67C625.38 509.67 622.54 514.42 623.95 516.48C624.59 517.43 626.95 517.76 627.95 518.36C629.54 519.263 630.92 520.494 632 521.97Z" fill="#FBB3B2"/>
<path opacity="0.03" d="M632 521.97C633.118 523.545 633.877 525.347 634.222 527.248C634.568 529.148 634.492 531.102 634 532.97C637.568 535.532 641.905 536.795 646.29 536.55C650.642 536.313 654.921 535.328 658.94 533.64C662.435 532.366 665.744 530.63 668.78 528.48C674 524.62 677.78 519.1 680.78 513.38C682.47 510.22 683.91 506.13 681.78 503.29C680.943 502.326 679.923 501.538 678.78 500.97C671.075 496.575 663.053 492.761 654.78 489.56C652.509 488.513 650.041 487.961 647.54 487.94C644.47 488.11 641.68 489.79 639.24 491.67C633.756 495.935 629.334 501.411 626.32 507.67C625.38 509.67 622.54 514.42 623.95 516.48C624.59 517.43 626.95 517.76 627.95 518.36C629.54 519.263 630.92 520.494 632 521.97Z" fill="black"/>
<path d="M673.41 498.8C690.33 501.94 705.89 510.12 722.52 514.53C729.25 516.31 736.18 517.53 742.61 520.15C749.04 522.77 755.1 527.25 757.87 533.63C759.041 536.692 759.817 539.891 760.18 543.15C760.9 547.76 761.49 552.91 758.75 556.69C755.86 560.69 750.4 561.57 745.51 562.16C727.93 564.25 710.35 566.35 692.71 567.83C689.138 568.047 685.582 568.471 682.06 569.1C679.16 569.68 676.33 570.56 673.45 571.24C669.72 572.11 665.93 572.66 662.15 573.24C652.48 574.63 642.7 576.02 632.99 574.96C628.56 574.47 623.6 573.04 621.65 569.04C620.841 566.967 620.499 564.74 620.65 562.52C620.6 556.58 620.55 550.65 620.65 544.72C620.74 538.63 621.04 532.31 623.8 526.88C624.484 525.217 625.775 523.877 627.41 523.13C628.416 522.842 629.468 522.747 630.51 522.85C635.71 523.03 641.09 523.25 645.74 525.57C649.43 527.4 652.43 530.45 656.19 532.11C663.31 535.27 671.9 533 679.11 535.97C680.79 530.79 680.41 525.55 679.16 520.24C677.91 514.93 676.16 509.72 675.63 504.3C675.609 503.109 675.379 501.931 674.95 500.82C674.41 499.71 674.59 498.63 673.41 498.8Z" fill="#222222"/>
<path opacity="0.06" d="M673.41 498.8C690.33 501.94 705.89 510.12 722.52 514.53C729.25 516.31 736.18 517.53 742.61 520.15C749.04 522.77 755.1 527.25 757.87 533.63C759.041 536.692 759.817 539.891 760.18 543.15C760.9 547.76 761.49 552.91 758.75 556.69C755.86 560.69 750.4 561.57 745.51 562.16C727.93 564.25 710.35 566.35 692.71 567.83C689.138 568.047 685.582 568.471 682.06 569.1C679.16 569.68 676.33 570.56 673.45 571.24C669.72 572.11 665.93 572.66 662.15 573.24C652.48 574.63 642.7 576.02 632.99 574.96C628.56 574.47 623.6 573.04 621.65 569.04C620.841 566.967 620.499 564.74 620.65 562.52C620.6 556.58 620.55 550.65 620.65 544.72C620.74 538.63 621.04 532.31 623.8 526.88C624.484 525.217 625.775 523.877 627.41 523.13C628.416 522.842 629.468 522.747 630.51 522.85C635.71 523.03 641.09 523.25 645.74 525.57C649.43 527.4 652.43 530.45 656.19 532.11C663.31 535.27 671.9 533 679.11 535.97C680.79 530.79 680.41 525.55 679.16 520.24C677.91 514.93 676.16 509.72 675.63 504.3C675.609 503.109 675.379 501.931 674.95 500.82C674.41 499.71 674.59 498.63 673.41 498.8Z" fill="black"/>
<path d="M108.2 328.29C104.79 327.21 101.5 330.23 99.59 333.29C91.65 345.77 92.3 362.43 98.65 375.79C100.161 379.178 102.245 382.28 104.81 384.96C108.25 388.35 112.68 390.52 116.81 392.96C128.27 399.73 138.091 408.95 145.57 419.96C150.46 427.17 154.31 435.1 159.86 441.81C173.52 458.33 195.97 465.81 209.22 482.61C212.39 486.61 215.07 491.25 219.3 494.16C221.815 495.889 224.745 496.915 227.789 497.133C230.833 497.35 233.879 496.751 236.614 495.398C239.349 494.044 241.673 491.985 243.346 489.432C245.019 486.88 245.98 483.928 246.13 480.88C251.28 473.31 255.49 464.95 259.5 456.71C265.433 444.133 270.446 431.142 274.5 417.84C275.99 413.14 277.43 408.41 279.33 403.84C284.02 392.56 291.49 382.35 294.13 370.43C295.19 365.65 295.45 360.68 296.99 356.04C298.369 351.875 300.729 348.103 303.87 345.04C314.27 334.93 319.87 320.2 328.14 308.3C331.5 303.49 334.99 298.69 337.21 293.25C339.43 287.81 340.28 281.58 338.21 276.08C336.14 270.58 330.73 266.14 324.87 266.45C322.247 266.722 319.703 267.503 317.38 268.75C309.304 272.582 301.896 277.687 295.44 283.87C292.617 286.587 289.946 289.458 287.44 292.47C275.22 307.07 265.66 324.79 264.82 343.81C264.54 350.33 265.06 357.56 260.92 362.61C249.5 376.56 245.83 395.74 236.09 410.92C231.58 417.92 226.41 425.17 218.7 428.36C217.561 428.908 216.301 429.156 215.04 429.08C211.96 428.73 210.19 425.49 208.89 422.67C203.81 411.671 197.931 401.06 191.3 390.92C188.68 386.92 185.79 382.82 181.6 380.47C178.74 378.88 175.42 378.17 172.73 376.31C168.98 373.72 167.02 369.31 165.07 365.18C158.75 351.841 150.748 339.366 141.26 328.06C136.92 322.89 131.2 317.55 124.5 318.32C118.12 319.07 114.22 325.78 108.2 328.29Z" fill="#FBB3B2"/>
<path opacity="0.03" d="M108.2 328.29C104.79 327.21 101.5 330.23 99.59 333.29C91.65 345.77 92.3 362.43 98.65 375.79C100.161 379.178 102.245 382.28 104.81 384.96C108.25 388.35 112.68 390.52 116.81 392.96C128.27 399.73 138.091 408.95 145.57 419.96C150.46 427.17 154.31 435.1 159.86 441.81C173.52 458.33 195.97 465.81 209.22 482.61C212.39 486.61 215.07 491.25 219.3 494.16C221.815 495.889 224.745 496.915 227.789 497.133C230.833 497.35 233.879 496.751 236.614 495.398C239.349 494.044 241.673 491.985 243.346 489.432C245.019 486.88 245.98 483.928 246.13 480.88C251.28 473.31 255.49 464.95 259.5 456.71C265.433 444.133 270.446 431.142 274.5 417.84C275.99 413.14 277.43 408.41 279.33 403.84C284.02 392.56 291.49 382.35 294.13 370.43C295.19 365.65 295.45 360.68 296.99 356.04C298.369 351.875 300.729 348.103 303.87 345.04C314.27 334.93 319.87 320.2 328.14 308.3C331.5 303.49 334.99 298.69 337.21 293.25C339.43 287.81 340.28 281.58 338.21 276.08C336.14 270.58 330.73 266.14 324.87 266.45C322.247 266.722 319.703 267.503 317.38 268.75C309.304 272.582 301.896 277.687 295.44 283.87C292.617 286.587 289.946 289.458 287.44 292.47C275.22 307.07 265.66 324.79 264.82 343.81C264.54 350.33 265.06 357.56 260.92 362.61C249.5 376.56 245.83 395.74 236.09 410.92C231.58 417.92 226.41 425.17 218.7 428.36C217.561 428.908 216.301 429.156 215.04 429.08C211.96 428.73 210.19 425.49 208.89 422.67C203.81 411.671 197.931 401.06 191.3 390.92C188.68 386.92 185.79 382.82 181.6 380.47C178.74 378.88 175.42 378.17 172.73 376.31C168.98 373.72 167.02 369.31 165.07 365.18C158.75 351.841 150.748 339.366 141.26 328.06C136.92 322.89 131.2 317.55 124.5 318.32C118.12 319.07 114.22 325.78 108.2 328.29Z" fill="black"/>
<path d="M107.5 280.51C122.058 280.51 133.86 269.859 133.86 256.72C133.86 243.581 122.058 232.93 107.5 232.93C92.9418 232.93 81.14 243.581 81.14 256.72C81.14 269.859 92.9418 280.51 107.5 280.51Z" fill="#FBB3B2"/>
<path d="M132.22 261.32C137.461 261.32 141.71 257.071 141.71 251.83C141.71 246.589 137.461 242.34 132.22 242.34C126.979 242.34 122.73 246.589 122.73 251.83C122.73 257.071 126.979 261.32 132.22 261.32Z" fill="#FBB3B2"/>
<path d="M110.96 256.72C131.013 256.72 147.27 252.373 147.27 247.01C147.27 241.647 131.013 237.3 110.96 237.3C90.9066 237.3 74.65 241.647 74.65 247.01C74.65 252.373 90.9066 256.72 110.96 256.72Z" fill="#FBB3B2"/>
<path d="M78.58 244.94C79.4634 247.74 80.1583 250.597 80.66 253.49C77.6113 250.395 74.9699 246.924 72.8 243.16C72.215 242.511 71.745 241.767 71.41 240.96C68.17 233.42 65.96 225.79 65.96 217.53C65.9592 207.953 68.6363 198.566 73.6889 190.43C78.7415 182.294 85.9684 175.733 94.5533 171.488C103.138 167.242 112.739 165.482 122.272 166.405C131.804 167.329 140.889 170.899 148.499 176.713C156.11 182.527 161.943 190.353 165.34 199.308C168.737 208.262 169.563 217.988 167.724 227.387C165.886 236.786 161.455 245.484 154.934 252.498C148.413 259.512 140.06 264.563 130.82 267.08C132.39 262.02 134.54 257.08 134.82 251.83C134.989 250.079 134.735 248.313 134.08 246.68C133.202 244.943 131.907 243.452 130.31 242.34C124.59 237.97 117.23 236.06 110.03 236.18C102.822 236.479 95.7402 238.178 89.18 241.18C87.11 242.07 84.63 243.27 82.18 244.09C81.0119 244.495 79.8057 244.78 78.58 244.94Z" fill="#FBB3B2"/>
<path d="M208.83 357.32C205.54 362.59 198.51 364.2 192.33 363.73C180.81 362.88 170.33 356.73 161.43 349.33C152.53 341.93 144.75 333.33 135.65 326.21C118.72 312.94 99.65 307.61 78.11 307.3C82.32 303.81 80.77 295.53 81.11 290.09C81.85 279.09 82.55 267.8 81.11 256.96C80.96 255.79 80.79 254.64 80.59 253.49C80.93 253.85 81.29 254.2 81.66 254.56C88.0655 260.707 95.9535 265.091 104.556 267.285C113.159 269.479 122.183 269.408 130.75 267.08C130.199 268.822 129.768 270.599 129.46 272.4C128.22 280.13 130.3 287.97 132.35 295.54C133.57 300.07 135.02 304.93 138.75 307.76C141.17 309.6 144.22 310.32 147.09 311.29C152.811 313.24 158.092 316.298 162.63 320.29C165.79 323.06 168.63 326.29 172.02 328.7C175.244 330.74 178.64 332.493 182.17 333.94C190.833 337.938 199.018 342.899 206.57 348.73C207.995 349.619 209.104 350.935 209.74 352.49C209.927 353.315 209.942 354.169 209.786 354.999C209.629 355.83 209.304 356.62 208.83 357.32Z" fill="#FBB3B2"/>
<path d="M267.9 454.21C267.21 458.77 263.03 462.33 260.08 465.87C252.06 475.55 243.93 485.26 234.96 494.12C225.36 503.59 214.82 512.03 204.29 520.47L190.63 531.4C188.945 532.941 186.97 534.13 184.82 534.9C182.302 535.528 179.641 535.212 177.34 534.01C176.424 533.571 175.556 533.038 174.75 532.42C171.92 530.22 169.84 527.22 167.81 524.27C158.57 510.783 149.32 497.293 140.06 483.8C136.76 478.98 133.52 474.03 130.3 469.08C129.87 468.44 129.46 467.79 129.03 467.15C126.09 462.65 123.16 458.15 120.15 453.8L103.69 446.09L101.53 445.09L98.98 443.9C95.59 442.31 92.15 440.69 89.33 438.23C86.6297 435.692 84.3809 432.713 82.68 429.42C79.3863 423.331 76.5064 417.026 74.06 410.55C67.06 392.88 60.9 374.46 60.64 355.44C60.41 338.71 65.35 321.31 76.47 309.03C77.99 307.34 79.6238 305.757 81.36 304.29C83.5 302.5 85.71 301.45 88.46 301.84C91.21 302.23 93.82 302.63 96.46 303.08C103.74 304.333 110.963 305.867 118.13 307.68C124.59 309.33 131.28 311.21 137.81 309.9C138.86 309.69 139.9 309.39 140.94 309.12C141.79 308.9 142.63 308.69 143.5 308.55C143.983 308.466 144.47 308.413 144.96 308.39C148.43 308.21 151.76 309.6 154.96 310.97C161.07 313.59 167.36 316.35 171.96 321.17C174.7 324.07 176.71 327.63 179.63 330.36C183.53 334.01 188.73 335.88 193.41 338.49C194.314 338.991 195.186 339.549 196.02 340.16C197.866 341.543 199.544 343.138 201.02 344.91C207.08 352.06 210.68 361.71 217.37 368.82C222.724 374.5 227.377 380.802 231.23 387.59C231.86 388.72 232.47 389.86 233.07 391.02C234.07 392.95 235 394.91 235.86 396.89C236.08 397.4 236.3 397.89 236.5 398.42C237.758 401.416 238.857 404.477 239.79 407.59C242.06 415.14 243.57 423.29 248.61 429.35C252.13 433.56 257.01 436.35 261.12 439.98C263.767 442.222 265.849 445.055 267.2 448.25C267.942 450.143 268.183 452.196 267.9 454.21Z" fill="#FBB3B2"/>
<path opacity="0.06" d="M240.06 394.15C238.913 395.597 237.737 397.023 236.53 398.43C236.33 398.69 236.11 398.94 235.89 399.19C225.364 411.504 213.314 422.428 200.03 431.7C191.81 437.44 183.14 442.53 174.49 447.61L158.49 456.98C151.8 460.91 145.02 464.87 137.6 467.13C135.22 467.84 132.73 468.41 130.3 469.08C129.87 468.44 129.46 467.79 129.03 467.15C126.09 462.65 123.16 458.15 120.15 453.8L103.69 446.09C112.78 440.344 120.845 433.118 127.55 424.71C137.55 412.38 145.24 398.32 152.82 384.35C154.164 382.095 155.209 379.674 155.93 377.15C156.93 372.96 156.09 368.56 154.86 364.44C150.357 349.668 140.89 336.905 128.06 328.31C119.06 322.31 108.82 318.66 98.64 315.14C91.53 312.68 83.74 310.3 76.51 311.31C78.0275 309.621 79.6615 308.04 81.4 306.58C83.54 304.78 85.75 303.73 88.5 304.12C91.25 304.51 93.86 304.91 96.5 305.37C101.85 307.01 107.11 308.97 112.34 310.99C115.781 312.251 119.123 313.765 122.34 315.52C125.542 317.475 128.618 319.629 131.55 321.97C140.221 328.58 149.351 334.565 158.87 339.88C169.87 345.95 181.42 350.88 192.96 355.88C194.184 356.509 195.535 356.851 196.91 356.88C197.599 356.879 198.268 356.648 198.811 356.224C199.354 355.801 199.741 355.208 199.91 354.54C199.956 353.812 199.789 353.085 199.43 352.45C197.43 348.36 192.89 346.3 188.78 344.31C171.72 336.05 156.72 324.16 141.88 312.36C141.52 312.074 141.203 311.737 140.94 311.36L143.5 310.79C160.108 322.718 177.648 333.293 195.95 342.41C196.917 342.903 197.887 343.383 198.86 343.85C199.56 344.2 200.25 344.54 200.96 344.85C205.89 347.27 210.82 349.85 214.53 353.85C216.923 356.609 218.94 359.672 220.53 362.96C224.617 370.682 228.107 378.705 230.97 386.96C231.024 387.136 231.088 387.31 231.16 387.48C231.523 388.741 232.15 389.91 233 390.91C233.299 391.245 233.655 391.526 234.05 391.74C235.93 392.85 238.51 392.73 240.06 394.15Z" fill="black"/>
<path d="M143.54 308.55C160.146 320.479 177.686 331.05 195.99 340.16L198.9 341.61C204.5 344.35 210.33 347.07 214.58 351.61C216.971 354.374 218.988 357.44 220.58 360.73C224.67 368.449 228.157 376.473 231.01 384.73C231.65 386.56 232.4 388.57 234.1 389.51C235.8 390.45 238.5 390.38 240.01 391.8C238.65 393.5 237.27 395.18 235.84 396.8C225.317 409.119 213.266 420.047 199.98 429.32C191.76 435.06 183.09 440.15 174.44 445.23L158.44 454.6C151.75 458.52 144.97 462.48 137.55 464.74C134.76 465.59 131.81 466.23 128.98 467.05C126.04 462.55 123.11 458.05 120.1 453.7L101.48 444.98C111.48 439.32 120.2 431.27 127.48 422.32C137.48 410 145.17 395.94 152.75 381.97C154.092 379.714 155.137 377.294 155.86 374.77C156.86 370.58 156.02 366.17 154.79 362.05C150.285 347.325 140.846 334.601 128.06 326.02C119.06 320.02 108.82 316.38 98.64 312.85C91.53 310.4 83.74 308.01 76.51 309.03C78.03 307.34 79.6638 305.757 81.4 304.29C83.54 302.5 85.75 301.45 88.5 301.84C91.25 302.23 93.86 302.63 96.5 303.08C101.85 304.73 107.11 306.69 112.34 308.71C115.782 309.967 119.125 311.481 122.34 313.24C125.542 315.195 128.618 317.349 131.55 319.69C140.235 326.284 149.378 332.253 158.91 337.55C169.91 343.63 181.46 348.6 193 353.55C194.224 354.179 195.574 354.521 196.95 354.55C197.64 354.552 198.311 354.323 198.855 353.899C199.399 353.474 199.784 352.88 199.95 352.21C199.995 351.485 199.828 350.762 199.47 350.13C197.47 346.04 192.93 343.97 188.82 341.99C171.76 333.73 156.76 321.83 141.92 309.99C141.557 309.707 141.239 309.37 140.98 308.99L143.54 308.55Z" fill="#6FB756"/>
<path d="M283.65 362.84C318.317 362.84 346.42 334.737 346.42 300.07C346.42 265.403 318.317 237.3 283.65 237.3C248.983 237.3 220.88 265.403 220.88 300.07C220.88 334.737 248.983 362.84 283.65 362.84Z" fill="#6FB756"/>
<path d="M346.06 549.89C357.81 546.2 369.74 542.44 380.06 535.69C387.31 530.95 393.56 524.85 400.14 519.21C405.09 514.97 410.25 510.97 414.79 506.29C418.857 501.91 422.664 497.296 426.19 492.47C434.217 481.963 442.507 471.657 451.06 461.55C455.65 456.16 460.5 450.67 466.91 447.67C478.3 442.32 491.67 445.93 503.69 449.6C521.69 455.1 539.6 460.93 556.44 469.3C566.02 474.07 575.3 479.39 584.97 483.96C602.65 492.31 621.42 498.04 640.12 503.74C641.509 504.331 643.053 504.458 644.52 504.1C645.569 503.619 646.47 502.866 647.13 501.92C649.568 498.908 651.522 495.534 652.92 491.92C653.186 491.51 653.286 491.013 653.199 490.532C653.111 490.05 652.844 489.621 652.45 489.33C644.45 481.54 634.07 476.75 624.37 471.2C616.65 466.79 609.26 461.84 601.88 456.89C594.79 452.14 587.64 447.34 581.69 441.23C578.69 438.14 575.99 434.73 572.74 431.91C569.869 429.561 566.827 427.429 563.64 425.53C549.385 416.427 535.779 406.346 522.92 395.36C513.14 387 505.13 376.23 494.68 368.73C488.27 364.13 480.81 359.94 472.97 360.78C463.43 361.78 456.39 369.78 449.74 376.68C427.39 399.89 399.19 416.5 374.25 436.91C353.89 453.55 334.86 473.32 310.06 482.1C311.17 485.78 311.56 489.46 312.68 493.1C314.076 498.16 315.817 503.118 317.89 507.94C319.946 512.21 322.26 516.351 324.82 520.34L334.76 536.57C336.76 539.87 338.85 543.22 341.71 545.84C343.21 547.28 346.06 547.8 346.06 549.89Z" fill="#222222"/>
<path opacity="0.06" d="M346.06 549.89C357.81 546.2 369.74 542.44 380.06 535.69C387.31 530.95 393.56 524.85 400.14 519.21C405.09 514.97 410.25 510.97 414.79 506.29C418.857 501.91 422.664 497.296 426.19 492.47C434.217 481.963 442.507 471.657 451.06 461.55C455.65 456.16 460.5 450.67 466.91 447.67C478.3 442.32 491.67 445.93 503.69 449.6C521.69 455.1 539.6 460.93 556.44 469.3C566.02 474.07 575.3 479.39 584.97 483.96C602.65 492.31 621.42 498.04 640.12 503.74C641.509 504.331 643.053 504.458 644.52 504.1C645.569 503.619 646.47 502.866 647.13 501.92C649.568 498.908 651.522 495.534 652.92 491.92C653.186 491.51 653.286 491.013 653.199 490.532C653.111 490.05 652.844 489.621 652.45 489.33C644.45 481.54 634.07 476.75 624.37 471.2C616.65 466.79 609.26 461.84 601.88 456.89C594.79 452.14 587.64 447.34 581.69 441.23C578.69 438.14 575.99 434.73 572.74 431.91C569.869 429.561 566.827 427.429 563.64 425.53C549.385 416.427 535.779 406.346 522.92 395.36C513.14 387 505.13 376.23 494.68 368.73C488.27 364.13 480.81 359.94 472.97 360.78C463.43 361.78 456.39 369.78 449.74 376.68C427.39 399.89 399.19 416.5 374.25 436.91C353.89 453.55 334.86 473.32 310.06 482.1C311.17 485.78 311.56 489.46 312.68 493.1C314.076 498.16 315.817 503.118 317.89 507.94C319.946 512.21 322.26 516.351 324.82 520.34L334.76 536.57C336.76 539.87 338.85 543.22 341.71 545.84C343.21 547.28 346.06 547.8 346.06 549.89Z" fill="black"/>
<path d="M619.82 530.84C620.936 532.416 621.694 534.218 622.039 536.118C622.385 538.019 622.31 539.972 621.82 541.84C625.374 544.409 629.701 545.683 634.08 545.45C638.441 545.209 642.728 544.228 646.76 542.55C650.253 541.271 653.562 539.536 656.6 537.39C661.83 533.53 665.6 528.01 668.65 522.28C670.34 519.13 671.78 515.04 669.6 512.2C668.768 511.231 667.747 510.442 666.6 509.88C658.911 505.488 650.905 501.674 642.65 498.47C640.378 497.425 637.911 496.87 635.41 496.84C632.33 497.01 629.54 498.7 627.1 500.58C621.62 504.846 617.201 510.322 614.19 516.58C613.25 518.58 610.41 523.34 611.81 525.4C612.45 526.35 614.81 526.68 615.81 527.27C617.382 528.167 618.748 529.383 619.82 530.84Z" fill="#FBB3B2"/>
<path d="M665.61 507.18C682.53 510.33 698.09 518.5 714.72 522.91C721.45 524.69 728.38 525.91 734.81 528.53C741.24 531.15 747.3 535.63 750.07 542.01C751.24 545.073 752.016 548.272 752.38 551.53C753.1 556.14 753.69 561.29 750.95 565.07C748.06 569.07 742.6 569.96 737.71 570.54C720.13 572.64 702.55 574.73 684.91 576.21C681.346 576.432 677.796 576.856 674.28 577.48C671.38 578.07 668.55 578.94 665.67 579.62C661.95 580.5 658.15 581.04 654.37 581.62C644.7 583 634.92 584.4 625.21 583.33C620.78 582.84 615.82 581.41 613.87 577.41C613.061 575.337 612.719 573.11 612.87 570.89C612.87 564.96 612.77 559.02 612.87 553.09C612.96 547 613.26 540.68 616.02 535.25C616.707 533.589 617.997 532.25 619.63 531.5C620.636 531.212 621.688 531.117 622.73 531.22C627.93 531.4 633.31 531.62 637.96 533.94C641.65 535.77 644.31 530.3 648.07 531.94C655.2 535.09 650.37 525.54 657.57 528.51C659.25 523.33 666.39 526.41 665.15 521.1C663.91 515.79 668.36 518.1 667.85 512.64C667.828 511.449 667.598 510.271 667.17 509.16C666.61 508.09 666.79 507.01 665.61 507.18Z" fill="#222222"/>
<path opacity="0.06" d="M158.77 187.23C154.89 189.49 150.08 189.07 145.56 188.97C141.607 188.888 137.654 189.092 133.73 189.58C132.317 189.679 130.936 190.045 129.66 190.66C127.998 191.732 126.685 193.264 125.88 195.07C124.28 198.144 123.202 201.462 122.69 204.89C122.13 208.74 122.19 212.95 119.79 216C116.52 220.15 111.42 219.51 106.79 220.33C102.761 221.103 98.8984 222.579 95.38 224.69C91.9107 226.785 88.9339 229.603 86.6525 232.953C84.3712 236.302 82.8388 240.104 82.16 244.1C82.03 245.01 81.94 245.91 81.9 246.82C81.8 249.4 82.06 252.03 81.72 254.56C81.6377 255.192 81.5107 255.816 81.34 256.43C81.2957 256.61 81.2389 256.787 81.17 256.96C81.02 255.79 80.85 254.64 80.65 253.49C77.6013 250.395 74.96 246.924 72.79 243.16C72.2051 242.511 71.735 241.767 71.4 240.96C68.16 233.42 65.95 225.79 65.95 217.53C65.9493 206.698 69.3742 196.143 75.7348 187.374C82.0955 178.606 91.066 172.074 101.363 168.712C111.661 165.35 122.758 165.331 133.067 168.657C143.376 171.983 152.369 178.484 158.76 187.23H158.77Z" fill="black"/>
<path d="M162.06 167.55C159.49 161.6 154.06 157.38 148.48 154.07C137.48 147.51 124.82 143.39 111.98 143.22C105.502 143.222 99.0408 143.892 92.7 145.22C86.521 146.325 80.4677 148.043 74.63 150.35C64.9977 154.356 56.4833 160.643 49.82 168.67C48.4203 168.776 47.032 169 45.67 169.34C40.23 170.7 35.33 173.69 30.86 177.08C27.1193 179.79 23.7971 183.034 21 186.71C17.7264 191.404 15.462 196.726 14.35 202.34C10.54 219.9 15.23 238.02 18.67 255.65C22.11 273.28 24.12 292.54 15.67 308.38C12.48 314.38 7.95002 319.48 4.55002 325.32C1.15002 331.16 -1.10997 338.19 0.820027 344.67C3.12003 352.55 10.86 357.55 14.9 364.64C17.3743 369.278 18.2574 374.6 17.4137 379.788C16.57 384.977 14.0462 389.745 10.23 393.36C16.58 395.56 23.65 393.19 29.37 389.67C33.9052 387.029 37.7636 383.369 40.64 378.98C47.83 367.34 44.64 352.31 47.14 338.86C50.47 321.26 63.91 305.56 62.06 287.74C60.81 275.74 52.89 265.79 46.66 255.5C42.5044 248.638 39.012 241.395 36.23 233.87C34.23 228.5 32.61 222.73 33.6 217.09C33.9276 215.368 34.4545 213.69 35.17 212.09C35.17 212.28 35.17 212.47 35.17 212.66C35.284 217.84 36.4474 222.943 38.59 227.66C46.03 242.86 65.84 248.46 74.23 263.15C76.68 260.48 79.23 257.68 80.23 254.2C81.11 251.1 80.66 247.8 80.79 244.58C81.14 235.58 86.61 227.1 94.27 222.46C97.7857 220.346 101.649 218.873 105.68 218.11C110.3 217.28 115.4 217.91 118.68 213.76C121.08 210.76 121.02 206.5 121.59 202.66C122.097 199.228 123.175 195.906 124.78 192.83C125.582 191.025 126.897 189.495 128.56 188.43C129.838 187.81 131.223 187.443 132.64 187.35C136.56 186.862 140.51 186.658 144.46 186.74C149.03 186.85 153.92 187.26 157.84 184.91C163.36 181.55 164.63 173.55 162.06 167.55Z" fill="#222222"/>
<path opacity="0.06" d="M720.87 112.35C720.87 112.49 720.87 112.62 720.87 112.76C719.06 128.36 704.06 127.64 700.56 152.22C699.18 161.85 684.56 163.63 674.95 166.22C670.8 164.82 666.6 163.61 662.45 162.1C652.85 158.63 659.56 153.42 663.67 147.82C677.12 129.48 679.67 104.42 694.94 87.57C700.54 98.21 709.399 106.778 720.22 112.02C720.43 112.16 720.65 112.26 720.87 112.35Z" fill="black"/>
<path d="M721.22 103.4C721.219 105.766 721.085 108.129 720.82 110.48C718.978 126.716 710.877 141.595 698.239 151.953C685.601 162.311 669.422 167.332 653.14 165.95C636.858 164.568 621.757 156.891 611.046 144.55C600.335 132.21 594.858 116.179 595.78 99.8643C596.702 83.5498 603.949 68.2378 615.982 57.1823C628.015 46.1269 643.885 40.1995 660.219 40.6599C676.553 41.1203 692.063 47.9321 703.454 59.6478C714.845 71.3635 721.219 87.0595 721.22 103.4Z" fill="#A1616A"/>
<path d="M746.47 110.42C753.66 110.07 760.57 112.89 767.21 115.66C793.54 126.66 820.09 137.75 843.62 153.9C855.22 161.9 865.97 170.98 876.7 180.09L920.79 217.55C929.26 224.74 937.79 232 944.59 240.8C948.593 246.227 952.243 251.906 955.52 257.8L962.06 268.95C964.739 273.314 967.079 277.878 969.06 282.6C972.42 291.21 973.67 301.25 980.45 307.54C985 311.77 991.27 313.49 996.83 316.28C1002.39 319.07 1007.83 323.97 1007.74 330.19C1007.74 334.19 1005.32 337.79 1003.5 341.39C999.73 348.913 998.15 357.343 998.94 365.72L926.84 310.62C923.97 308.43 920.97 306.17 917.44 305.43C912.86 304.43 908.19 306.16 903.77 307.72C868.925 320.008 831.897 324.876 795.06 322.01C778.77 320.73 762.23 317.8 747.97 309.83C740.08 305.43 733.1 299.6 726.17 293.83C717.52 286.59 708.84 279.33 701.17 271.05C699.17 268.84 697.09 266.41 696.58 263.45C696.2 261.31 696.67 259.13 696.85 256.97C698.11 241.8 685.51 229.17 681.67 214.44C679.964 207.494 680.2 200.213 682.354 193.393C684.507 186.573 688.495 180.476 693.88 175.77C702.47 183.29 702.16 196.5 701.16 207.87C699.81 223.18 704.09 230.77 702.74 246.09C708.18 245.89 707.19 249.39 709.51 244.46C711.83 239.53 712.28 233.97 712.72 228.54C714.327 208.9 716.277 189.293 718.57 169.72C719.71 159.93 721.01 150.16 722.26 140.38C723.02 134.43 722.92 128.87 726.06 123.59C730.42 116.28 737.83 110.83 746.47 110.42Z" fill="#6FB756"/>
<path d="M755.88 128.26C760.46 126.82 765.39 128.14 769.99 129.51C778.123 131.923 786.21 134.473 794.25 137.16C800.82 139.35 807.48 141.7 813.04 145.83C818.81 150.11 823.04 156.06 827.23 161.91C830.23 166.12 833.23 170.38 835.23 175.16C837.83 181.42 838.53 188.28 839.23 195.02C839.689 197.929 839.652 200.894 839.12 203.79C838.181 206.935 836.528 209.82 834.29 212.22C830.847 216.295 826.856 219.872 822.43 222.85C810.66 230.77 796.43 234.07 782.57 236.98C770.2 239.57 757.74 241.98 745.12 242.76C740.21 243.07 734.51 242.76 731.51 238.88C730.656 237.67 729.983 236.343 729.51 234.94C722.136 215.411 718.944 194.551 720.14 173.71C720.249 169.911 720.836 166.141 721.89 162.49C722.928 159.568 724.216 156.741 725.74 154.04C729.53 146.87 733.52 139.45 740.05 134.65C746.88 129.65 755.73 128.07 764.2 128.39" fill="#A1616A"/>
<path opacity="0.06" d="M801.95 202.42C798.02 205.07 796.65 210.19 796.15 214.91C794.02 234.98 802.3 254.85 801.75 275.02C801.31 291.02 795.33 306.38 789.43 321.31C779.37 346.78 774.13 374.44 772.1 401.75C770.07 429.06 767.1 457.5 752.44 480.6C749.11 485.83 745.23 490.69 741.97 495.95C738.55 501.45 735.84 507.35 732.82 513.07C723.922 529.963 712.452 545.371 698.82 558.74C694.82 562.64 690.58 566.42 685.48 568.67C682.193 570.096 678.655 570.85 675.072 570.888C671.49 570.926 667.936 570.246 664.62 568.89C657.78 566.06 652.02 559.68 651.74 552.28C651.49 545.66 655.44 539.69 659.4 534.39C672.822 516.434 688.256 500.074 705.4 485.63C708.51 483.01 711.79 480.3 713.4 476.56C715.21 472.25 714.47 467.36 714.7 462.69C715.07 455.24 717.97 448.17 719.7 440.91C726.7 411.42 714.26 379.22 724.38 350.65C726.63 344.3 729.97 338.23 730.76 331.54C731.32 326.86 730.15 321.63 727.23 318.12C724.487 314.965 722.95 310.94 722.89 306.76C722.89 305.9 722.89 305.05 723 304.21C724.22 291.12 725.43 277.97 724.77 264.84C724.11 251.71 721.5 238.51 715.44 226.84C712.3 220.79 708.24 215.13 706.3 208.6C703.18 198.03 706.06 186.6 710.71 176.6C714.34 168.78 719.18 161.33 725.94 155.97C738.5 146.02 757.3 144.87 771.05 153.1C781.19 159.16 788.13 169.35 793.76 179.74C797.8 187.33 802.06 193.76 801.95 202.42Z" fill="black"/>
<path d="M804.23 202.42C800.3 205.07 798.93 210.19 798.43 214.91C796.3 234.98 804.58 254.85 804.03 275.02C803.59 291.02 797.61 306.38 791.71 321.31C781.65 346.78 776.42 374.44 774.38 401.75C772.34 429.06 769.38 457.5 754.72 480.6C751.39 485.83 747.52 490.69 744.25 495.95C740.84 501.45 738.12 507.35 735.1 513.07C726.199 529.962 714.729 545.368 701.1 558.74C697.1 562.64 692.85 566.42 687.75 568.67C684.463 570.096 680.925 570.85 677.342 570.888C673.76 570.926 670.206 570.246 666.89 568.89C660.06 566.06 654.3 559.68 654.02 552.28C653.76 545.66 657.71 539.69 661.68 534.39C675.101 516.434 690.535 500.074 707.68 485.63C710.79 483.01 714.08 480.3 715.68 476.56C717.5 472.25 716.75 467.36 716.98 462.69C717.35 455.24 720.25 448.17 721.98 440.91C728.98 411.42 716.54 379.22 726.66 350.65C728.91 344.3 732.26 338.23 733.05 331.54C733.6 326.86 732.44 321.63 729.52 318.12C726.726 314.986 725.144 310.957 725.06 306.76C725.06 305.9 725.06 305.05 725.17 304.21C726.38 291.12 727.59 277.97 726.93 264.84C726.27 251.71 723.66 238.51 717.6 226.84C714.46 220.79 710.4 215.13 708.46 208.6C705.34 198.03 708.22 186.6 712.87 176.6C716.51 168.78 721.34 161.33 728.1 155.97C740.66 146.02 759.46 144.87 773.21 153.1C783.35 159.16 790.29 169.35 795.92 179.74C800.06 187.33 804.3 193.76 804.23 202.42Z" fill="#A1616A"/>
<path d="M905.36 463.55L904.5 463.81L905.36 463.55Z" fill="#222222"/>
<path d="M730.21 508.17C730.247 507.833 730.307 507.499 730.39 507.17L730.21 508.17Z" fill="#222222"/>
<path d="M944.61 439.55C947.49 436.22 951.93 434.73 956.2 433.62C963.081 431.841 970.11 430.696 977.2 430.2C981.601 429.726 986.05 430 990.36 431.01C994.62 432.18 998.66 434.72 1000.82 438.57C1002.73 441.97 1003.03 446.01 1003.28 449.9C1003.8 457.9 1004.28 465.9 1002.96 473.78C1002.11 478.78 1000.52 483.62 999.49 488.58C996.15 504.84 999.05 521.67 998.75 538.27C998.68 541.81 998.45 545.44 996.96 548.65C995.37 552.06 992.51 554.65 989.72 557.21C986.65 559.98 983.53 562.77 979.83 564.62C974.35 567.37 968.04 567.83 961.91 568.02C958.18 568.13 954.34 568.14 950.91 566.77C947.48 565.4 944.39 562.32 944.14 558.59C943.74 552.26 950.88 548.12 952.92 542.12C954.54 537.34 952.68 532.06 950.1 527.71C945.963 520.776 940.058 515.064 932.99 511.16C930.37 509.72 927.58 508.51 925.4 506.48C923.22 504.45 921.74 501.3 922.67 498.48C923.78 495.07 927.75 493.48 931.32 493.14C934.89 492.8 938.66 493.06 941.87 491.47C944.73 490.06 946.72 487.34 948.09 484.47C951.006 478.344 951.411 471.321 949.22 464.9C948.353 462.458 947.097 460.171 945.5 458.13C944 456.21 940.92 454.59 939.85 452.49C937.95 448.71 942.06 442.55 944.61 439.55Z" fill="#6FB756"/>
<path opacity="0.06" d="M886.5 294.63C869.98 280.03 846.95 276.06 825.35 271.63C814.223 269.357 803.15 266.823 792.13 264.03C784.89 262.19 777.63 260.23 770.13 259.72C762.63 259.21 754.91 260.26 748.49 264.08C742.07 267.9 737.23 274.82 737.19 282.29C737.19 285.29 737.9 288.23 737.68 291.2C737.33 295.98 734.68 300.2 732.87 304.67C730.102 311.736 729.678 319.505 731.66 326.83C734.86 338.5 744.08 348.78 743.28 360.83C741.95 381 742.36 402.08 746.5 421.83C750.64 441.58 755.81 461.42 755.69 481.63C755.57 501.84 749.45 523.09 734.36 536.55C744.584 546.149 757.089 552.982 770.69 556.4C782.32 559.31 796.15 559.02 804.43 550.35C806.35 548.35 807.94 545.68 807.54 542.93C807.128 541.195 806.399 539.551 805.39 538.08C799.7 527.89 800.39 515.33 802.91 503.95C805.43 492.57 809.74 481.51 810.83 469.89C811.63 461.46 810.73 452.89 812.34 444.57C813.58 438.2 816.26 432.2 817.87 425.91C822.62 407.25 817.63 387.66 812.67 369.07C816.82 378.62 824.67 386.07 832.79 392.55C845.11 402.37 860.01 411.04 875.67 409.3C889.61 407.74 901.48 398.05 909.67 386.68C909.74 373.53 914.3 361.1 913.49 347.98C912.968 342.217 911.937 336.512 910.41 330.93C908.88 324.69 907.31 318.39 904.41 312.66C900.58 305.05 892.88 300.26 886.5 294.63Z" fill="black"/>
<path d="M889.92 294.63C873.4 280.03 850.38 276.06 828.77 271.63C817.643 269.357 806.573 266.823 795.56 264.03C788.32 262.19 781.05 260.23 773.56 259.72C766.07 259.21 758.35 260.26 751.93 264.08C745.51 267.9 740.66 274.82 740.63 282.29C740.63 285.29 741.33 288.23 741.11 291.2C740.77 295.98 738.06 300.2 736.3 304.67C733.535 311.737 733.114 319.506 735.1 326.83C738.29 338.5 747.51 348.78 746.72 360.83C745.38 381 745.79 402.08 749.93 421.83C754.07 441.58 759.24 461.42 759.12 481.63C759 501.84 752.84 523.02 737.74 536.46C747.965 546.058 760.469 552.89 774.07 556.31C785.7 559.22 799.54 558.93 807.81 550.26C809.73 548.26 811.32 545.59 810.92 542.84C810.507 541.105 809.779 539.461 808.77 537.99C803.08 527.8 803.77 515.24 806.29 503.86C808.81 492.48 813.12 481.42 814.22 469.8C815.01 461.37 814.11 452.8 815.73 444.48C816.96 438.11 819.65 432.11 821.25 425.82C826 407.16 821.02 387.57 816.05 368.98C820.2 378.53 828.05 385.98 836.18 392.46C848.5 402.28 863.39 410.95 879.05 409.21C892.99 407.65 904.86 397.96 913.05 386.59C913.11 373.44 917.67 361.01 916.86 347.89C916.337 342.127 915.307 336.422 913.78 330.84C912.26 324.6 910.68 318.3 907.78 312.57C904.06 305.05 896.3 300.26 889.92 294.63Z" fill="#A1616A"/>
<path d="M775.16 546.98C767.824 542.512 761.488 536.578 756.55 529.55C754.77 527.03 753.17 524.35 750.95 522.21C748.73 520.07 745.72 518.48 742.65 518.8C739.18 519.16 736.4 521.8 734.2 524.52C728.3 531.83 724.5 540.77 717.95 547.52C710.39 555.33 699.84 559.52 689.31 562.2C678.78 564.88 667.91 566.29 657.59 569.68C654.35 570.74 650.94 572.18 649.19 575.11C646.97 578.84 648.19 583.73 650.53 587.43C654.84 594.43 662.26 598.94 670 601.62C677.74 604.3 685.93 605.37 694 606.95C708.26 609.74 722.87 614.21 737.06 611.06C742.72 609.8 748.06 607.36 753.78 606.3C766.78 603.88 780.19 608.77 793.24 606.81C799.55 605.86 805.51 603.34 811.24 600.5C814.113 599.258 816.726 597.483 818.94 595.27C821.03 592.95 822.29 589.66 821.43 586.66C820.94 584.93 819.81 583.47 819.06 581.84C817.88 579.32 817.64 576.49 817.36 573.72C816.281 563.176 814.449 552.723 811.88 542.44C810.99 538.85 809.66 534.85 806.31 533.28C805.627 532.911 804.828 532.822 804.08 533.03C802.89 533.48 802.5 534.92 802.14 536.13C801.158 539.475 799.279 542.488 796.705 544.84C794.132 547.192 790.963 548.795 787.544 549.473C784.124 550.151 780.583 549.879 777.307 548.687C774.031 547.495 771.144 545.427 768.96 542.71" fill="#6FB756"/>
<path opacity="0.06" d="M721.22 103.4C721.219 105.766 721.085 108.129 720.82 110.48C717.669 110.952 714.45 110.674 711.427 109.667C708.404 108.661 705.66 106.956 703.42 104.69C701.31 102.45 699.73 99.74 697.64 97.48C695.55 95.22 692.64 93.34 689.64 93.58C687.08 93.77 684.86 95.39 683.11 97.27C680.833 99.7176 679.164 102.667 678.24 105.88C677.57 108.15 677.24 110.73 675.36 112.24C673.48 113.75 671.17 113.65 668.94 113.57C666.05 113.47 663.05 113.33 660.5 111.97C655.7 109.38 654.08 103.45 652.3 98.29C649.3 89.62 642.55 73.22 632.06 71.47C627.06 70.64 620.98 73.28 617.06 76.13C611.15 80.42 606.79 83.2 599.15 83.08C603.967 69.0231 613.613 57.1304 626.374 49.5171C639.135 41.9038 654.182 39.0636 668.84 41.5016C683.498 43.9396 696.816 51.4977 706.426 62.8317C716.035 74.1657 721.313 88.5407 721.32 103.4H721.22Z" fill="black"/>
<path d="M599.06 80.79C597.257 80.8289 595.462 80.5444 593.76 79.95C588.91 78.05 586.55 72.45 586.14 67.26C585.5 59.35 588.14 51.59 590.79 44.1C591.35 42.47 592.02 40.72 593.48 39.81C594.662 39.2297 595.954 38.9059 597.27 38.86C604.45 37.86 610.68 33.47 615.98 28.55C621.28 23.63 626.06 18.05 631.98 13.95C647.68 3.11999 670.98 5.13999 684.56 18.5C689.94 23.78 694.56 30.94 702.02 32.18C706.32 32.89 710.93 31.41 715.02 33.01C718.02 34.18 720.16 36.83 721.88 39.54C727.46 48.3 730.08 58.68 730.95 69.03C731.82 79.38 731.02 89.79 730.21 100.14C730.256 101.69 729.856 103.22 729.06 104.55C728.42 105.317 727.617 105.932 726.71 106.35C722.908 108.224 718.612 108.854 714.432 108.151C710.252 107.447 706.399 105.446 703.42 102.43C701.3 100.2 699.73 97.49 697.64 95.22C695.55 92.95 692.64 91.09 689.64 91.33C687.09 91.52 684.85 93.14 683.11 95.02C680.833 97.4676 679.164 100.417 678.24 103.63C677.58 105.9 677.24 108.48 675.36 109.98C673.48 111.48 671.17 111.4 668.93 111.32C666.05 111.21 663.05 111.08 660.5 109.71C655.69 107.13 654.07 101.2 652.3 96.04C649.3 87.37 642.56 70.96 632.06 69.22C627.06 68.38 620.98 71.03 617.06 73.88C611.06 78.14 606.74 80.92 599.06 80.79Z" fill="#222222"/>
<path opacity="0.06" d="M267.9 454.21C267.21 458.77 263.03 462.33 260.08 465.87C252.06 475.55 243.93 485.26 234.96 494.12C225.36 503.59 214.82 512.03 204.29 520.47L190.63 531.4C188.945 532.941 186.97 534.131 184.82 534.9C182.302 535.528 179.641 535.212 177.34 534.01C177.54 533.61 177.75 533.24 177.98 532.87L194.36 505.42C197.58 500.04 199.69 495.14 203.36 490.09C208.89 482.53 214.47 474.93 221.28 468.52C229.89 460.41 240.93 454.52 251.17 448.66C252.65 444.22 258.85 442.99 263.04 445.09C264.593 445.895 265.991 446.968 267.17 448.26C267.921 450.148 268.172 452.197 267.9 454.21Z" fill="black"/>
<path d="M195.5 506.55L179.12 534.01C178.45 535.12 177.76 536.38 178.05 537.64C178.418 538.698 179.12 539.607 180.05 540.23C186.33 545.34 193.29 550.73 195.26 558.58C196.67 564.18 195.26 570.18 196.52 575.8C198.83 585.94 209.02 592.1 218.66 596C240.26 604.74 264.24 608.1 287.19 604C310.14 599.9 331.92 588.22 346.78 570.26C351.34 564.74 355.24 558.7 359.57 553C371.57 537.25 386.8 524.32 401.91 511.52C421.36 495.04 432.82 470.46 449.91 451.52C453.02 448.07 456.45 444.52 460.91 443.38C463.41 442.75 466.91 443.68 467.01 446.26C467.24 451.26 471.26 455.35 474.01 459.53C484.37 475.37 495.21 491.7 511.22 501.8C519.98 507.34 529.91 510.73 539.81 513.8C564.91 521.62 590.5 527.8 616.06 533.92C617.35 531.34 618.898 528.898 620.68 526.63C623.33 523.38 626.82 520.9 629.48 517.63C634.35 511.74 636.06 503.95 637.62 496.47C622.35 487.12 606.68 477.47 591.62 467.75C584.04 462.87 576.41 457.88 570.27 451.28C566.27 446.94 562.91 441.97 558.9 437.6C554.798 433.36 550.379 429.438 545.68 425.87L509.68 397.04C499.34 388.77 488.8 380.04 478.68 371.48C472.99 366.66 466.68 361.59 459.24 361.36C452.87 361.16 447.01 364.57 441.53 367.85C409.343 387.123 376.677 405.53 343.53 423.07C336.82 426.61 330.08 430.13 323.68 434.2C311.228 442.122 300.172 452.049 290.96 463.58C289.27 465.69 287.13 468.09 284.45 467.77C283.713 467.662 283.004 467.414 282.36 467.04C278.23 464.83 275.7 460.56 273.36 456.51C271.02 452.46 268.41 448.2 264.22 446.1C260.03 444 253.84 445.23 252.35 449.68C242.06 455.71 231.06 461.55 222.44 469.66C215.63 476.07 210.05 483.66 204.52 491.23C200.83 496.28 198.71 501.18 195.5 506.55Z" fill="#222222"/>
<path opacity="0.06" d="M168.67 339.07C168.67 339.07 185.14 346.38 196.95 354.63L168.67 339.07Z" fill="black"/>
<path d="M993.53 354.1C993.83 363.43 994.07 372.78 993.96 382.1C993.9 387.04 993.69 392.19 991.32 396.52C989.63 399.63 986.96 402.06 984.32 404.44L967.85 419.37C962.74 424 957.23 428.83 950.42 429.98C942.63 431.3 935.02 427.51 927.53 424.98C919.987 422.439 912.089 421.112 904.13 421.05C899.57 421.05 894.97 421.41 890.47 420.69C887.216 420.071 884.024 419.164 880.93 417.98L866.06 412.82C866.48 409.07 870.06 406.68 873.06 404.31C883.71 395.67 888.38 381.78 891.74 368.49C894.471 358.114 896.417 347.548 897.56 336.88C898.07 331.6 898.3 326.23 897.19 321.04C896.143 316.853 894.669 312.785 892.79 308.9L887.56 297.11C884.56 290.45 878.56 287.49 872.45 283.56C881.67 287.06 892.91 288.43 899.92 295.37C901.273 296.908 902.875 298.206 904.66 299.21C906.57 300.12 908.74 300.21 910.83 300.55C921.24 302.11 930.09 308.65 938.69 314.7C949.217 322.113 960.037 329.077 971.15 335.59C976.15 338.53 981.31 341.42 985.52 345.43C989.73 349.44 993.03 354.78 993.3 360.59" fill="#222222"/>
<path opacity="0.06" d="M96.77 337.72C83.66 340.31 76.84 355.72 77.61 369.05C78.35 380.956 83.2402 392.226 91.43 400.9C96.9 406.65 103.72 411.09 108.66 417.3C115.96 426.46 118.5 438.57 125.03 448.3C129.77 455.36 136.42 460.9 143.03 466.21C158.27 478.37 174.007 489.88 190.24 500.74C196.84 505.15 204.06 509.61 212 509.44C219.48 509.28 226.37 504.89 231.25 499.21C236.13 493.53 239.25 486.63 242.42 479.83C253.84 454.93 265.34 429.76 270.8 402.92C272.51 394.49 273.66 385.8 277.48 378.09C280.48 372.09 284.92 366.95 288.88 361.53C298.236 348.669 304.802 333.996 308.16 318.45C310.34 308.31 311.07 297.45 307.49 287.75C303.91 278.05 295.22 269.64 284.87 268.88C276.68 268.28 268.64 272.48 263.14 278.59C257.64 284.7 254.4 292.51 252.19 300.42C249.022 311.8 247.805 323.634 248.59 335.42C249.23 344.93 251.17 354.53 249.53 363.93C248.37 370.56 245.48 376.75 242.62 382.85C235.23 398.59 227.72 414.53 216.55 427.85C212.91 432.19 207.9 436.58 202.33 435.56C194.63 434.16 192.59 424.41 188.79 417.56C184.13 409.16 175.29 404.11 168.36 397.44C158.5 387.94 152.59 375.2 145.58 363.44C138.57 351.68 129.5 340.07 116.58 335.56C103.66 331.05 86.44 336.84 83.12 350.12" fill="black"/>
<path opacity="0.06" d="M106.66 346.85C93.54 349.44 76.84 351.13 77.66 364.48C78.3915 376.388 83.2829 387.661 91.48 396.33C96.95 402.09 103.77 406.53 108.71 412.74C116.01 421.9 118.55 434 125.08 443.74C129.82 450.81 136.47 456.35 143.08 461.65C158.32 473.817 174.057 485.327 190.29 496.18C196.89 500.6 204.11 505.06 212.05 504.89C219.53 504.73 226.42 500.33 231.3 494.66C236.18 488.99 239.3 482.08 242.47 475.27C253.89 450.37 265.39 425.2 270.85 398.36C272.56 389.94 273.71 381.24 277.53 373.54C280.53 367.54 284.97 362.4 288.93 356.97C298.287 344.113 304.854 329.443 308.21 313.9C310.39 303.75 311.12 292.9 307.54 283.19C303.96 273.48 295.27 265.09 284.92 264.32C276.73 263.72 268.69 267.93 263.19 274.03C257.69 280.13 254.45 287.95 252.24 295.87C249.071 307.249 247.854 319.084 248.64 330.87C249.28 340.39 251.22 349.99 249.58 359.38C248.42 366.02 245.53 372.21 242.67 378.31C235.28 394.05 227.77 409.98 216.6 423.31C212.96 427.65 207.95 432.03 202.38 431.02C194.68 429.61 192.64 419.86 188.84 413.02C184.18 404.62 175.34 399.57 168.41 392.9C158.55 383.41 152.64 370.66 145.63 358.9C138.62 347.14 129.55 335.54 116.63 331.02C103.71 326.5 119.89 355.45 116.56 368.73" fill="black"/>
<path d="M96.77 335.43C83.66 338.02 76.84 353.43 77.61 366.76C78.3477 378.67 83.238 389.944 91.43 398.62C96.9 404.37 103.72 408.81 108.66 415.02C115.96 424.18 118.5 436.29 125.03 446.02C129.77 453.09 136.42 458.63 143.03 463.94C158.27 476.1 174.007 487.607 190.24 498.46C196.84 502.88 204.06 507.34 212 507.17C219.48 507.01 226.37 502.62 231.25 496.94C236.13 491.26 239.25 484.36 242.42 477.56C253.84 452.66 265.34 427.49 270.8 400.64C272.51 392.22 273.66 383.52 277.48 375.82C280.48 369.82 284.92 364.68 288.88 359.25C298.237 346.393 304.804 331.723 308.16 316.18C310.34 306.03 311.07 295.18 307.49 285.47C303.91 275.76 295.22 267.37 284.87 266.61C276.68 266 268.64 270.21 263.14 276.32C257.64 282.43 254.4 290.24 252.19 298.15C249.022 309.53 247.805 321.364 248.59 333.15C249.23 342.66 251.17 352.26 249.53 361.65C248.37 368.29 245.48 374.48 242.62 380.58C235.23 396.32 227.72 412.26 216.55 425.58C212.91 429.92 207.9 434.3 202.33 433.29C194.63 431.88 192.59 422.14 188.79 415.29C184.13 406.88 175.29 401.83 168.36 395.17C158.5 385.67 152.59 372.93 145.58 361.17C138.57 349.41 129.5 337.81 116.58 333.3C103.66 328.79 86.44 334.58 83.12 347.86" fill="#FBB3B2"/>
<g opacity="0.06">
<path opacity="0.06" d="M46.66 255.55C42.5044 248.688 39.0119 241.445 36.23 233.92L35.89 232.92C33.7797 230.655 32.005 228.099 30.62 225.33C28.4761 220.613 27.3125 215.51 27.2 210.33C27.2 210.14 27.2 209.95 27.2 209.76C26.4844 211.36 25.9575 213.038 25.63 214.76C24.63 220.4 26.28 226.16 28.26 231.54C31.0439 239.064 34.5362 246.307 38.69 253.17C44.9 263.55 52.83 273.55 54.06 285.46C55.91 303.28 42.47 318.97 39.15 336.58C36.61 350.03 39.83 365.06 32.64 376.7C29.7661 381.089 25.9069 384.746 21.37 387.38C18.5244 389.193 15.4089 390.544 12.14 391.38C11.5438 392.087 10.9025 392.755 10.22 393.38C16.57 395.58 23.64 393.21 29.36 389.69C33.8952 387.049 37.7536 383.389 40.63 379C47.82 367.36 44.63 352.33 47.13 338.88C50.46 321.28 63.9 305.58 62.05 287.76C60.81 275.78 52.89 265.79 46.66 255.55Z" fill="black"/>
<path opacity="0.06" d="M162.06 167.55C159.49 161.6 154.06 157.38 148.48 154.07C141.406 149.825 133.709 146.721 125.67 144.87C130.829 146.671 135.794 148.986 140.49 151.78C146.07 155.1 151.49 159.31 154.08 165.27C156.67 171.23 155.38 179.27 149.82 182.59C145.9 184.94 141.01 184.52 136.44 184.42C132.491 184.33 128.54 184.53 124.62 185.02C123.204 185.122 121.821 185.489 120.54 186.1C118.871 187.181 117.557 188.728 116.76 190.55C115.152 193.625 114.07 196.948 113.56 200.38C113 204.22 113.05 208.43 110.65 211.48C107.39 215.63 102.29 215 97.65 215.82C93.6205 216.593 89.7583 218.069 86.24 220.18C78.58 224.81 73.11 233.27 72.76 242.3C72.64 245.52 73.08 248.81 72.21 251.91C71.6487 253.719 70.7682 255.412 69.61 256.91C71.3819 258.804 72.9319 260.894 74.23 263.14C76.68 260.47 79.23 257.67 80.23 254.19C81.11 251.09 80.66 247.79 80.79 244.57C81.14 235.57 86.61 227.09 94.27 222.45C97.7856 220.336 101.649 218.863 105.68 218.1C110.3 217.27 115.4 217.9 118.68 213.75C121.08 210.75 121.02 206.49 121.59 202.65C122.097 199.218 123.175 195.896 124.78 192.82C125.582 191.015 126.896 189.485 128.56 188.42C129.838 187.8 131.223 187.433 132.64 187.34C136.56 186.852 140.51 186.648 144.46 186.73C149.03 186.84 153.92 187.25 157.84 184.9C163.36 181.55 164.63 173.55 162.06 167.55Z" fill="black"/>
</g>
<path opacity="0.06" d="M96.58 263.1C96.58 263.1 108.39 273.26 130.82 267.1C130.82 267.08 116.93 272.55 96.58 263.1Z" fill="black"/>
<path opacity="0.06" d="M729.99 91.7C730.013 93.2442 729.597 94.7632 728.79 96.08C728.15 96.8443 727.347 97.4559 726.44 97.87C722.641 99.7462 718.347 100.378 714.168 99.6764C709.989 98.9745 706.138 96.9745 703.16 93.96C701.04 91.72 699.47 88.96 697.38 86.75C695.29 84.54 692.38 82.61 689.38 82.85C686.83 83.05 684.6 84.67 682.85 86.54C680.584 88.9957 678.917 91.9426 677.98 95.15C677.33 97.43 676.98 100 675.11 101.51C673.24 103.02 670.92 102.92 668.68 102.84C665.79 102.74 662.79 102.61 660.25 101.24C655.44 98.66 653.82 92.72 652.04 87.57C649.04 78.89 642.3 62.49 631.81 60.74C626.81 59.91 620.72 62.56 616.81 65.4C610.9 69.69 606.54 72.47 598.89 72.4C597.088 72.4346 595.293 72.1502 593.59 71.56C589.19 69.83 586.84 65.05 586.13 60.31C585.858 62.4824 585.801 64.6764 585.96 66.86C586.38 72.04 588.74 77.64 593.59 79.55C595.293 80.1403 597.088 80.4246 598.89 80.39C606.54 80.51 610.89 77.73 616.81 73.44C620.74 70.6 626.81 67.94 631.81 68.78C642.26 70.48 649.06 86.88 652 95.55C653.78 100.71 655.4 106.65 660.21 109.23C662.75 110.59 665.75 110.73 668.64 110.83C670.88 110.91 673.34 110.92 675.07 109.5C676.8 108.08 677.29 105.41 677.94 103.14C678.875 99.9316 680.542 96.9842 682.81 94.53C684.56 92.66 686.81 91.04 689.34 90.84C692.42 90.6 695.34 92.47 697.34 94.74C699.34 97.01 701 99.74 703.12 101.95C706.098 104.964 709.949 106.965 714.128 107.666C718.307 108.368 722.601 107.736 726.4 105.86C727.305 105.442 728.107 104.831 728.75 104.07C729.558 102.75 729.974 101.228 729.95 99.68C730.732 91.2571 731.066 82.7984 730.95 74.34C730.87 80.13 730.44 85.92 729.99 91.7Z" fill="black"/>
<path d="M35.81 518.3C35.81 518.3 37.4 516.53 34.41 515.83V512.92H36.21C36.2061 509.404 34.9953 505.996 32.7801 503.266C30.565 500.535 27.4796 498.648 24.04 497.92V494.39H24.51V489.8H12.94V494.39H13.27V497.96C9.86261 498.724 6.81722 500.626 4.63583 503.353C2.45444 506.079 1.26725 509.468 1.26998 512.96H2.85998V515.75C2.85998 515.75 -0.930018 517.54 2.85998 520.75C6.64998 523.96 6.05998 526.28 6.05998 526.28C6.05998 526.28 4.46998 532.28 1.27998 533.06V588.69C1.27867 590.314 1.59739 591.922 2.21795 593.423C2.83851 594.924 3.74874 596.287 4.8966 597.436C6.04447 598.585 7.40747 599.496 8.9077 600.118C10.4079 600.74 12.016 601.06 13.64 601.06H23.41C26.6907 601.06 29.8371 599.757 32.1569 597.437C34.4767 595.117 35.78 591.971 35.78 588.69V533.06C35.78 533.06 30.19 528.87 31.19 526.28C32.5315 523.51 34.0757 520.843 35.81 518.3Z" fill="#222222"/>
<defs>
<linearGradient id="paint0_linear" x1="501.01" y1="610.87" x2="501.01" y2="-0.0300166" gradientUnits="userSpaceOnUse">
<stop stop-color="#808080" stop-opacity="0.25"/>
<stop offset="0.54" stop-color="#808080" stop-opacity="0.12"/>
<stop offset="1" stop-color="#808080" stop-opacity="0.1"/>
</linearGradient>
</defs>
</svg>
