<svg width="1114" height="812" viewBox="0 0 1114 812" fill="none" xmlns="http://www.w3.org/2000/svg">
<g clip-path="url(#clip0)">
<g opacity="0.3">
<path opacity="0.5" d="M352.31 61.68C350.22 58.83 345.9 61.91 347.86 64.86C348.37 65.63 348.92 66.37 349.45 67.08C355.89 75.77 359.22 86.31 362.09 96.73C362.8 99.29 363.48 102.03 362.67 104.55C363.669 97.7289 363.216 90.7737 361.34 84.14C359.459 77.5319 357.044 71.0874 354.12 64.87C353.631 63.7459 353.024 62.6767 352.31 61.68Z" fill="#6C63FF"/>
<path opacity="0.3" d="M310.58 79.94C306.24 79.81 305.69 86.39 310.01 86.74C311.14 86.83 312.29 86.85 313.37 86.88C326.66 87.24 339.23 92.07 351.3 97.24C354.3 98.51 357.37 99.94 359.11 102.66C353.66 96.35 346.5 91.73 338.87 88.33C331.24 84.93 323.13 82.7 315.01 80.62C313.562 80.2343 312.077 80.0063 310.58 79.94V79.94Z" fill="#6C63FF"/>
<path opacity="0.2" d="M311.78 96.12C309.04 96.22 309.65 100.12 312.41 100.12C313.13 100.12 313.85 100.12 314.54 100.06C322.92 99.72 331.54 102.06 339.83 104.58C341.88 105.2 344.03 105.91 345.52 107.44C341.098 104.028 336.089 101.456 330.74 99.85C325.469 98.2822 320.092 97.0991 314.65 96.31C313.702 96.1516 312.741 96.088 311.78 96.12V96.12Z" fill="#6C63FF"/>
<path opacity="0.5" d="M367.85 168.52C368.63 171.15 372.25 169.59 371.59 166.91C371.41 166.21 371.2 165.52 371.01 164.91C368.6 156.91 368.71 147.99 369.11 139.29C369.2 137.16 369.36 134.89 370.47 133.07C368.258 138.198 367.01 143.69 366.79 149.27C366.575 154.763 366.763 160.264 367.35 165.73C367.424 166.674 367.591 167.609 367.85 168.52Z" fill="#6C63FF"/>
<path opacity="0.2" d="M316.77 58.03C315.12 57.74 314.99 60.14 316.64 60.51L317.92 60.75C322.97 61.61 327.8 64.08 332.45 66.66C333.636 67.2087 334.667 68.0438 335.45 69.09C333.248 66.4868 330.583 64.3136 327.59 62.68C324.642 61.0725 321.58 59.6822 318.43 58.52C317.894 58.3041 317.338 58.14 316.77 58.03V58.03Z" fill="#6C63FF"/>
<path opacity="0.3" d="M291.3 121.71C287.11 123.86 290.65 129.77 294.95 127.81C296.08 127.3 297.17 126.72 298.22 126.18C311.01 119.54 325.87 117.1 340.48 115.18C344.07 114.72 347.89 114.31 351.21 115.73C342.21 113.18 332.54 112.97 323.21 114.05C313.88 115.13 304.85 117.47 295.89 119.93C294.304 120.368 292.766 120.964 291.3 121.71V121.71Z" fill="#6C63FF"/>
<path opacity="0.5" d="M303.26 144.72C300.26 147.53 304.94 150.84 308.1 148.15C308.93 147.44 309.71 146.7 310.46 145.99C319.63 137.39 331.74 131.26 343.8 125.62C346.8 124.24 358.95 122.82 362.2 122.9C353.7 123.66 336.35 126.31 328.63 129.82C321.067 133.42 313.754 137.522 306.74 142.1C305.502 142.864 304.337 143.741 303.26 144.72Z" fill="#6C63FF"/>
<path opacity="0.3" d="M324.71 181.46C323.83 185.46 329.58 185.54 330.64 181.53C330.92 180.53 331.15 179.42 331.36 178.41C334.01 166.12 340.5 154.2 347.21 142.7C348.86 139.88 358.08 131.79 360.8 130C354.24 135.46 341.47 147.51 337.12 154.78C332.949 162.04 329.274 169.574 326.12 177.33C325.528 178.662 325.056 180.044 324.71 181.46Z" fill="#6C63FF"/>
<path opacity="0.3" d="M367.9 40.41C365.9 36.24 360 39.67 361.9 43.96C362.38 45.08 362.9 46.17 363.45 47.22C369.76 59.98 371.93 74.74 373.55 89.22C373.95 92.78 374.28 96.57 372.84 99.84C375.48 90.91 375.84 81.37 374.92 72.13C374 62.89 371.85 53.89 369.57 44.98C369.17 43.404 368.61 41.8728 367.9 40.41V40.41Z" fill="#6C63FF"/>
<path opacity="0.3" d="M335.27 47.52C335.376 47.5847 335.496 47.6225 335.62 47.63C335.732 47.6054 335.835 47.5517 335.919 47.4744C336.003 47.3972 336.066 47.2991 336.1 47.19C336.61 46.08 336.32 44.64 337.1 43.7C337.896 44.6628 338.541 45.742 339.01 46.9L342.01 45.97C342.148 46.5542 342.168 47.1599 342.07 47.7521C341.973 48.3443 341.758 48.9112 341.44 49.42C341.969 49.6608 342.448 50.0002 342.85 50.42C343.051 50.6262 343.191 50.8833 343.256 51.1635C343.321 51.4437 343.309 51.7364 343.22 52.01C342.527 52.1797 341.813 52.2504 341.1 52.22C341.214 53.5575 341.136 54.9044 340.87 56.22C340.863 56.3157 340.838 56.4091 340.795 56.4949C340.752 56.5807 340.692 56.6572 340.62 56.72C340.497 56.7688 340.364 56.7834 340.233 56.7623C340.103 56.7411 339.981 56.6851 339.88 56.6C338.84 55.9603 337.987 55.0563 337.41 53.98L336.31 56.52C336.231 56.7969 336.053 57.0352 335.81 57.19C335.641 57.2478 335.458 57.2478 335.29 57.1898C335.122 57.1318 334.977 57.0193 334.88 56.87C334.694 56.5658 334.578 56.2243 334.54 55.87L334.13 53.33C334.122 53.1985 334.073 53.0727 333.99 52.97C333.86 52.8755 333.701 52.8295 333.54 52.84C332.48 52.84 331.42 52.84 330.36 52.84C330.18 52.28 330.74 51.75 331.28 51.52C331.82 51.29 332.47 51.1 332.74 50.57C333.3 49.5 331.86 48.01 332.47 47.08C333.08 46.15 334.34 47.06 335.27 47.52Z" fill="#6C63FF"/>
<path opacity="0.5" d="M393.29 61.68C395.38 58.83 399.7 61.91 397.74 64.86C397.23 65.63 396.68 66.37 396.15 67.08C389.71 75.77 386.38 86.31 383.51 96.73C382.8 99.29 382.12 102.03 382.93 104.55C381.931 97.7289 382.384 90.7737 384.26 84.14C386.141 77.5319 388.556 71.0874 391.48 64.87C391.969 63.7459 392.576 62.6767 393.29 61.68Z" fill="#6C63FF"/>
<path opacity="0.3" d="M435 79.94C439.34 79.81 439.89 86.39 435.57 86.74C434.44 86.83 433.29 86.85 432.21 86.88C418.92 87.24 406.35 92.07 394.28 97.24C391.28 98.51 388.21 99.94 386.47 102.66C391.92 96.35 399.08 91.73 406.71 88.33C414.34 84.93 422.45 82.7 430.57 80.62C432.018 80.2343 433.503 80.0063 435 79.94V79.94Z" fill="#6C63FF"/>
<path opacity="0.5" d="M433.82 96.12C436.56 96.22 435.95 100.12 433.19 100.12C432.47 100.12 431.75 100.12 431.06 100.06C422.68 99.72 414.06 102.06 405.77 104.58C403.77 105.2 401.56 105.91 400.08 107.44C404.501 104.028 409.511 101.456 414.86 99.85C420.147 98.2866 425.542 97.1101 431 96.33C431.931 96.1682 432.875 96.0979 433.82 96.12V96.12Z" fill="#6C63FF"/>
<path opacity="0.2" d="M428.83 58.03C430.48 57.74 430.61 60.14 428.96 60.51L427.68 60.75C422.63 61.61 417.8 64.08 413.15 66.66C411.964 67.2087 410.933 68.0438 410.15 69.09C412.352 66.4868 415.017 64.3136 418.01 62.68C420.958 61.0725 424.02 59.6822 427.17 58.52C427.706 58.3041 428.262 58.14 428.83 58.03V58.03Z" fill="#6C63FF"/>
<path opacity="0.2" d="M385.89 173.52C385.52 175.15 383.25 174.34 383.55 172.68C383.63 172.25 383.73 171.82 383.82 171.41C384.97 166.41 384.56 161.01 383.97 155.72C383.931 154.407 383.563 153.124 382.9 151.99C384.448 155.026 385.424 158.321 385.78 161.71C386.124 165.052 386.225 168.414 386.08 171.77C386.077 172.358 386.013 172.945 385.89 173.52V173.52Z" fill="#6C63FF"/>
<path opacity="0.5" d="M427.77 162.64C429.06 164.82 425.9 164.64 424.51 162.49C424.14 161.92 423.81 161.35 423.51 160.8C419.58 154.12 413.61 147.52 407.6 141.14C406.178 139.486 404.516 138.053 402.67 136.89C407.369 140.074 411.704 143.762 415.6 147.89C419.46 151.89 422.87 156.13 426.2 160.33C426.776 161.063 427.301 161.835 427.77 162.64V162.64Z" fill="#6C63FF"/>
<path opacity="0.2" d="M313.16 162.64C311.87 164.82 315.04 164.64 316.43 162.49C316.79 161.92 317.13 161.35 317.43 160.8C321.35 154.12 327.32 147.52 333.33 141.14C334.758 139.488 336.423 138.056 338.27 136.89C333.569 140.071 329.233 143.76 325.34 147.89C321.48 151.89 318.07 156.13 314.73 160.33C314.157 161.065 313.633 161.837 313.16 162.64V162.64Z" fill="#6C63FF"/>
<path opacity="0.2" d="M355.07 173.52C355.45 175.15 357.71 174.34 357.41 172.68C357.34 172.25 357.23 171.82 357.14 171.41C355.99 166.41 356.41 161.01 356.99 155.72C357.032 154.406 357.404 153.123 358.07 151.99C356.519 155.025 355.539 158.32 355.18 161.71C354.836 165.052 354.735 168.414 354.88 171.77C354.888 172.358 354.952 172.944 355.07 173.52Z" fill="#6C63FF"/>
<path opacity="0.2" d="M415.63 74.42C417.28 74.14 417.4 76.54 415.76 76.9C415.33 77 414.89 77.07 414.48 77.14C409.43 78 404.6 80.48 399.95 83.05C398.767 83.6029 397.737 84.4372 396.95 85.48C399.161 82.8817 401.828 80.7094 404.82 79.07C407.766 77.4676 410.824 76.0807 413.97 74.92C414.506 74.7003 415.062 74.5328 415.63 74.42V74.42Z" fill="#6C63FF"/>
<path opacity="0.2" d="M400.22 42.23C401.64 41.35 402.66 43.53 401.22 44.48C400.86 44.73 400.48 44.96 400.12 45.18C395.76 47.87 392.2 51.97 388.85 56.09C387.96 57.0634 387.325 58.2416 387 59.52C388.077 56.2855 389.738 53.2758 391.9 50.64C394.034 48.0484 396.353 45.6154 398.84 43.36C399.262 42.9389 399.724 42.5604 400.22 42.23V42.23Z" fill="#6C63FF"/>
<path opacity="0.3" d="M454.3 121.71C458.49 123.86 454.95 129.77 450.65 127.81C449.52 127.3 448.43 126.72 447.38 126.18C434.59 119.54 419.73 117.1 405.12 115.18C401.53 114.72 397.71 114.31 394.39 115.73C403.39 113.18 413.06 112.97 422.39 114.05C431.72 115.13 440.75 117.47 449.71 119.93C451.296 120.368 452.834 120.964 454.3 121.71V121.71Z" fill="#6C63FF"/>
<path opacity="0.5" d="M442.34 144.72C445.34 147.53 440.66 150.84 437.5 148.15C436.67 147.44 435.89 146.7 435.14 145.99C425.97 137.39 413.86 131.26 401.8 125.62C398.8 124.24 386.65 122.82 383.4 122.9C391.9 123.66 409.25 126.31 416.97 129.82C424.533 133.42 431.846 137.522 438.86 142.1C440.098 142.864 441.263 143.741 442.34 144.72V144.72Z" fill="#6C63FF"/>
<path opacity="0.3" d="M406.9 186.05C407.27 190.14 401.56 189.48 401.01 185.37C400.87 184.29 400.78 183.21 400.69 182.19C399.6 169.66 394.69 157.02 389.44 144.77C388.15 141.77 380.02 132.58 377.54 130.47C383.37 136.7 394.54 150.26 397.94 158.02C401.174 165.745 403.883 173.68 406.05 181.77C406.471 183.166 406.756 184.599 406.9 186.05V186.05Z" fill="#6C63FF"/>
<path opacity="0.3" d="M410.33 47.52C410.224 47.5847 410.104 47.6225 409.98 47.63C409.868 47.6054 409.765 47.5517 409.681 47.4744C409.597 47.3972 409.534 47.2991 409.5 47.19C408.99 46.08 409.28 44.64 408.5 43.7C407.704 44.6628 407.059 45.742 406.59 46.9L403.59 45.97C403.452 46.5542 403.432 47.1599 403.53 47.7521C403.627 48.3443 403.842 48.9112 404.16 49.42C403.631 49.6608 403.152 50.0002 402.75 50.42C402.549 50.6262 402.409 50.8833 402.344 51.1635C402.279 51.4437 402.291 51.7364 402.38 52.01C403.073 52.1797 403.787 52.2504 404.5 52.22C404.386 53.5575 404.464 54.9044 404.73 56.22C404.737 56.3157 404.762 56.4091 404.805 56.4949C404.848 56.5807 404.908 56.6572 404.98 56.72C405.103 56.7688 405.236 56.7834 405.367 56.7623C405.497 56.7411 405.619 56.6851 405.72 56.6C406.76 55.9603 407.613 55.0563 408.19 53.98L409.31 56.65C409.389 56.9269 409.567 57.1652 409.81 57.32C409.979 57.3778 410.162 57.3778 410.33 57.3198C410.498 57.2618 410.643 57.1493 410.74 57C410.926 56.6958 411.042 56.3543 411.08 56L411.49 53.46C411.498 53.3285 411.547 53.2027 411.63 53.1C411.76 53.0055 411.919 52.9595 412.08 52.97C413.14 52.97 414.2 52.97 415.26 52.97C415.44 52.41 414.88 51.88 414.34 51.65C413.8 51.42 413.15 51.23 412.88 50.7C412.32 49.63 413.76 48.14 413.15 47.21C412.54 46.28 411.26 47.06 410.33 47.52Z" fill="#6C63FF"/>
<path opacity="0.2" d="M419.4 171.31C419.293 171.372 419.173 171.406 419.05 171.41C418.82 171.41 418.66 171.18 418.56 170.98C418.05 169.87 418.35 168.42 417.56 167.49C416.758 168.449 416.113 169.529 415.65 170.69L412.65 169.76C412.508 170.344 412.485 170.95 412.583 171.543C412.681 172.136 412.897 172.703 413.22 173.21C412.688 173.451 412.206 173.79 411.8 174.21C411.598 174.415 411.458 174.673 411.394 174.954C411.33 175.235 411.346 175.528 411.44 175.8C412.133 175.97 412.847 176.04 413.56 176.01C413.443 177.347 413.517 178.694 413.78 180.01C413.797 180.204 413.891 180.384 414.04 180.51C414.163 180.559 414.296 180.573 414.427 180.552C414.557 180.531 414.679 180.475 414.78 180.39C415.816 179.745 416.667 178.842 417.25 177.77L418.37 180.44C418.452 180.713 418.625 180.949 418.86 181.11C419.031 181.168 419.216 181.166 419.387 181.107C419.557 181.047 419.702 180.932 419.8 180.78C419.984 180.476 420.097 180.134 420.13 179.78L420.55 177.24C420.558 177.108 420.607 176.983 420.69 176.88C420.817 176.786 420.973 176.74 421.13 176.75C422.19 176.75 423.26 176.75 424.32 176.75C424.5 176.19 423.93 175.66 423.39 175.42C422.85 175.18 422.21 175.01 421.93 174.48C421.38 173.41 422.81 171.91 422.2 170.99C421.48 169.78 420.33 170.85 419.4 171.31Z" fill="#6C63FF"/>
<path opacity="0.3" d="M444.87 88.33C444.764 88.3947 444.644 88.4325 444.52 88.44C444.408 88.4153 444.305 88.3617 444.221 88.2844C444.137 88.2072 444.074 88.1091 444.04 88C443.52 86.89 443.82 85.45 443.04 84.51C442.238 85.4724 441.593 86.5558 441.13 87.72L438.13 86.79C437.99 87.3724 437.969 87.9769 438.067 88.5677C438.164 89.1586 438.38 89.7238 438.7 90.23C438.171 90.4708 437.692 90.8102 437.29 91.23C437.089 91.4362 436.949 91.6933 436.884 91.9735C436.819 92.2537 436.831 92.5464 436.92 92.82C437.613 92.9897 438.327 93.0604 439.04 93.03C438.926 94.3509 439.003 95.6813 439.27 96.98C439.276 97.0773 439.301 97.1724 439.344 97.2599C439.387 97.3475 439.447 97.4256 439.52 97.49C439.74 97.63 440.03 97.49 440.26 97.36C441.298 96.717 442.149 95.8138 442.73 94.74L443.85 97.41C443.929 97.6869 444.107 97.9252 444.35 98.08C444.519 98.1378 444.702 98.1378 444.87 98.0798C445.038 98.0218 445.183 97.9093 445.28 97.76C445.467 97.4565 445.583 97.1147 445.62 96.76L446.03 94.22C446.038 94.0884 446.087 93.9627 446.17 93.86C446.3 93.7655 446.459 93.7195 446.62 93.73C447.68 93.73 448.74 93.73 449.8 93.73C449.98 93.17 449.42 92.65 448.87 92.41C448.32 92.17 447.69 91.99 447.42 91.41C446.86 90.34 448.29 88.85 447.69 87.92C447 86.8 445.8 87.87 444.87 88.33Z" fill="#6C63FF"/>
<path opacity="0.3" d="M343 183.72C342.852 183.812 342.684 183.863 342.51 183.87C342.19 183.87 341.97 183.55 341.84 183.26C341.13 181.71 341.54 179.7 340.44 178.4C339.326 179.739 338.429 181.244 337.78 182.86L333.59 181.57C333.394 182.382 333.362 183.226 333.498 184.05C333.634 184.875 333.934 185.664 334.38 186.37C333.634 186.685 332.955 187.14 332.38 187.71C332.1 187.996 331.903 188.353 331.811 188.742C331.72 189.132 331.736 189.539 331.86 189.92C332.841 190.163 333.851 190.264 334.86 190.22C334.706 192.059 334.814 193.911 335.18 195.72C335.19 195.855 335.226 195.987 335.288 196.107C335.35 196.227 335.436 196.334 335.54 196.42C335.84 196.62 336.25 196.42 336.54 196.25C337.988 195.358 339.175 194.099 339.98 192.6L341.54 196.32C341.653 196.705 341.901 197.035 342.24 197.25C342.476 197.332 342.732 197.332 342.968 197.251C343.204 197.169 343.405 197.01 343.54 196.8C343.798 196.371 343.955 195.889 344 195.39L344.59 191.85C344.595 191.667 344.662 191.49 344.78 191.35C344.955 191.211 345.178 191.146 345.4 191.17C346.88 191.17 348.35 191.11 349.83 191.12C350.08 190.34 349.3 189.61 348.55 189.28C347.8 188.95 346.89 188.7 346.55 187.96C345.78 186.47 347.78 184.38 346.93 183.09C345.94 181.59 344.33 183.08 343 183.72Z" fill="#6C63FF"/>
<path opacity="0.3" d="M300.66 90.81C300.512 90.9017 300.344 90.9534 300.17 90.96C299.85 90.96 299.63 90.64 299.5 90.35C298.79 88.8 299.2 86.79 298.1 85.48C296.984 86.8209 296.086 88.3294 295.44 89.95L291.25 88.65C291.051 89.462 291.018 90.3059 291.154 91.1308C291.289 91.9558 291.591 92.7447 292.04 93.45C291.296 93.7692 290.618 94.2236 290.04 94.79C289.759 95.0772 289.562 95.436 289.47 95.8274C289.378 96.2187 289.396 96.6278 289.52 97.01C290.502 97.2427 291.511 97.3436 292.52 97.31C292.366 99.1492 292.474 101.001 292.84 102.81C292.862 103.08 292.987 103.33 293.19 103.51C293.357 103.573 293.537 103.591 293.713 103.561C293.889 103.531 294.054 103.455 294.19 103.34C295.639 102.444 296.825 101.181 297.63 99.68L299.19 103.4C299.3 103.786 299.545 104.12 299.88 104.34C300.118 104.422 300.377 104.421 300.615 104.337C300.853 104.254 301.055 104.093 301.19 103.88C301.451 103.452 301.608 102.969 301.65 102.47L302.23 98.93C302.243 98.7467 302.313 98.572 302.43 98.43C302.609 98.2979 302.828 98.234 303.05 98.25C304.52 98.25 306 98.25 307.48 98.25C307.73 97.46 306.95 96.73 306.19 96.4C305.43 96.07 304.54 95.82 304.19 95.09C303.42 93.59 305.42 91.51 304.57 90.22C303.57 88.68 302 90.17 300.66 90.81Z" fill="#6C63FF"/>
<path opacity="0.2" d="M429.23 148.35C429.15 148.396 429.062 148.423 428.97 148.43C428.8 148.43 428.69 148.26 428.61 148.1C428.24 147.28 428.45 146.21 427.87 145.52C427.278 146.231 426.802 147.03 426.46 147.89L424.23 147.2C424.125 147.631 424.109 148.08 424.181 148.518C424.253 148.956 424.413 149.375 424.65 149.75C424.277 149.929 423.938 150.173 423.65 150.47C423.503 150.622 423.399 150.811 423.352 151.017C423.304 151.224 423.314 151.439 423.38 151.64C423.893 151.768 424.422 151.822 424.95 151.8C424.871 152.777 424.929 153.759 425.12 154.72C425.126 154.791 425.145 154.861 425.178 154.924C425.211 154.988 425.255 155.044 425.31 155.09C425.47 155.2 425.69 155.09 425.85 155C426.624 154.531 427.257 153.86 427.68 153.06L428.51 155.06C428.571 155.262 428.702 155.436 428.88 155.55C429.005 155.597 429.142 155.599 429.269 155.555C429.395 155.511 429.501 155.424 429.57 155.31C429.714 155.088 429.8 154.834 429.82 154.57L430.13 152.68C430.133 152.584 430.168 152.493 430.23 152.42C430.325 152.35 430.442 152.315 430.56 152.32C431.34 152.32 432.13 152.32 432.91 152.32C433.05 151.9 432.63 151.51 432.23 151.32C431.83 151.13 431.35 151.01 431.15 150.62C430.74 149.83 431.8 148.72 431.35 148.03C430.9 147.34 429.92 148.01 429.23 148.35Z" fill="#6C63FF"/>
<path opacity="0.2" d="M371.68 181.58C371.597 181.626 371.505 181.653 371.41 181.66C371.25 181.66 371.13 181.49 371.06 181.33C370.68 180.51 370.9 179.44 370.31 178.75C369.718 179.461 369.242 180.26 368.9 181.12L366.67 180.43C366.568 180.862 366.552 181.309 366.624 181.747C366.696 182.185 366.855 182.604 367.09 182.98C366.718 183.161 366.379 183.404 366.09 183.7C365.939 183.85 365.833 184.038 365.783 184.245C365.734 184.452 365.743 184.668 365.81 184.87C366.326 184.998 366.858 185.052 367.39 185.03C367.303 186.006 367.357 186.989 367.55 187.95C367.556 188.021 367.575 188.091 367.608 188.154C367.641 188.218 367.685 188.274 367.74 188.32C367.831 188.359 367.931 188.371 368.028 188.355C368.125 188.339 368.216 188.296 368.29 188.23C369.059 187.755 369.69 187.086 370.12 186.29L370.94 188.29C371.004 188.491 371.134 188.664 371.31 188.78C371.437 188.826 371.575 188.827 371.702 188.783C371.83 188.74 371.938 188.654 372.01 188.54C372.146 188.315 372.228 188.062 372.25 187.8L372.56 185.91C372.572 185.817 372.606 185.727 372.66 185.65C372.757 185.583 372.872 185.548 372.99 185.55C373.78 185.55 374.56 185.55 375.35 185.55C375.48 185.13 375.07 184.75 374.66 184.55C374.25 184.35 373.79 184.24 373.59 183.85C373.18 183.06 374.23 181.95 373.78 181.26C373.33 180.57 372.36 181.24 371.68 181.58Z" fill="#6C63FF"/>
<path opacity="0.5" d="M316 65.27C315.92 65.3159 315.832 65.3433 315.74 65.35C315.57 65.35 315.46 65.18 315.39 65.03C315.01 64.2 315.23 63.14 314.64 62.44C314.05 63.1519 313.574 63.9515 313.23 64.81L311 64.13C310.896 64.5599 310.879 65.0064 310.951 65.4428C311.023 65.8792 311.183 66.2966 311.42 66.67C311.03 66.8463 310.675 67.09 310.37 67.39C310.223 67.5418 310.119 67.7311 310.072 67.9373C310.024 68.1436 310.034 68.3589 310.1 68.56C310.613 68.6873 311.142 68.7412 311.67 68.72C311.591 69.6965 311.649 70.6792 311.84 71.64C311.853 71.7861 311.921 71.9219 312.03 72.02C312.12 72.0545 312.217 72.0643 312.312 72.0485C312.407 72.0327 312.496 71.9918 312.57 71.93C313.349 71.4399 313.981 70.749 314.4 69.93L315.23 71.93C315.288 72.1366 315.419 72.3146 315.6 72.43C315.725 72.4715 315.861 72.4705 315.986 72.4271C316.111 72.3837 316.217 72.3004 316.29 72.19C316.432 71.9636 316.518 71.7064 316.54 71.44L316.85 69.56C316.856 69.462 316.89 69.368 316.95 69.29C317.046 69.2215 317.162 69.1864 317.28 69.19C318.07 69.19 318.85 69.19 319.64 69.19C319.77 68.77 319.35 68.39 318.95 68.19C318.55 67.99 318.07 67.88 317.87 67.49C317.46 66.7 318.52 65.59 318.07 64.91C317.62 64.23 316.66 64.93 316 65.27Z" fill="#6C63FF"/>
<path opacity="0.5" d="M345.62 130.81C345.542 130.86 345.452 130.888 345.36 130.89C345.19 130.89 345.07 130.72 345 130.57C344.62 129.75 344.84 128.68 344.26 127.98C343.668 128.696 343.189 129.499 342.84 130.36L340.62 129.67C340.516 130.102 340.5 130.55 340.572 130.988C340.644 131.426 340.803 131.845 341.04 132.22C340.647 132.387 340.291 132.628 339.99 132.93C339.841 133.083 339.737 133.274 339.689 133.482C339.641 133.69 339.652 133.908 339.72 134.11C340.233 134.235 340.762 134.286 341.29 134.26C341.206 135.24 341.263 136.226 341.46 137.19C341.473 137.333 341.541 137.466 341.65 137.56C341.74 137.594 341.837 137.604 341.932 137.588C342.027 137.573 342.116 137.532 342.19 137.47C342.956 136.992 343.58 136.319 344 135.52L344.83 137.52C344.887 137.727 345.019 137.905 345.2 138.02C345.325 138.062 345.461 138.06 345.586 138.017C345.71 137.974 345.817 137.89 345.89 137.78C346.028 137.552 346.113 137.295 346.14 137.03L346.45 135.15C346.451 135.051 346.487 134.956 346.55 134.88C346.644 134.809 346.763 134.776 346.88 134.79C347.66 134.79 348.45 134.79 349.23 134.79C349.37 134.38 348.95 133.99 348.55 133.79C348.15 133.59 347.67 133.48 347.47 133.1C347.06 132.3 348.12 131.19 347.67 130.51C347.22 129.83 346.31 130.52 345.62 130.81Z" fill="#6C63FF"/>
<path opacity="0.5" d="M324.1 105.26C324.022 105.31 323.932 105.338 323.84 105.34C323.67 105.34 323.56 105.17 323.49 105.02C323.11 104.19 323.33 103.13 322.74 102.43C322.147 103.144 321.672 103.947 321.33 104.81L319.1 104.12C318.996 104.552 318.98 105 319.052 105.438C319.124 105.876 319.283 106.295 319.52 106.67C319.145 106.841 318.805 107.082 318.52 107.38C318.369 107.532 318.263 107.722 318.213 107.93C318.164 108.139 318.173 108.357 318.24 108.56C318.754 108.679 319.282 108.729 319.81 108.71C319.731 109.69 319.789 110.676 319.98 111.64C319.993 111.783 320.062 111.916 320.17 112.01C320.26 112.044 320.357 112.054 320.452 112.038C320.547 112.023 320.636 111.982 320.71 111.92C321.482 111.445 322.117 110.776 322.55 109.98L323.37 111.98C323.427 112.187 323.559 112.365 323.74 112.48C323.865 112.522 324.001 112.521 324.126 112.477C324.25 112.434 324.357 112.35 324.43 112.24C324.572 112.014 324.658 111.756 324.68 111.49L324.99 109.61C324.996 109.512 325.03 109.418 325.09 109.34C325.185 109.27 325.303 109.237 325.42 109.25C326.21 109.25 326.99 109.25 327.78 109.25C327.91 108.84 327.49 108.45 327.09 108.25C326.69 108.05 326.21 107.94 326.01 107.55C325.6 106.76 326.66 105.65 326.21 104.97C325.76 104.29 324.79 104.92 324.1 105.26Z" fill="#6C63FF"/>
<path opacity="0.5" d="M416.52 111.28C416.44 111.326 416.352 111.353 416.26 111.36C416.09 111.36 415.97 111.19 415.9 111.03C415.52 110.21 415.74 109.14 415.16 108.45C414.565 109.16 414.085 109.96 413.74 110.82L411.52 110.13C411.413 110.561 411.395 111.01 411.467 111.448C411.54 111.887 411.7 112.306 411.94 112.68C411.551 112.854 411.196 113.094 410.89 113.39C410.741 113.543 410.636 113.734 410.589 113.942C410.541 114.15 410.552 114.368 410.62 114.57C411.133 114.698 411.662 114.752 412.19 114.73C412.103 115.706 412.157 116.689 412.35 117.65C412.355 117.722 412.376 117.793 412.41 117.857C412.445 117.92 412.492 117.976 412.55 118.02C412.71 118.13 412.92 118.02 413.09 117.93C413.859 117.454 414.49 116.786 414.92 115.99L415.75 117.99C415.806 118.195 415.939 118.37 416.12 118.48C416.245 118.525 416.382 118.526 416.508 118.482C416.633 118.439 416.74 118.353 416.81 118.24C416.948 118.012 417.03 117.755 417.05 117.49L417.36 115.61C417.371 115.515 417.409 115.424 417.47 115.35C417.563 115.276 417.681 115.24 417.8 115.25C418.58 115.25 419.37 115.25 420.15 115.25C420.28 114.83 419.87 114.44 419.47 114.25C419.07 114.06 418.59 113.94 418.39 113.55C417.98 112.75 419.04 111.65 418.59 110.96C418.14 110.27 417.2 110.94 416.52 111.28Z" fill="#6C63FF"/>
<path opacity="0.2" d="M371.68 106.25C371.597 106.296 371.505 106.323 371.41 106.33C371.25 106.33 371.13 106.16 371.06 106.01C370.68 105.18 370.9 104.12 370.31 103.42C369.72 104.132 369.244 104.932 368.9 105.79L366.67 105.11C366.568 105.542 366.553 105.989 366.625 106.427C366.697 106.865 366.855 107.284 367.09 107.66C366.716 107.833 366.377 108.074 366.09 108.37C365.939 108.522 365.833 108.712 365.784 108.92C365.734 109.129 365.743 109.347 365.81 109.55C366.328 109.67 366.859 109.72 367.39 109.7C367.303 110.676 367.357 111.659 367.55 112.62C367.546 112.708 367.57 112.794 367.618 112.867C367.665 112.941 367.735 112.998 367.816 113.029C367.898 113.061 367.987 113.067 368.072 113.046C368.157 113.024 368.233 112.977 368.29 112.91C369.055 112.429 369.685 111.762 370.12 110.97L370.94 112.97C371.001 113.175 371.132 113.352 371.31 113.47C371.437 113.511 371.574 113.509 371.7 113.466C371.826 113.423 371.935 113.34 372.01 113.23C372.145 113.001 372.227 112.745 372.25 112.48L372.56 110.6C372.57 110.503 372.605 110.41 372.66 110.33C372.756 110.261 372.873 110.229 372.99 110.24C373.78 110.24 374.56 110.24 375.35 110.24C375.48 109.83 375.07 109.44 374.66 109.24C374.25 109.04 373.79 108.93 373.59 108.54C373.18 107.75 374.23 106.64 373.78 105.96C373.33 105.28 372.36 105.91 371.68 106.25Z" fill="#6C63FF"/>
<path opacity="0.3" d="M357.6 112.37C357.522 112.42 357.432 112.448 357.34 112.45C357.17 112.45 357.06 112.28 356.99 112.13C356.61 111.3 356.83 110.24 356.24 109.54C355.647 110.254 355.172 111.057 354.83 111.92L352.6 111.23C352.496 111.662 352.48 112.11 352.552 112.548C352.624 112.986 352.783 113.405 353.02 113.78C352.647 113.954 352.308 114.195 352.02 114.49C351.873 114.644 351.77 114.835 351.722 115.043C351.675 115.25 351.684 115.467 351.75 115.67C352.264 115.789 352.792 115.839 353.32 115.82C353.241 116.8 353.299 117.786 353.49 118.75C353.503 118.893 353.572 119.026 353.68 119.12C353.77 119.154 353.867 119.164 353.962 119.148C354.057 119.133 354.146 119.092 354.22 119.03C354.992 118.557 355.623 117.888 356.05 117.09L356.88 119.09C356.938 119.297 357.069 119.475 357.25 119.59C357.375 119.632 357.511 119.631 357.636 119.587C357.761 119.544 357.867 119.46 357.94 119.35C358.082 119.124 358.168 118.866 358.19 118.6L358.5 116.72C358.501 116.621 358.537 116.526 358.6 116.45C358.695 116.38 358.813 116.347 358.93 116.36C359.72 116.36 360.5 116.36 361.29 116.36C361.42 115.95 361 115.56 360.6 115.36C360.2 115.16 359.72 115.05 359.52 114.67C359.11 113.87 360.17 112.76 359.72 112.08C359.27 111.4 358.29 112.03 357.6 112.37Z" fill="#6C63FF"/>
<path opacity="0.2" d="M344.49 75.33C344.412 75.3777 344.322 75.4019 344.23 75.4C344.06 75.4 343.94 75.23 343.87 75.08C343.49 74.26 343.71 73.19 343.13 72.5C342.535 73.2101 342.055 74.01 341.71 74.87L339.49 74.18C339.383 74.6113 339.365 75.0598 339.437 75.4982C339.51 75.9367 339.67 76.3558 339.91 76.73C339.517 76.8966 339.161 77.1377 338.86 77.44C338.711 77.5928 338.606 77.7838 338.559 77.992C338.511 78.2002 338.522 78.4175 338.59 78.62C339.104 78.7434 339.632 78.7972 340.16 78.78C340.073 79.756 340.127 80.7393 340.32 81.7C340.326 81.7721 340.347 81.8421 340.382 81.9057C340.416 81.9693 340.463 82.0252 340.52 82.07C340.68 82.17 340.89 82.07 341.06 81.98C341.827 81.502 342.458 80.8337 342.89 80.04L343.72 82.04C343.776 82.2417 343.904 82.416 344.08 82.53C344.207 82.574 344.345 82.5743 344.471 82.5308C344.598 82.4873 344.707 82.4025 344.78 82.29C344.912 82.0539 344.988 81.7903 345 81.52L345.31 79.64C345.319 79.5411 345.357 79.4471 345.42 79.37C345.514 79.2987 345.633 79.2665 345.75 79.28C346.53 79.28 347.32 79.28 348.1 79.28C348.23 78.86 347.82 78.47 347.42 78.28C347.02 78.09 346.54 77.98 346.34 77.59C345.93 76.79 346.99 75.69 346.54 75C346.09 74.31 345.17 74.98 344.49 75.33Z" fill="#6C63FF"/>
<path opacity="0.3" d="M370.33 123.67C370.247 123.716 370.155 123.743 370.06 123.75C369.89 123.75 369.78 123.58 369.71 123.42C369.33 122.6 369.55 121.53 368.96 120.84C368.368 121.551 367.892 122.35 367.55 123.21L365.32 122.52C365.218 122.952 365.202 123.399 365.274 123.837C365.346 124.275 365.505 124.694 365.74 125.07C365.366 125.248 365.028 125.492 364.74 125.79C364.589 125.94 364.483 126.128 364.433 126.335C364.384 126.542 364.393 126.758 364.46 126.96C364.973 127.087 365.502 127.141 366.03 127.12C365.951 128.097 366.009 129.079 366.2 130.04C366.206 130.111 366.225 130.181 366.258 130.244C366.291 130.308 366.335 130.364 366.39 130.41C366.479 130.449 366.577 130.461 366.673 130.445C366.769 130.429 366.858 130.386 366.93 130.32C367.704 129.848 368.339 129.178 368.77 128.38L369.59 130.38C369.651 130.582 369.782 130.756 369.96 130.87C370.086 130.915 370.223 130.917 370.349 130.875C370.476 130.833 370.586 130.751 370.66 130.64C370.795 130.411 370.877 130.155 370.9 129.89L371.21 128C371.217 127.905 371.252 127.815 371.31 127.74C371.406 127.671 371.522 127.636 371.64 127.64C372.43 127.64 373.21 127.64 374 127.64C374.13 127.22 373.71 126.84 373.31 126.64C372.91 126.44 372.43 126.33 372.23 125.94C371.82 125.15 372.88 124.04 372.43 123.36C371.98 122.68 371 123.33 370.33 123.67Z" fill="#6C63FF"/>
</g>
<g opacity="0.1">
<path opacity="0.1" d="M138.55 438.03C138.12 438.03 137.7 438.03 137.28 437.98H137V435.92C137.626 436.536 138.149 437.248 138.55 438.03V438.03Z" fill="#222222"/>
</g>
<path opacity="0.1" d="M557 811.04C864.623 811.04 1114 782.834 1114 748.04C1114 713.246 864.623 685.04 557 685.04C249.377 685.04 0 713.246 0 748.04C0 782.834 249.377 811.04 557 811.04Z" fill="#A445B2"/>
<path d="M838.27 541.27C815.79 614.62 806.76 754.62 806.76 754.62H263.47C265.23 688.04 226.34 550.15 225.16 539.54C224.16 530.69 260.16 484.87 272.07 469.98C273.239 468.517 274.722 467.336 276.41 466.526C278.098 465.716 279.948 465.297 281.82 465.3H772.88C775.423 465.301 777.906 466.076 780 467.52C803.856 484.186 823.494 506.189 837.35 531.78C838.121 533.223 838.6 534.804 838.758 536.433C838.916 538.062 838.75 539.706 838.27 541.27V541.27Z" fill="#222222"/>
<path opacity="0.1" d="M732.53 620.4H320.47C314.688 620.4 310 625.088 310 630.87V660.61C310 666.392 314.688 671.08 320.47 671.08H732.53C738.312 671.08 743 666.392 743 660.61V630.87C743 625.088 738.312 620.4 732.53 620.4Z" fill="white"/>
<path d="M290 512.44C290 512.44 262.9 428.76 307.68 416.98C352.46 405.2 450.26 420.52 450.26 420.52C450.26 420.52 526.86 381.63 615.26 412.28C615.26 412.28 741.36 374.56 766.11 411.1C790.86 447.64 760.21 512.45 760.21 512.45L290 512.44Z" fill="#222222"/>
<path opacity="0.1" d="M270.54 540.13L292.93 495.35L311.79 582.56L312 623.04L270.54 540.13Z" fill="#FF0066"/>
<path opacity="0.1" d="M784.36 540.13L761.97 495.35L736 578.04L741 625.04L784.36 540.13Z" fill="#FF0066"/>
<path d="M310.14 580.18L736.05 577.84L740.76 624.98L311.79 623.81L310.14 580.18Z" fill="#222222"/>
<path opacity="0.1" d="M310.14 580.18L736.05 577.84L740.76 624.98L311.79 623.81L310.14 580.18Z" fill="#FF0066"/>
<path d="M622.37 57.28C619.714 54.313 617.387 51.0675 615.43 47.6C612.26 41.46 611.51 34.4 609.81 27.69C608.11 20.98 604.98 14.06 598.92 10.69C592.24 7.04 583.32 8.49 577.13 4.41C572.057 2.86082 566.89 1.63832 561.66 0.750003C556.3 -0.149997 550.66 -0.669997 545.58 1.32C537.9 4.32 533.58 12.24 528.08 18.44C520.586 26.8562 510.47 32.4943 499.37 34.44C507.914 36.5759 516.909 36.0135 525.12 32.83C523.401 38.9927 519.808 44.4686 514.84 48.5C520.081 49.1371 525.39 48.0937 530 45.52C529.44 51.46 528.883 57.4033 528.33 63.35C527.82 68.81 526.53 75.35 521.39 77.27C530.13 75.64 539.15 73.37 545.89 67.57C550.74 63.4 554.01 57.73 557.2 52.18C561.53 44.62 566 36.52 565.55 27.82C567.426 31.7348 570.554 34.9124 574.439 36.8503C578.324 38.7882 582.744 39.3757 587 38.52C578 47.06 576.51 60.64 575.57 73.01C575.34 76.01 575.13 79.13 576.16 82.01C576.98 84.0043 578.182 85.8186 579.7 87.35C584.19 92.24 589.9 95.81 595.53 99.35C596.524 100.079 597.669 100.575 598.88 100.8C600.309 100.818 601.72 100.474 602.98 99.8L603.65 99.52C599.775 93.4971 597.377 86.6447 596.65 79.52L625.53 92.01L627.89 91.39C626.175 87.2854 625.083 82.9475 624.65 78.52L646.26 87.87C649.07 87.49 651.9 87.18 654.73 86.95C641.56 80.23 631.77 68.6 622.37 57.28Z" fill="black"/>
<g opacity="0.05">
<path opacity="0.05" d="M528.32 63.37L528.2 64.52C529.416 61.6074 530.133 58.5107 530.32 55.36C530.88 49.4267 531.44 43.48 532 37.52C528.849 39.2982 525.347 40.3664 521.74 40.65C519.918 43.6709 517.587 46.3538 514.85 48.58C520.097 49.1907 525.402 48.1192 530 45.52C529.433 51.4734 528.873 57.4234 528.32 63.37Z" fill="#FF0066"/>
<path opacity="0.05" d="M527.12 24.93C524.069 26.1155 520.891 26.9443 517.65 27.4C512.09 30.9628 505.875 33.3832 499.37 34.52C507.218 36.4809 515.462 36.1687 523.14 33.62C524.915 30.9502 526.258 28.0176 527.12 24.93V24.93Z" fill="#FF0066"/>
<path opacity="0.05" d="M589 30.52C584.749 31.3756 580.334 30.7913 576.451 28.8593C572.569 26.9272 569.441 23.7574 567.56 19.85C567.685 23.0431 567.255 26.2337 566.29 29.28C568.021 32.1796 570.465 34.5878 573.39 36.2752C576.315 37.9627 579.623 38.8732 583 38.92C584.473 35.7785 586.506 32.9319 589 30.52V30.52Z" fill="#FF0066"/>
<path opacity="0.05" d="M559.19 44.2C556 49.75 552.73 55.42 547.88 59.59C542.21 64.46 534.88 66.84 527.56 68.45C526.68 72.35 524.97 75.94 521.38 77.29C530.12 75.66 539.14 73.39 545.88 67.59C550.73 63.42 554 57.75 557.19 52.2C560.86 45.79 564.62 38.99 565.41 31.77C563.666 36.07 561.586 40.2262 559.19 44.2V44.2Z" fill="#FF0066"/>
<path opacity="0.05" d="M626.64 70.4C626.958 73.7272 627.663 77.006 628.74 80.17L646.25 87.75C649.06 87.37 651.89 87.06 654.72 86.83C649.094 83.9017 643.907 80.1989 639.31 75.83L626.64 70.4Z" fill="#FF0066"/>
<path opacity="0.05" d="M597.51 91.26C591.88 87.75 586.17 84.18 581.68 79.26C580.162 77.7286 578.96 75.9143 578.14 73.92C577.14 71.09 577.32 67.92 577.55 64.92C577.844 60.4304 578.361 55.9582 579.1 51.52C576.83 58.29 576.1 65.86 575.55 73.03C575.32 76.03 575.11 79.15 576.14 82.03C576.96 84.0243 578.162 85.8386 579.68 87.37C584.17 92.26 589.88 95.83 595.51 99.37C596.504 100.099 597.649 100.595 598.86 100.82C600.289 100.838 601.7 100.494 602.96 99.82L603.63 99.54C602.202 97.3196 600.986 94.9691 600 92.52C599.12 92.2081 598.283 91.7847 597.51 91.26V91.26Z" fill="#FF0066"/>
<path opacity="0.05" d="M598.64 71.4C598.951 74.7274 599.652 78.0066 600.73 81.17L625.52 91.89L627.88 91.27C626.776 88.5775 625.922 85.7891 625.33 82.94L598.64 71.4Z" fill="#FF0066"/>
</g>
<path d="M491 111.52C488.76 112.79 487.58 115.32 486.75 117.75C482.83 129.19 483.47 141.63 481.68 153.59C480.2 163.47 477.05 173.09 476.35 183.05C475.89 189.64 476.49 196.37 474.79 202.75C473.553 206.859 471.77 210.784 469.49 214.42C465.322 221.52 460.615 228.29 455.41 234.67C450.57 240.61 447.47 247.35 441.49 252.14C437.49 255.39 432.44 257.76 429.76 262.2C426.25 268.01 427.76 275.51 430.29 281.82C431.4 284.66 432.86 287.65 435.6 288.99C438.34 290.33 441.51 289.66 443.99 288.08C446.395 286.37 448.412 284.172 449.91 281.63C454.27 275.04 457.56 267.8 461.83 261.15C464.73 256.64 468.07 252.43 471.41 248.22L476.61 241.66C481.9 234.99 487.23 228.28 493.61 222.66C494.942 221.574 496.087 220.277 497 218.82C497.829 217.091 498.305 215.215 498.4 213.3L501.25 188.76C502.34 179.31 504.3 169.68 505.85 160.29C507.63 149.54 509.36 138.21 505.58 127.99C502.862 120.923 497.685 115.075 491 111.52V111.52Z" fill="#FBB3B2"/>
<path opacity="0.05" d="M505.61 127.99C502.885 120.918 497.696 115.069 491 111.52C490.55 111.785 490.133 112.104 489.76 112.47C493.747 115.829 496.808 120.153 498.65 125.03C502.43 135.25 500.65 146.58 498.92 157.33C497.37 166.72 495.41 176.33 494.32 185.8L491.47 210.34C491.375 212.255 490.899 214.131 490.07 215.86C489.123 217.295 487.948 218.565 486.59 219.62C480.23 225.28 474.9 231.99 469.59 238.62L464.39 245.18C461.05 249.39 457.71 253.6 454.81 258.11C450.54 264.76 447.25 272 442.89 278.59C441.392 281.132 439.375 283.33 436.97 285.04C435.706 285.853 434.279 286.379 432.79 286.58C433.524 287.575 434.479 288.386 435.58 288.95C438.22 290.24 441.49 289.62 443.97 288.04C446.375 286.33 448.392 284.132 449.89 281.59C454.25 275 457.54 267.76 461.81 261.11C464.71 256.6 468.05 252.39 471.39 248.18L476.59 241.62C481.88 234.95 487.21 228.24 493.59 222.62C494.926 221.547 496.078 220.264 497 218.82C497.829 217.091 498.305 215.215 498.4 213.3L501.25 188.76C502.34 179.31 504.3 169.68 505.85 160.29C507.66 149.52 509.39 138.21 505.61 127.99Z" fill="#FF0066"/>
<path d="M589.11 328.4C588.6 331.4 588.2 335.4 585.74 337.14C583.88 338.47 582.02 339.8 580.18 341.14C576.273 343.953 572.616 347.098 569.25 350.54C567.38 352.54 565.66 354.62 563.78 356.54C561.67 358.74 559.39 360.76 557.09 362.76C548.32 370.37 540.09 379.66 530.09 385.62C513.58 395.5 496.87 405.53 483.44 419.3C482.519 420.028 481.808 420.987 481.379 422.08C480.951 423.173 480.82 424.36 481 425.52C481.17 430.52 482.49 435.65 483.32 440.62C484.79 449.44 481.98 458.35 479.22 466.85C475.22 479.01 473.61 491.78 467.9 503.22C463.49 512.05 459.05 520.98 456.8 530.58C455.595 536.314 454.793 542.124 454.4 547.97C453.912 552.114 453.759 556.291 453.94 560.46C454.19 564.11 456.48 567.18 457.87 570.56C459.34 574.13 457.56 578.36 454.71 580.97C451.86 583.58 448.12 584.97 444.56 586.43C441.28 587.797 438.067 589.307 434.92 590.96C431.78 592.62 428.61 594.49 426.53 597.37C424.12 600.71 423.38 605.14 420.53 608.11C417.53 611.26 412.82 612.06 408.46 612.38C401.199 612.911 393.902 612.609 386.71 611.48C385.022 611.322 383.392 610.785 381.94 609.91C381.226 609.454 380.67 608.788 380.348 608.004C380.026 607.221 379.953 606.357 380.14 605.53C380.77 603.53 383.09 602.81 385.09 602.33C390.33 601.06 396.37 599.63 401.61 598.33L405.06 587.33C406.013 584.024 407.172 580.781 408.53 577.62C409.89 574.62 411.6 571.73 413.12 568.78C418.79 557.84 422.17 545.41 425.07 533.43C428.01 521.209 429.619 508.707 429.87 496.14C429.99 489.96 429.78 483.77 430.23 477.61C430.89 468.61 432.94 459.78 434.23 450.85C435.52 441.92 434.94 431.66 434.47 422.65C434.098 414.732 435.329 406.82 438.091 399.39C440.852 391.959 445.087 385.163 450.54 379.41C454.43 375.36 458.88 371.89 462.91 367.99C467.349 363.492 471.536 358.752 475.45 353.79C493.94 331.43 513.78 309.95 536.93 292.45C542.68 288.1 549.62 287.27 556.29 284.52C560.641 282.727 565.235 281.591 569.92 281.15C570.446 281.062 570.986 281.107 571.49 281.28C572.005 281.565 572.433 281.983 572.73 282.49C572.83 282.64 572.94 282.79 573.03 282.94C580.49 293.86 584.29 306.81 587.97 319.52C588.77 322.43 589.61 325.44 589.11 328.4Z" fill="#FBB3B2"/>
<path opacity="0.05" d="M586.93 319.52C583.25 306.81 579.45 293.86 571.99 282.94C571.9 282.79 571.79 282.64 571.69 282.49C571.393 281.983 570.965 281.565 570.45 281.28C569.946 281.107 569.406 281.062 568.88 281.15C566.725 281.354 564.586 281.708 562.48 282.21L562.69 282.49C562.79 282.64 562.9 282.79 562.99 282.94C570.45 293.86 574.25 306.81 577.93 319.52C578.77 322.41 579.61 325.42 579.11 328.38C578.61 331.34 578.2 335.38 575.74 337.12C573.88 338.45 572.02 339.78 570.18 341.12C566.273 343.933 562.616 347.078 559.25 350.52C557.38 352.52 555.66 354.6 553.78 356.52C551.67 358.72 549.39 360.74 547.09 362.74C538.32 370.35 530.09 379.64 520.09 385.6C503.58 395.48 486.87 405.51 473.44 419.28C472.516 420.01 471.803 420.972 471.374 422.069C470.945 423.166 470.816 424.357 471 425.52C471.17 430.52 472.49 435.65 473.32 440.62C474.79 449.44 471.98 458.35 469.22 466.85C465.22 479.01 463.61 491.78 457.9 503.22C453.49 512.05 449.05 520.98 446.8 530.58C445.595 536.314 444.793 542.124 444.4 547.97C443.912 552.114 443.759 556.291 443.94 560.46C444.19 564.11 446.48 567.18 447.87 570.56C449.34 574.13 447.56 578.36 444.71 580.97C441.86 583.58 438.12 584.97 434.56 586.43C431.28 587.797 428.067 589.307 424.92 590.96C421.78 592.62 418.61 594.49 416.53 597.37C414.12 600.71 413.38 605.14 410.53 608.11C407.53 611.26 402.82 612.06 398.46 612.38L396 612.52C399.81 612.695 403.626 612.645 407.43 612.37C411.79 612.05 416.43 611.25 419.5 608.1C422.34 605.1 423.08 600.7 425.5 597.36C427.58 594.48 430.75 592.61 433.89 590.95C437.03 589.29 440.25 587.79 443.53 586.42C447.09 584.93 450.82 583.56 453.68 580.96C456.54 578.36 458.31 574.12 456.84 570.55C455.45 567.17 453.16 564.1 452.91 560.45C452.729 556.281 452.882 552.104 453.37 547.96C453.763 542.114 454.565 536.304 455.77 530.57C458.02 520.97 462.46 512.04 466.87 503.21C472.58 491.77 474.23 479 478.19 466.84C480.95 458.34 483.76 449.43 482.29 440.61C481.46 435.61 480.14 430.55 479.97 425.51C479.805 424.356 479.948 423.179 480.383 422.097C480.819 421.016 481.532 420.068 482.45 419.35C495.88 405.58 512.59 395.55 529.1 385.67C539.1 379.67 547.3 370.42 556.1 362.81C558.4 360.81 560.68 358.81 562.79 356.59C564.67 354.59 566.39 352.52 568.26 350.59C571.626 347.148 575.283 344.003 579.19 341.19C581.03 339.83 582.89 338.5 584.75 337.19C587.21 335.43 587.61 331.43 588.12 328.45C588.63 325.47 587.77 322.43 586.93 319.52Z" fill="#FF0066"/>
<path d="M571.14 295.9L582.14 317.9C582.14 317.9 585.14 396.9 589.14 409.9C590.498 414.37 591.613 418.91 592.48 423.5C594.349 433.284 596.729 442.964 599.61 452.5C600.635 455.588 601.48 458.734 602.14 461.92C602.14 463.92 605.88 483.92 607.14 491.92C608.64 501.42 621.64 536.42 623.64 549.42C625.64 562.42 626.14 570.92 624.14 584.92C622.14 598.92 625.14 607.92 653.14 607.92C681.14 607.92 659.14 597.92 659.14 597.92C659.14 597.92 649.64 590.42 647.64 566.42C646.33 550.67 647.81 540.74 648.99 535.77C650.303 530.345 651.186 524.824 651.63 519.26C653.113 500.12 651.581 480.865 647.09 462.2C640.892 437.202 638.502 411.411 640 385.7C641 367.23 643.12 348.5 647.19 337.9C657.19 311.9 654.19 253.9 638.19 247.9C622.19 241.9 589.19 247.9 589.19 247.9L571.14 295.9Z" fill="#FBB3B2"/>
<path opacity="0.05" d="M659.14 597.9C659.14 597.9 649.64 590.4 647.64 566.4C646.33 550.65 647.81 540.72 648.99 535.75C650.303 530.325 651.186 524.804 651.63 519.24C653.113 500.1 651.581 480.845 647.09 462.18C640.894 437.188 638.504 411.405 640 385.7C641 367.23 643.12 348.5 647.19 337.9C657.19 311.9 654.19 253.9 638.19 247.9C632.19 245.66 623.85 245.09 615.72 245.26C622.17 245.4 628.43 246.12 633.19 247.9C649.19 253.9 652.19 311.9 642.19 337.9C638.12 348.5 636.03 367.23 635 385.7C633.52 411.407 635.927 437.191 642.14 462.18C646.631 480.845 648.163 500.1 646.68 519.24C646.223 524.805 645.326 530.326 644 535.75C642.82 540.75 641.34 550.65 642.65 566.4C644.65 590.4 654.15 597.9 654.15 597.9C654.15 597.9 674.83 607.3 650.56 607.9C651.4 607.9 652.26 607.9 653.15 607.9C681.14 607.9 659.14 597.9 659.14 597.9Z" fill="#FF0066"/>
<path d="M496.66 169.8C495.8 203.493 507.023 236.381 528.3 262.52L572.06 234.37C581.32 228.37 590.62 222.43 600.49 217.53C601.7 216.92 602.61 215.19 603.68 214.36C594.51 210.11 588.97 200.23 587.27 190.27C585.57 180.31 587.12 170.1 588.67 160.11C577.5 156.9 565.8 155.98 554.19 155.75C533.49 155.32 513.1 157.23 496.66 169.8Z" fill="#FBB3B2"/>
<path opacity="0.05" d="M587.27 190.26C585.57 180.26 587.12 170.09 588.67 160.1C577.5 156.89 565.8 155.97 554.19 155.74C551.43 155.68 548.683 155.68 545.95 155.74H547.19C558.8 155.97 570.5 156.89 581.67 160.1C580.12 170.1 578.57 180.29 580.27 190.26C581.97 200.23 587.51 210.1 596.68 214.35C595.61 215.18 594.68 216.91 593.49 217.52C583.62 222.42 574.32 228.4 565.06 234.36L525.93 259.52C526.71 260.52 527.49 261.52 528.3 262.52L572.06 234.37C581.32 228.37 590.62 222.43 600.49 217.53C601.7 216.92 602.61 215.19 603.68 214.36C594.51 210.1 589 200.22 587.27 190.26Z" fill="#FF0066"/>
<path d="M538.36 74.52C536.57 79.59 535.89 85.02 534.04 90.08C533.781 90.9594 533.307 91.7602 532.66 92.41C531.72 93.0457 530.615 93.3933 529.48 93.41L522.48 94.21C522.96 99.88 526.89 104.84 531.75 107.8C542.6 114.42 556.87 111.96 568.15 106.12C574.22 102.99 580.33 98.12 581.15 91.38C579.15 92.87 576.15 91.66 574.86 89.53C573.57 87.4 573.72 84.75 574.05 82.3C574.632 77.995 575.778 73.7854 577.46 69.78C577.793 69.1693 577.933 68.4718 577.86 67.78C577.56 66.5 575.97 66.1 574.66 65.94C566.72 65 558.08 62.94 550.1 63.03C545.44 63.09 538.36 68.9 538.36 74.52Z" fill="#FBB3B2"/>
<path opacity="0.05" d="M538.36 74.52C536.57 79.59 535.89 85.02 534.04 90.08C533.781 90.9594 533.307 91.7602 532.66 92.41C531.72 93.0457 530.615 93.3933 529.48 93.41L522.48 94.21C522.96 99.88 526.89 104.84 531.75 107.8C542.6 114.42 556.87 111.96 568.15 106.12C574.22 102.99 580.33 98.12 581.15 91.38C579.15 92.87 576.15 91.66 574.86 89.53C573.57 87.4 573.72 84.75 574.05 82.3C574.632 77.995 575.778 73.7854 577.46 69.78C577.793 69.1693 577.933 68.4718 577.86 67.78C577.56 66.5 575.97 66.1 574.66 65.94C566.72 65 558.08 62.94 550.1 63.03C545.44 63.09 538.36 68.9 538.36 74.52Z" fill="#FF0066"/>
<path d="M570.14 77.9C587.261 77.9 601.14 64.0208 601.14 46.9C601.14 29.7792 587.261 15.9 570.14 15.9C553.019 15.9 539.14 29.7792 539.14 46.9C539.14 64.0208 553.019 77.9 570.14 77.9Z" fill="#FBB3B2"/>
<path d="M548.83 103.46C546.34 105.03 542.94 103.98 540.7 102.06C538.46 100.14 537 97.52 535 95.28C533 93.04 530.31 91.15 527.39 91.53C525.08 91.84 523.2 93.53 521.04 94.37C515.04 96.83 507.57 92.99 501.77 95.99C499.25 97.29 497.5 99.68 495.7 101.88C491.822 106.609 487.29 110.76 482.24 114.21C486.67 117.89 491.31 122.34 491.67 128.09C492.13 135.43 485.59 141.01 481.67 147.22C477.95 153.1 476.43 160.57 478.55 167.22C480.67 173.87 486.78 179.28 493.73 179.68C502.47 172.86 513.17 168.34 524.26 168.17C527.506 168.057 530.75 168.441 533.88 169.31C536.498 170.201 539.051 171.273 541.52 172.52C557.066 179.662 574.074 183.046 591.17 182.4C588.7 175.4 594.48 168.07 597.4 161.27C599.56 156.22 600.4 150.72 602.02 145.49C606.16 132.575 615.166 121.779 627.13 115.39C624.64 106.87 617.71 99.82 610.27 95C608.408 93.7451 606.391 92.7367 604.27 92C599.99 90.6 595.38 90.68 590.88 90.78L580.11 91.01C579.234 90.991 578.36 91.0885 577.51 91.3C576.362 91.7438 575.3 92.3833 574.37 93.19C566.9 98.75 556.71 98.52 548.83 103.46Z" fill="#EEEFF3"/>
<path d="M600.35 31.46C599.11 28.18 597.91 24.81 595.84 21.98C592.31 17.16 586.67 14.43 581.16 12.14C579.72 11.54 578.16 10.96 576.65 11.48C575.567 11.976 574.665 12.7975 574.07 13.83C572.63 9.04 567.4 7.3 562.72 8.09C553.21 9.7 546.72 18.27 541.16 26.18L532 39.25C529.9 42.25 527.69 45.76 528.47 49.34C535.829 49.0373 543.073 47.4043 549.85 44.52C545.29 53.37 538.06 60.52 530.94 67.52C539.7 65.83 547.34 60.28 553.18 53.52C559.02 46.76 563.27 38.82 567.48 30.95C568.82 28.44 571.07 25.37 572.64 22.21L592.47 42.52C602.99 53.35 613.69 64.33 626.75 71.92C614 61.78 606.14 46.71 600.35 31.46Z" fill="black"/>
<g opacity="0.05">
<path opacity="0.05" d="M491.19 125.35C491.616 123.972 491.792 122.53 491.71 121.09C491.47 117.2 489.27 113.92 486.5 111.09C485.14 112.2 483.73 113.26 482.28 114.25C486 117.29 489.82 120.9 491.19 125.35Z" fill="#FF0066"/>
<path opacity="0.05" d="M591.05 175.37C574.003 176.006 557.045 172.632 541.54 165.52C539.071 164.273 536.518 163.201 533.9 162.31C530.77 161.441 527.526 161.057 524.28 161.17C513.19 161.34 502.49 165.86 493.75 172.68C486.75 172.28 480.69 166.85 478.57 160.22C478.275 159.274 478.048 158.308 477.89 157.33C477.348 160.635 477.581 164.02 478.57 167.22C480.69 173.85 486.8 179.28 493.75 179.68C502.49 172.86 513.19 168.34 524.28 168.17C527.526 168.057 530.77 168.441 533.9 169.31C536.518 170.201 539.071 171.273 541.54 172.52C557.086 179.662 574.094 183.046 591.19 182.4C590.442 180.123 590.394 177.675 591.05 175.37V175.37Z" fill="#FF0066"/>
<path opacity="0.05" d="M602 138.46C600.35 143.69 599.54 149.19 597.38 154.24C594.5 160.95 588.84 168.24 591.08 175.11C592.31 170.43 595.46 165.71 597.38 161.24C599.54 156.19 600.38 150.69 602 145.46C606.14 132.545 615.146 121.749 627.11 115.36C626.529 113.393 625.727 111.497 624.72 109.71C613.926 116.238 605.856 126.449 602 138.46V138.46Z" fill="#FF0066"/>
</g>
<path d="M589.36 123.79C590.56 130.36 594.09 136.22 597.31 142.06C607.25 160.06 614.86 179.23 622.66 198.25C625.24 204.52 627.9 210.9 632.29 216.06C634.958 218.969 637.828 221.686 640.88 224.19C648.626 231.255 656.008 238.708 663 246.52L707.44 294.41C709.76 296.827 712.335 298.986 715.12 300.85C717.49 302.52 719.86 304.19 722.35 305.67C729.51 309.96 737.51 312.62 745.43 315.25C747.12 315.81 749.02 316.36 750.61 315.57C752.2 314.78 752.92 312.87 753.27 311.11C754.127 306.507 753.619 301.754 751.808 297.436C749.998 293.119 746.964 289.425 743.08 286.81C737.46 283.16 730.62 282.1 724.19 280.23C717.76 278.36 711.08 275.16 708.14 269.14C704.612 261.804 700.603 254.708 696.14 247.9C692.71 242.76 688.83 237.9 685.61 232.63C682.67 227.79 680.3 222.63 677.17 217.88C669.61 206.45 657.72 197.79 652.83 184.98C647.62 171.32 641.61 158.22 636.21 144.63C633.56 137.95 629.85 131.69 627.74 124.82C626.65 121.28 626 117.59 624.59 114.17C623.18 110.75 620.85 107.48 617.45 106.01C611.95 106.21 608.55 111.81 604.79 115.84C600.793 120.289 595.303 123.118 589.36 123.79V123.79Z" fill="#FBB3B2"/>
<path opacity="0.05" d="M639.43 248.67C626.85 248.89 614.15 251.92 603.48 258.6C592.81 265.28 584.34 275.81 581.34 288.04C580.791 290.372 580.37 292.732 580.08 295.11C579.46 299.66 579.08 304.35 578.02 308.65L577.93 309.03C564.457 300.197 548.569 295.775 532.47 296.38C532.72 295.18 531.86 296.58 532.47 295.55C532.691 295.231 532.869 294.885 533 294.52C534.29 293.52 535.59 292.52 536.9 291.52C542.65 287.17 549.59 286.34 556.26 283.59C560.611 281.797 565.205 280.661 569.89 280.22C570.416 280.132 570.956 280.177 571.46 280.35C571.975 280.635 572.403 281.053 572.7 281.56C573.47 282.67 574.2 283.8 574.9 284.95L589.15 246.95C589.15 246.95 622.15 240.95 638.15 246.95L638.5 247.09L639.43 248.67Z" fill="#FF0066"/>
<path opacity="0.05" d="M751.61 309.52C750.02 310.31 748.12 309.76 746.43 309.2C738.51 306.57 730.51 303.91 723.35 299.62C720.86 298.14 718.49 296.47 716.12 294.8C713.335 292.936 710.76 290.777 708.44 288.36C693.627 272.407 678.813 256.46 664 240.52C657.008 232.715 649.625 225.269 641.88 218.21C638.828 215.706 635.958 212.989 633.29 210.08C628.9 204.92 626.29 198.54 623.66 192.27C615.86 173.27 608.25 154.08 598.31 136.08C595.879 131.994 593.751 127.736 591.94 123.34C591.1 123.53 590.25 123.69 589.36 123.81C590.56 130.38 594.09 136.24 597.31 142.08C607.25 160.08 614.86 179.25 622.66 198.27C625.24 204.54 627.9 210.92 632.29 216.08C634.958 218.989 637.828 221.706 640.88 224.21C648.625 231.269 656.008 238.715 663 246.52C677.82 262.48 692.633 278.443 707.44 294.41C709.76 296.827 712.335 298.986 715.12 300.85C717.49 302.52 719.86 304.19 722.35 305.67C729.51 309.96 737.51 312.62 745.43 315.25C747.12 315.81 749.02 316.36 750.61 315.57C752.2 314.78 752.92 312.87 753.27 311.11C753.533 309.792 753.674 308.453 753.69 307.11C753.303 308.134 752.566 308.988 751.61 309.52V309.52Z" fill="#FF0066"/>
<path d="M607.06 125.71C612.98 122.49 622.25 119.43 627.64 115.4C628.39 114.84 626.58 112.34 626.64 111.4C626.64 110.88 625.88 109.88 625.64 109.4C621.51 101.09 610.81 97.53 601.72 99.4C598.709 100.141 595.788 101.211 593.01 102.59C590.884 103.393 588.927 104.587 587.24 106.11C584.68 108.73 583.93 112.61 583.63 116.26C583.38 119.37 583.37 122.62 584.63 125.49C586.22 129.18 589.45 135.76 593.92 134C598.13 132.34 602.88 127.99 607.06 125.71Z" fill="#EEEFF3"/>
<path opacity="0.05" d="M549.425 243.411C550.468 242.809 550.642 241.158 549.813 239.723C548.985 238.289 547.468 237.613 546.425 238.215C545.383 238.817 545.209 240.469 546.037 241.903C546.866 243.338 548.383 244.013 549.425 243.411Z" fill="#FF0066"/>
<path d="M531.47 295.38C547.569 294.775 563.457 299.197 576.93 308.03C578.59 301.36 578.7 293.72 580.34 287.03C583.34 274.81 591.82 264.28 602.48 257.6C613.14 250.92 625.85 247.88 638.43 247.67C632.25 236.86 625.03 226.67 614.95 219.34C611.02 216.5 606.6 214.03 603.95 209.97C599.89 210.74 596.3 211.52 592.76 213.66L546.5 241.66C542.068 244.444 537.496 246.998 532.8 249.31C528.816 251.184 524.677 252.709 520.43 253.87C519.586 255.002 518.998 256.303 518.706 257.684C518.414 259.066 518.426 260.494 518.74 261.87C519.517 264.863 520.69 267.738 522.23 270.42L530.36 286.18C531.72 288.82 533.08 292.08 531.51 294.6C530.86 295.59 531.72 294.19 531.47 295.38Z" fill="#FF0066"/>
<g opacity="0.05">
<path opacity="0.05" d="M549.85 39.52C543.263 42.3302 536.232 43.9584 529.08 44.33C528.38 45.898 528.171 47.641 528.48 49.33C534.394 49.0749 540.239 47.9564 545.83 46.01C547.327 43.9481 548.671 41.7789 549.85 39.52V39.52Z" fill="#FF0066"/>
<path opacity="0.05" d="M613.7 57.8C606.16 51.62 599.27 44.52 592.47 37.52L572.64 17.14C571.07 20.3 568.82 23.37 567.48 25.88C563.27 33.75 559.02 41.7 553.18 48.45C549.089 53.32 544.015 57.2698 538.29 60.04C535.91 62.57 533.42 65.04 530.94 67.44C539.7 65.75 547.34 60.2 553.18 53.44C559.02 46.68 563.27 38.74 567.48 30.87C568.82 28.36 571.07 25.29 572.64 22.13L592.47 42.52C602.99 53.35 613.69 64.33 626.75 71.92C621.746 67.8628 617.351 63.1075 613.7 57.8V57.8Z" fill="#FF0066"/>
</g>
<path d="M1022.54 534.04H899.46C895.34 534.04 892 537.38 892 541.5V740.58C892 744.7 895.34 748.04 899.46 748.04H1022.54C1026.66 748.04 1030 744.7 1030 740.58V541.5C1030 537.38 1026.66 534.04 1022.54 534.04Z" fill="#222222"/>
<path opacity="0.1" d="M961 620.54C978.673 620.54 993 606.213 993 588.54C993 570.867 978.673 556.54 961 556.54C943.327 556.54 929 570.867 929 588.54C929 606.213 943.327 620.54 961 620.54Z" fill="#FF0066"/>
<path opacity="0.1" d="M961 618.31C977.442 618.31 990.77 604.981 990.77 588.54C990.77 572.098 977.442 558.77 961 558.77C944.558 558.77 931.23 572.098 931.23 588.54C931.23 604.981 944.558 618.31 961 618.31Z" fill="#FF0066"/>
<path opacity="0.1" d="M961 725.54C984.748 725.54 1004 706.288 1004 682.54C1004 658.792 984.748 639.54 961 639.54C937.252 639.54 918 658.792 918 682.54C918 706.288 937.252 725.54 961 725.54Z" fill="#FF0066"/>
<path opacity="0.1" d="M961 722.54C983.091 722.54 1001 704.631 1001 682.54C1001 660.449 983.091 642.54 961 642.54C938.909 642.54 921 660.449 921 682.54C921 704.631 938.909 722.54 961 722.54Z" fill="#FF0066"/>
<path d="M164.54 541H41.46C37.34 541 34 544.34 34 548.46V747.54C34 751.66 37.34 755 41.46 755H164.54C168.66 755 172 751.66 172 747.54V548.46C172 544.34 168.66 541 164.54 541Z" fill="#222222"/>
<path opacity="0.1" d="M103 627.5C120.673 627.5 135 613.173 135 595.5C135 577.827 120.673 563.5 103 563.5C85.3269 563.5 71 577.827 71 595.5C71 613.173 85.3269 627.5 103 627.5Z" fill="#FF0066"/>
<path opacity="0.1" d="M103 625.27C119.442 625.27 132.77 611.942 132.77 595.5C132.77 579.058 119.442 565.73 103 565.73C86.5585 565.73 73.23 579.058 73.23 595.5C73.23 611.942 86.5585 625.27 103 625.27Z" fill="#FF0066"/>
<path opacity="0.1" d="M103 732.5C126.748 732.5 146 713.248 146 689.5C146 665.752 126.748 646.5 103 646.5C79.2518 646.5 60 665.752 60 689.5C60 713.248 79.2518 732.5 103 732.5Z" fill="#FF0066"/>
<path opacity="0.1" d="M103 729.5C125.091 729.5 143 711.591 143 689.5C143 667.409 125.091 649.5 103 649.5C80.9086 649.5 63 667.409 63 689.5C63 711.591 80.9086 729.5 103 729.5Z" fill="#FF0066"/>
</g>
<defs>
<clipPath id="clip0">
<rect width="1114" height="811.04" fill="white"/>
</clipPath>
</defs>
</svg>
